<svg width="20" height="20" viewBox="0 0 20 20" fill="none" xmlns="http://www.w3.org/2000/svg">
<path fill-rule="evenodd" clip-rule="evenodd" d="M8.34175 1.66333C9.99059 1.33535 11.6997 1.50369 13.2528 2.14704C14.806 2.79038 16.1335 3.87986 17.0675 5.27768C18.0005 6.67401 18.4989 8.31539 18.5 9.99466C18.4987 11.2507 18.251 12.1534 17.8859 12.7176C17.5408 13.2509 17.0859 13.5 16.5156 13.5C16.1052 13.5 15.743 13.3401 15.4768 13.045C15.2088 12.7479 15 12.2689 15 11.5781V11V10V9.98438V5.5H13.5V6.42928C12.5981 5.54516 11.3627 5 10 5C7.23858 5 5 7.23858 5 10C5 12.7614 7.23858 15 10 15C11.5356 15 12.9095 14.3078 13.8267 13.2183C13.9647 13.5285 14.1446 13.8076 14.363 14.0497C14.921 14.6683 15.6917 15 16.5156 15C17.6328 15 18.5451 14.46 19.1453 13.5324C19.7225 12.6405 19.998 11.4194 20 10H20L20 9.98438C19.9969 8.01202 19.4106 6.08448 18.3147 4.44432C17.2159 2.79983 15.6541 1.5181 13.8269 0.761218C11.9996 0.00433697 9.98893 -0.193701 8.04912 0.192148C6.10931 0.577997 4.32748 1.5304 2.92895 2.92893C1.53042 4.32745 0.578009 6.10928 0.192154 8.04909C-0.193701 9.9889 0.00433083 11.9996 0.761206 13.8268C1.86707 16.4966 4.09955 18.523 6.75327 19.4474C8.18962 19.9478 9.62311 20 11 20H15V18.5H11C9.6431 18.5 8.42781 18.4424 7.24673 18.0309C4.98114 17.2417 3.08286 15.5121 2.14703 13.2528C1.50368 11.6996 1.33536 9.99057 1.66333 8.34173C1.99131 6.69289 2.80086 5.17833 3.98961 3.98959C5.17836 2.80084 6.69291 1.9913 8.34175 1.66333ZM13.5 10C13.5 8.067 11.933 6.5 10 6.5C8.067 6.5 6.5 8.067 6.5 10C6.5 11.933 8.067 13.5 10 13.5C11.933 13.5 13.5 11.933 13.5 10Z" fill="#3E532B"/>
</svg>
