<svg width="60" height="51" viewBox="0 0 60 51" fill="none" xmlns="http://www.w3.org/2000/svg">
<path d="M58.8991 17.2513C57.7883 14.7716 56.0711 12.4996 53.7409 11.052C49.3935 8.34574 43.233 9.27091 38.9175 12.2289C38.8792 10.7185 38.4515 9.20168 37.8259 7.81078C36.7151 5.33108 34.9978 3.05907 32.6677 1.61153C28.1543 -1.20174 21.681 -0.100351 17.3591 3.1283C14.614 5.17374 12.7435 8.08141 12.7754 11.3793C9.85162 11.6122 6.91503 12.7198 4.59129 14.4569C0.882242 17.2261 -1.24998 21.5624 0.792867 26.333C1.9292 28.989 3.16959 31.3783 5.92105 32.5615C2.7291 35.337 2.10157 38.9141 3.98482 43.3259C7.43851 51.4133 20.8423 51.451 26.4474 44.8805C27.1241 46.3028 28.8054 49.0406 30.146 49.865C32.6868 51.4385 35.9618 51.0986 38.8984 50.4944C43.1947 49.607 47.6252 48.1343 50.5171 44.8805C53.409 41.6266 53.6842 38.4462 53.2895 34.9154C53.1579 33.7385 51.8704 31.9344 50.9958 31.5505C56.0327 31.2421 58.3756 28.7498 59.7354 23.8344C60.3483 21.6568 59.8248 19.3156 58.8991 17.2513ZM40.0475 29.8701C40.0602 29.8764 40.073 29.8827 40.0858 29.889C40.0666 29.889 40.0539 29.8827 40.0347 29.8827C40.0411 29.8827 40.0475 29.8764 40.0475 29.8701Z" fill="#5C7644"/>
</svg>
