<svg width="76" height="65" viewBox="0 0 76 65" fill="none" xmlns="http://www.w3.org/2000/svg">
<g clip-path="url(#clip0_383_256)">
<path d="M74.6056 21.9869C73.1985 18.8265 71.0233 15.9308 68.0718 14.0859C62.5651 10.6367 54.7618 11.8159 49.2955 15.5859C49.247 13.6608 48.7052 11.7276 47.9128 9.95492C46.5058 6.79451 44.3305 3.89881 41.3791 2.0539C35.6621 -1.53163 27.4626 -0.127898 21.9882 3.98705C18.5111 6.59398 16.1418 10.2998 16.1822 14.503C12.4787 14.7998 8.75903 16.2116 5.81563 18.4254C1.11751 21.9548 -1.58331 27.4815 1.0043 33.5617C2.44366 36.9467 4.01482 39.992 7.5 41.5C3.45686 45.0374 2.66198 49.5964 5.04744 55.2193C9.42211 65.5267 26.4003 65.5749 33.5 57.2006C34.3571 59.0134 36.4869 62.5027 38.185 63.5535C41.4033 65.5588 45.5516 65.1257 49.2713 64.3556C54.7133 63.2246 60.3252 61.3476 63.9883 57.2006C67.6514 53.0535 68 49 67.5 44.5C67.3333 43 65.7026 40.7007 64.5947 40.2114C70.9748 39.8184 73.9425 36.6419 75.6649 30.3772C76.4411 27.6019 75.7781 24.6179 74.6056 21.9869ZM50.7268 38.0697C50.743 38.0777 50.7591 38.0857 50.7753 38.0938C50.751 38.0938 50.7349 38.0857 50.7106 38.0857C50.7187 38.0857 50.7268 38.0777 50.7268 38.0697Z" fill="#5C919C"/>
<path d="M24.3159 32.6561C24.2899 32.2401 24.1902 31.8457 24.0169 31.4731C23.8435 31.1004 23.5922 30.7971 23.2629 30.5631C22.9335 30.3291 22.5132 30.2121 22.0019 30.2121C21.4645 30.2121 21.0529 30.3637 20.7669 30.6671C20.4809 30.9704 20.3379 31.3257 20.3379 31.7331C20.3379 32.0971 20.4419 32.4047 20.6499 32.6561C20.8579 32.8987 21.1265 33.1154 21.4559 33.3061C21.7939 33.4881 22.1492 33.6657 22.5219 33.8391C22.8512 33.9864 23.1805 34.1467 23.5099 34.3201C23.8392 34.4847 24.1382 34.6754 24.4069 34.8921C24.6755 35.1087 24.8879 35.3687 25.0439 35.6721C25.2085 35.9667 25.2909 36.3221 25.2909 36.7381C25.2909 37.2147 25.1695 37.6394 24.9269 38.0121C24.6929 38.3847 24.3505 38.6794 23.8999 38.8961C23.4492 39.1041 22.8989 39.2081 22.2489 39.2081C21.8589 39.2081 21.4559 39.1517 21.0399 39.0391C20.6239 38.9264 20.2555 38.7617 19.9349 38.5451L19.9999 39.1041H19.3239L19.2459 36.3351H19.7529C19.7962 37.0977 20.0605 37.6784 20.5459 38.0771C21.0312 38.4671 21.6162 38.6621 22.3009 38.6621C22.6389 38.6621 22.9509 38.6014 23.2369 38.4801C23.5229 38.3501 23.7482 38.1637 23.9129 37.9211C24.0862 37.6784 24.1729 37.3837 24.1729 37.0371C24.1729 36.6471 24.0689 36.3221 23.8609 36.0621C23.6529 35.8021 23.3842 35.5767 23.0549 35.3861C22.7255 35.1954 22.3745 35.0134 22.0019 34.8401C21.6725 34.6927 21.3475 34.5367 21.0269 34.3721C20.7062 34.2074 20.4115 34.0211 20.1429 33.8131C19.8829 33.5964 19.6705 33.3407 19.5059 33.0461C19.3499 32.7514 19.2719 32.3961 19.2719 31.9801C19.2719 31.7547 19.3109 31.5121 19.3889 31.2521C19.4669 30.9921 19.6012 30.7451 19.7919 30.5111C19.9912 30.2684 20.2599 30.0734 20.5979 29.9261C20.9445 29.7701 21.3822 29.6921 21.9109 29.6921C22.2402 29.6921 22.6085 29.7397 23.0159 29.8351C23.4319 29.9217 23.8175 30.0951 24.1729 30.3551L24.1209 29.7961H24.7839V32.6561H24.3159Z" fill="white"/>
<path d="M27.0899 39.0001V38.5711C27.3499 38.5711 27.5492 38.5017 27.6879 38.3631C27.8265 38.2244 27.9392 38.0337 28.0259 37.7911C28.1212 37.5484 28.2295 37.2667 28.3509 36.9461L31.0289 29.6531H31.3409L34.2399 37.0501C34.3092 37.2321 34.3872 37.4661 34.4739 37.7521C34.5605 38.0381 34.5952 38.2807 34.5779 38.4801C34.7252 38.4714 34.8725 38.4627 35.0199 38.4541C35.1672 38.4454 35.3145 38.4367 35.4619 38.4281V39.0001H32.4849V38.5711C32.8142 38.5624 33.0309 38.4887 33.1349 38.3501C33.2389 38.2114 33.2779 38.0467 33.2519 37.8561C33.2259 37.6654 33.1825 37.4921 33.1219 37.3361L32.6669 36.1141L29.2869 36.1921L28.8319 37.5831C28.7712 37.7911 28.7149 37.9557 28.6629 38.0771C28.6195 38.1984 28.5675 38.3327 28.5069 38.4801C28.6802 38.4714 28.8492 38.4627 29.0139 38.4541C29.1872 38.4454 29.3562 38.4367 29.5209 38.4281V39.0001H27.0899ZM29.4819 35.6331H32.4849L31.5619 33.1501C31.4665 32.8814 31.3669 32.6171 31.2629 32.3571C31.1675 32.0884 31.0722 31.8197 30.9769 31.5511H30.9509C30.8642 31.7937 30.7732 32.0364 30.6779 32.2791C30.5912 32.5217 30.5002 32.7687 30.4049 33.0201L29.4819 35.6331Z" fill="white"/>
<path d="M37.3206 39.0001V38.5711C37.6499 38.5537 37.8752 38.4801 37.9966 38.3501C38.1179 38.2114 38.1829 38.0251 38.1916 37.7911C38.2089 37.5484 38.2176 37.2754 38.2176 36.9721V31.3561C38.2176 31.1827 38.2219 31.0181 38.2306 30.8621C38.2392 30.6974 38.2479 30.5501 38.2566 30.4201C38.1006 30.4287 37.9446 30.4374 37.7886 30.4461C37.6326 30.4547 37.4766 30.4634 37.3206 30.4721V29.9001H40.2456V30.3291C39.9249 30.3377 39.6996 30.4114 39.5696 30.5501C39.4482 30.6887 39.3789 30.8751 39.3616 31.1091C39.3529 31.3431 39.3486 31.6161 39.3486 31.9281V37.5051C39.3486 37.7391 39.3442 37.9384 39.3356 38.1031C39.3356 38.2677 39.3269 38.4064 39.3096 38.5191L41.7406 38.4801C42.2866 38.4714 42.6982 38.2981 42.9756 37.9601C43.2616 37.6221 43.4046 37.0717 43.4046 36.3091H43.8466L43.7686 39.0001H37.3206Z" fill="white"/>
<path d="M50.6602 35.6331C50.6602 35.2517 50.6082 34.9787 50.5042 34.8141C50.4002 34.6494 50.2355 34.5497 50.0102 34.5151C49.7848 34.4804 49.4858 34.4717 49.1132 34.4891L48.1642 34.5281V37.5051C48.1642 37.7391 48.1598 37.9384 48.1512 38.1031C48.1512 38.2677 48.1425 38.4064 48.1252 38.5191L50.6082 38.4801C50.9895 38.4714 51.3188 38.4107 51.5962 38.2981C51.8735 38.1767 52.0902 37.9687 52.2462 37.6741C52.4022 37.3794 52.4802 36.9764 52.4802 36.4651H52.9222L52.8442 39.0001H46.1362V38.5711C46.4655 38.5537 46.6908 38.4801 46.8122 38.3501C46.9335 38.2114 46.9985 38.0251 47.0072 37.7911C47.0245 37.5484 47.0332 37.2754 47.0332 36.9721V31.3561C47.0332 31.1827 47.0375 31.0181 47.0462 30.8621C47.0548 30.6974 47.0635 30.5501 47.0722 30.4201C46.9162 30.4287 46.7602 30.4374 46.6042 30.4461C46.4482 30.4547 46.2922 30.4634 46.1362 30.4721V29.9001H52.3892L52.4542 32.1751H52.0252C52.0252 31.6637 51.9472 31.2781 51.7912 31.0181C51.6352 30.7494 51.4228 30.5717 51.1542 30.4851C50.8942 30.3897 50.5995 30.3464 50.2702 30.3551L49.1522 30.3811C48.8315 30.3897 48.6018 30.4504 48.4632 30.5631C48.3245 30.6757 48.2378 30.8447 48.2032 31.0701C48.1772 31.2867 48.1642 31.5727 48.1642 31.9281V34.0081L50.6082 34.0211L50.5172 32.9031H51.0892V35.6331H50.6602Z" fill="white"/>
</g>
<defs>
<clipPath id="clip0_383_256">
<rect width="76" height="65" fill="white"/>
</clipPath>
</defs>
</svg>
