<svg width="34" height="29" viewBox="0 0 34 29" fill="none" xmlns="http://www.w3.org/2000/svg">
<path d="M33.3762 9.80955C32.7467 8.39952 31.7736 7.1076 30.4532 6.28448C27.9896 4.74562 24.4987 5.2717 22.0533 6.95371C22.0316 6.09481 21.7892 5.23233 21.4347 4.44143C20.8052 3.0314 19.8321 1.73947 18.5117 0.916358C15.9541 -0.683343 12.2859 -0.0570623 9.83682 1.77884C8.28127 2.94193 7.22133 4.59531 7.23942 6.47058C5.58259 6.60299 3.91852 7.23285 2.60173 8.22059C0.499937 9.79524 -0.708322 12.261 0.449291 14.9737C1.09321 16.4839 1.7961 17.8426 3.35526 18.5154C1.54649 20.0936 1.19089 22.1276 2.25806 24.6363C4.21515 29.235 11.8106 29.2565 14.9868 25.5203C15.3703 26.3291 16.3231 27.8858 17.0828 28.3546C18.5225 29.2493 20.3783 29.0561 22.0424 28.7125C24.477 28.2079 26.9876 27.3705 28.6263 25.5203C30.2651 23.67 30.4211 21.8615 30.1974 19.8538C30.1228 19.1846 29.3933 18.1588 28.8976 17.9405C31.7519 17.7651 33.0795 16.3479 33.8501 13.5529C34.1973 12.3147 33.9007 10.9834 33.3762 9.80955ZM22.6936 16.9849C22.7008 16.9885 22.708 16.9921 22.7153 16.9957C22.7044 16.9957 22.6972 16.9921 22.6863 16.9921C22.6899 16.9921 22.6936 16.9885 22.6936 16.9849Z" fill="#7FA7AF"/>
</svg>
