<svg width="24" height="24" viewBox="0 0 24 24" fill="none" xmlns="http://www.w3.org/2000/svg">
<path fill-rule="evenodd" clip-rule="evenodd" d="M13.4963 20.8783V17H14.9963L17.9987 17C19.7899 17 21.182 15.4405 20.9795 13.6608L20.4986 9.43472C20.2112 6.90832 18.0734 5 15.5307 5L8.49857 5L8.49813 5H6.99813H5.00006C3.89549 5 3.00006 5.89543 3.00006 7V15C3.00006 16.1046 3.89549 17 5.00006 17H6.99813H7.32249L9.43677 21.7423C9.77783 22.5072 10.537 23 11.3746 23C12.5464 23 13.4963 22.0501 13.4963 20.8783ZM15.5307 6.5L8.49856 6.5L8.49856 15.9542L10.8068 21.1315C10.9067 21.3556 11.1292 21.5 11.3746 21.5C11.7179 21.5 11.9963 21.2217 11.9963 20.8783V17C11.9963 16.1716 12.6679 15.5 13.4963 15.5L17.9987 15.5C18.8943 15.5 19.5904 14.7203 19.4891 13.8304L19.0082 9.60431C18.807 7.83582 17.3106 6.5 15.5307 6.5ZM5.00006 15.5H6.99813V6.5H5.00006C4.72392 6.5 4.50006 6.72385 4.50006 7V15C4.50006 15.2761 4.72392 15.5 5.00006 15.5Z" fill="#212D1E"/>
</svg>
