<svg width="18" height="10" viewBox="0 0 18 10" fill="none" xmlns="http://www.w3.org/2000/svg">
<path fill-rule="evenodd" clip-rule="evenodd" d="M8.99882 8.50088C5.98814 8.50088 3.33005 7.11783 1.67903 5.00073C2.71544 3.6715 4.14882 2.63158 5.8172 2.04155C5.61341 2.48553 5.49979 2.9795 5.49979 3.5C5.49979 5.433 7.06679 7 8.99979 7C10.9328 7 12.4998 5.433 12.4998 3.5C12.4998 2.97967 12.3862 2.48585 12.1826 2.04199C13.8502 2.63201 15.2829 3.67153 16.3191 5.00015C14.6681 7.11757 12.0098 8.50088 8.99882 8.50088ZM8.9996 4.86773e-09C12.7009 0.000108478 15.9709 1.81311 17.8665 4.57578C18.0419 4.83145 18.0419 5.16871 17.8665 5.42439C15.9709 8.18754 12.7006 10.0009 8.99882 10.0009C5.29738 10.0009 2.02727 8.18785 0.131582 5.4251C-0.0438474 5.16943 -0.0438618 4.83217 0.131546 4.57649C2.02716 1.81334 5.29751 0 8.99927 0C8.99938 0 8.99949 4.86773e-09 8.9996 4.86773e-09ZM10.9998 3.5C10.9998 4.60457 10.1044 5.5 8.99979 5.5C7.89522 5.5 6.99979 4.60457 6.99979 3.5C6.99979 2.39543 7.89522 1.5 8.99979 1.5C10.1044 1.5 10.9998 2.39543 10.9998 3.5Z" fill="#212D1E" fill-opacity="0.5"/>
</svg>
