<svg width="20" height="20" viewBox="0 0 20 20" fill="none" xmlns="http://www.w3.org/2000/svg">
<path fill-rule="evenodd" clip-rule="evenodd" d="M18.5 10C18.5 14.6944 14.6944 18.5 10 18.5C5.30558 18.5 1.5 14.6944 1.5 10C1.5 5.30558 5.30558 1.5 10 1.5C14.6944 1.5 18.5 5.30558 18.5 10ZM20 10C20 15.5228 15.5228 20 10 20C4.47715 20 0 15.5228 0 10C0 4.47715 4.47715 0 10 0C15.5228 0 20 4.47715 20 10ZM10.7502 12.088H8.9862V11.864C8.9862 11.01 9.2662 10.478 10.1902 9.736C11.1142 8.994 11.4782 8.504 11.4782 7.79C11.4782 7.062 10.8762 6.6 10.0222 6.6C9.1682 6.6 8.4402 7.118 8.4402 7.986C8.4402 8.168 8.4822 8.364 8.5382 8.504L6.9282 8.84C6.8022 8.574 6.7322 8.252 6.7322 7.832C6.7322 6.432 7.9782 5.004 9.9802 5.004C12.0102 5.004 13.2142 6.082 13.2142 7.664C13.2142 8.784 12.8082 9.47 11.4082 10.674C10.9042 11.108 10.7502 11.472 10.7502 12.088ZM10.7922 15H8.9442V13.068H10.7922V15Z" fill="#3E532B"/>
</svg>
