<svg width="140" height="140" viewBox="0 0 140 140" fill="none" xmlns="http://www.w3.org/2000/svg">
<g clip-path="url(#clip0_315_901)">
<path d="M36.9607 69.9883C37.0509 69.9034 37.0584 69.749 36.9832 69.6486C36.9532 69.6023 36.9081 69.5637 36.8555 69.556C36.833 69.556 36.8105 69.5483 36.7879 69.5483C36.7429 69.5483 36.6978 69.556 36.6602 69.5792C36.5776 69.61 36.51 69.6563 36.4349 69.7027C36.3823 69.7413 36.3297 69.7798 36.2846 69.8339C36.247 69.8879 36.202 69.9419 36.1644 69.996C36.0442 70.189 35.9841 70.4051 35.9616 70.6289C35.9541 70.7139 35.9991 70.8142 36.0517 70.8682C36.1043 70.9223 36.1945 70.9686 36.2771 70.9686C36.4574 70.9686 36.6001 70.8296 36.6076 70.6444C36.6076 70.6289 36.6076 70.6212 36.6151 70.6058C36.6302 70.5363 36.6452 70.4668 36.6752 70.4051C36.7053 70.3356 36.7429 70.2661 36.7954 70.2044L36.7429 70.2662C36.7879 70.2121 36.818 70.1504 36.8631 70.0963C36.8931 70.0577 36.9232 70.0269 36.9607 69.9883Z" fill="#5C7644"/>
<path d="M41.6559 64.8396C41.5808 64.7624 41.4306 64.7393 41.3479 64.8242C41.1676 64.994 40.9873 65.1638 40.8071 65.3336C40.7545 65.3877 40.7244 65.4417 40.7094 65.5112C40.6944 65.5961 40.7319 65.681 40.7845 65.7427C40.8371 65.7968 40.8972 65.8199 40.9648 65.8199C41.0024 65.8199 41.0324 65.8199 41.07 65.8045C41.1151 65.7891 41.1526 65.7582 41.1827 65.7196C41.3479 65.5343 41.5132 65.3491 41.6785 65.1638C41.716 65.1252 41.7311 65.0403 41.7236 64.9863C41.716 64.9245 41.6935 64.8782 41.6559 64.8396Z" fill="#5C7644"/>
<path d="M45.5248 59.1276C45.4046 59.0581 45.2544 59.0967 45.1717 59.2047C45.0515 59.3514 44.9313 59.4981 44.8111 59.6447C44.6909 59.7914 44.5707 59.9303 44.443 60.0616C44.428 60.077 44.413 60.0924 44.398 60.1079C44.3679 60.1387 44.3379 60.1696 44.3003 60.2005C44.2327 60.2623 44.1651 60.3317 44.09 60.3935C43.9472 60.517 43.797 60.6328 43.6467 60.7408C43.504 60.8412 43.4815 61.0882 43.5941 61.2271C43.7218 61.3815 43.9097 61.3892 44.0674 61.2812C44.3904 61.065 44.6834 60.818 44.9539 60.5401C45.1041 60.3858 45.2318 60.2314 45.3595 60.0538C45.4797 59.8763 45.5774 59.6756 45.66 59.4826C45.7126 59.3514 45.645 59.1893 45.5248 59.1276Z" fill="#5C7644"/>
<path d="M51.2116 55.0287C51.144 54.8589 50.9637 54.7663 50.7909 54.828C50.1599 55.0442 49.5514 55.3066 48.9354 55.5613C48.7476 55.6385 48.6274 55.8624 48.71 56.0631C48.7851 56.2483 49.003 56.3796 49.1983 56.2946C49.8068 56.0245 50.4228 55.7698 51.0163 55.461C51.1665 55.3838 51.2867 55.2063 51.2116 55.0287Z" fill="#5C7644"/>
<path d="M56.8534 50.9994C56.8008 50.9068 56.6656 50.8373 56.5604 50.8913C56.275 51.0534 55.982 51.2155 55.704 51.4008C55.4336 51.5783 55.1706 51.7559 54.9002 51.9334C54.7725 52.0183 54.75 52.2344 54.8401 52.358C54.9453 52.4892 55.1105 52.5123 55.2533 52.4197C55.5162 52.2422 55.7791 52.0646 56.0346 51.8871C56.2975 51.7096 56.5379 51.5089 56.7858 51.3159C56.8835 51.2387 56.9135 51.0997 56.8534 50.9994Z" fill="#5C7644"/>
<path d="M73.0425 44.1448C72.0809 44.1448 72.096 45.6732 73.0575 45.6732C74.0191 45.6732 74.0041 44.1448 73.0425 44.1448Z" fill="#5C7644"/>
<path d="M84.2585 53.2842C84.1533 53.1684 84.0481 53.0372 83.9279 52.9291C83.8227 52.8288 83.7025 52.7439 83.5899 52.6512C83.372 52.466 83.1466 52.2884 82.9288 52.1032C82.786 51.9797 82.5381 52.0028 82.4254 52.1649C82.3128 52.327 82.3278 52.5509 82.4855 52.6821C82.7109 52.8597 82.9288 53.0449 83.1541 53.2224C83.2668 53.3074 83.372 53.4 83.4847 53.4849C83.6124 53.5852 83.7626 53.6547 83.8979 53.7396C84.003 53.8014 84.1833 53.7473 84.2509 53.647C84.3261 53.5621 84.3486 53.3845 84.2585 53.2842Z" fill="#5C7644"/>
<path d="M88.4728 56.3641L87.9545 56.094C87.8718 56.0554 87.8117 56.1789 87.8944 56.2252L88.4127 56.4954C88.4878 56.5417 88.5479 56.4105 88.4728 56.3641Z" fill="#5C7644"/>
<path d="M92.4619 58.9191C92.4619 58.9191 92.4018 58.8728 92.4318 58.896C92.4544 58.9191 92.4018 58.8728 92.4018 58.8728C92.3717 58.8419 92.3342 58.8188 92.3041 58.7879C92.2215 58.7184 92.1464 58.649 92.0637 58.5872C92.0337 58.5641 92.0036 58.5409 91.9736 58.5177C91.9586 58.5023 91.9586 58.51 91.9886 58.5332C91.9661 58.5177 91.9435 58.4946 91.921 58.4791C91.906 58.4637 91.8834 58.456 91.8684 58.4406C91.8308 58.4174 91.8008 58.3865 91.7632 58.3634C91.7482 58.3556 91.7407 58.3479 91.7257 58.3325C91.7182 58.3325 91.7107 58.3248 91.7031 58.317C91.4402 58.1009 91.1998 57.8539 90.9895 57.5837C90.9068 57.4757 90.7416 57.4834 90.6439 57.5606C90.5462 57.6378 90.5012 57.7999 90.5688 57.9079C90.7791 58.2244 91.012 58.5177 91.2825 58.7802C91.4252 58.9191 91.5754 59.0426 91.7332 59.1584C91.8909 59.2665 92.0863 59.3437 92.2666 59.4132C92.3868 59.4595 92.522 59.3668 92.5671 59.2588C92.6196 59.1198 92.5671 59.004 92.4619 58.9191Z" fill="#5C7644"/>
<path d="M95.9627 63.2649C95.8951 63.1183 95.8274 62.9716 95.7523 62.8327C95.6772 62.6937 95.587 62.5625 95.5044 62.4236C95.4593 62.3464 95.3842 62.2923 95.3016 62.2692C95.2189 62.246 95.1138 62.2615 95.0462 62.3078C94.9785 62.3541 94.9109 62.4236 94.8959 62.5162C94.8809 62.6011 94.8809 62.7014 94.9335 62.7786C95.0236 62.9099 95.1138 63.0488 95.2039 63.18C95.3091 63.3267 95.4293 63.4656 95.5495 63.6046C95.5871 63.6509 95.6772 63.6895 95.7448 63.6818C95.8049 63.6818 95.8575 63.6586 95.9101 63.62C96.0002 63.5351 96.0228 63.3884 95.9627 63.2649Z" fill="#5C7644"/>
<path d="M20.9144 66.6305C19.7725 66.5379 18.6306 66.5533 17.4963 66.4452C16.3619 66.3372 15.2275 66.1828 14.1157 65.9435C13.8903 65.8972 13.8077 66.2831 14.0256 66.3526C16.2192 67.0164 18.6532 67.495 20.9369 67.1245C21.1999 67.0782 21.1848 66.6536 20.9144 66.6305Z" fill="#5C7644"/>
<path d="M23.3784 55.762C22.0412 54.5965 20.5914 53.5544 19.1865 52.4737C18.9161 52.2653 18.6457 52.7284 18.9161 52.9369C20.2984 54.0098 21.6581 55.1368 23.108 56.1171C23.3108 56.2561 23.5738 55.9319 23.3784 55.762Z" fill="#5C7644"/>
<path d="M39.1768 42.2769C37.9448 40.571 36.3146 39.1043 34.8873 37.5682C33.3923 35.9704 31.9199 34.3494 30.47 32.713C27.6003 29.4864 24.7607 26.229 22.0111 22.8866C21.8233 22.655 21.4552 22.9252 21.643 23.1645C24.3325 26.6226 27.0745 30.0345 29.9367 33.3459C31.3264 34.9515 32.7388 36.5493 34.1661 38.124C35.5935 39.6987 37.0133 41.4741 38.6735 42.7863C38.989 43.0333 39.4248 42.6088 39.1768 42.2769Z" fill="#5C7644"/>
<path d="M44.6008 34.249C42.8805 31.8484 40.9498 29.5944 39.1093 27.2941C38.8463 26.9622 38.358 27.3868 38.6135 27.7264C40.4239 30.0576 42.1668 32.4659 44.0975 34.689C44.3829 35.0132 44.8487 34.5964 44.6008 34.249Z" fill="#5C7644"/>
<path d="M54.4795 32.9754C53.4804 30.9453 52.2484 29.0232 51.1065 27.0703C50.9262 26.7693 50.498 27.0703 50.6633 27.3714C51.7601 29.3474 52.7968 31.393 54.0363 33.2764C54.2316 33.5775 54.6223 33.2842 54.4795 32.9754Z" fill="#5C7644"/>
<path d="M71.7579 9.247C71.7579 8.89192 71.217 8.93052 71.217 9.2856C71.217 12.4118 71.2095 15.538 71.2095 18.6642C71.2095 19.027 71.7579 18.9884 71.7579 18.6257C71.7579 15.4994 71.7579 12.3732 71.7579 9.247Z" fill="#5C7644"/>
<path d="M86.5272 24.3995C86.3243 24.3301 86.0313 24.4459 85.9863 24.6774L85.2951 27.9503C85.0623 29.0387 84.7993 30.1194 84.7242 31.2309C84.6941 31.6477 85.2801 31.7404 85.4078 31.3621C85.7684 30.3278 85.9412 29.2548 86.1591 28.1819C86.3694 27.1089 86.5873 26.036 86.7976 24.963C86.8427 24.7237 86.76 24.4844 86.5272 24.3995Z" fill="#5C7644"/>
<path d="M114.601 21.3273C108.335 26.0822 102.303 31.1691 96.2106 36.1556C95.7899 36.4953 96.2707 37.19 96.6989 36.8503C102.859 31.9564 109.102 27.1398 115.082 22.0143C115.48 21.6747 115.029 21.0031 114.601 21.3273Z" fill="#5C7644"/>
<path d="M116.374 35.8855C111.889 37.9233 107.487 40.1387 103.069 42.3155C102.528 42.5779 102.972 43.4116 103.513 43.1568C107.96 41.0418 112.422 38.9654 116.809 36.7191C117.343 36.4413 116.907 35.6462 116.374 35.8855Z" fill="#5C7644"/>
<path d="M119.364 49.1159C117.433 49.8647 115.54 50.706 113.632 51.5397C113.181 51.7404 113.406 52.4969 113.872 52.2962C115.78 51.4857 117.696 50.6829 119.574 49.7952C119.972 49.6099 119.792 48.9538 119.364 49.1159Z" fill="#5C7644"/>
<path d="M136.852 54.1565C130.692 55.6926 124.66 57.6918 118.77 60.1079C118.327 60.2854 118.688 60.9492 119.123 60.7717C124.968 58.4328 130.963 56.5185 137.048 54.9901C137.574 54.8512 137.378 54.0252 136.852 54.1565Z" fill="#5C7644"/>
<path d="M137.153 67.8346C133.855 68.4907 130.564 69.1777 127.237 69.6563C126.681 69.7335 126.808 70.6135 127.364 70.5363C130.692 70.0809 134.02 69.5174 137.265 68.6065C137.724 68.483 137.649 67.7343 137.153 67.8346Z" fill="#5C7644"/>
<path d="M139.437 78.7648C137.266 79.2202 135.094 79.6757 132.923 80.1311C132.383 80.2469 132.615 81.0882 133.156 80.9802C135.335 80.5402 137.506 80.1002 139.684 79.6602C140.248 79.5444 140 78.6413 139.437 78.7648Z" fill="#5C7644"/>
<path d="M14.7092 74.8204C10.029 76.3564 5.22861 77.5297 0.390661 78.402C-0.225351 78.5101 -0.0675914 79.6293 0.563445 79.5367C5.49154 78.8034 10.3295 77.6378 15.0773 76.0786C15.8586 75.8238 15.4905 74.5656 14.7092 74.8204Z" fill="#5C7644"/>
<path d="M87.0755 45.542C86.9553 45.3645 86.8502 45.1715 86.7149 45.0094C86.5722 44.8396 86.437 44.6621 86.2867 44.5077L85.3702 43.5659C85.22 43.4116 84.9646 43.3421 84.7843 43.5042C84.6265 43.6431 84.5589 43.9365 84.7242 44.1063C85.0322 44.4228 85.3402 44.7392 85.6482 45.0557C85.8135 45.2255 86.0013 45.3799 86.1741 45.542C86.3393 45.6887 86.5346 45.8122 86.7149 45.9357C86.8201 46.0129 86.9704 45.9974 87.0605 45.8971C87.1582 45.789 87.1507 45.6578 87.0755 45.542Z" fill="#5C7644"/>
<path d="M99.3733 58.1549C99.3057 58.0083 99.238 57.8616 99.1704 57.7149C99.1028 57.5683 99.0127 57.4371 98.93 57.2981C98.885 57.2209 98.8023 57.1592 98.7122 57.136C98.6295 57.1206 98.5244 57.1283 98.4567 57.1746C98.3816 57.2286 98.3215 57.3058 98.299 57.3985C98.284 57.4834 98.284 57.5837 98.3365 57.6609C98.4492 57.8076 98.5469 57.962 98.6746 58.1009C98.7798 58.2167 98.8925 58.3325 98.9976 58.4482C99.0803 58.5332 99.2155 58.5332 99.2981 58.4637C99.3357 58.4328 99.3733 58.3865 99.3808 58.3325C99.4108 58.263 99.4033 58.209 99.3733 58.1549Z" fill="#5C7644"/>
<path d="M106.172 67.0936C106.164 67.0473 106.142 67.0087 106.112 66.9701C106.029 66.8775 105.954 66.7771 105.871 66.6845C105.849 66.6536 105.811 66.6305 105.774 66.615C105.736 66.5919 105.706 66.5842 105.661 66.5842C105.624 66.5842 105.586 66.5842 105.548 66.6073C105.511 66.615 105.481 66.6382 105.451 66.6614C105.436 66.6845 105.413 66.7 105.398 66.7231C105.368 66.7694 105.353 66.8157 105.353 66.8698C105.353 66.8929 105.361 66.9238 105.361 66.947C105.368 67.001 105.398 67.0473 105.428 67.0859C105.526 67.1708 105.616 67.248 105.714 67.3329C105.736 67.3638 105.766 67.3792 105.796 67.3947C105.826 67.4101 105.856 67.4256 105.894 67.4256C105.932 67.4256 105.962 67.4255 105.992 67.4101C106.022 67.4024 106.052 67.387 106.082 67.3561C106.097 67.3406 106.112 67.3175 106.127 67.302C106.149 67.2634 106.164 67.2171 106.172 67.1631C106.172 67.1399 106.172 67.1168 106.172 67.0936Z" fill="#5C7644"/>
<path d="M108.065 75.3993C108.05 75.3838 108.027 75.3684 108.005 75.3684C107.982 75.3684 107.96 75.3684 107.937 75.3916C107.922 75.407 107.907 75.4302 107.907 75.4533V75.7235C107.907 75.7466 107.907 75.7698 107.93 75.793C107.945 75.8084 107.967 75.8238 107.99 75.8238C108.012 75.8238 108.035 75.8238 108.058 75.8007C108.073 75.7852 108.088 75.7621 108.088 75.7389V75.4688C108.088 75.4456 108.088 75.4224 108.065 75.3993Z" fill="#5C7644"/>
<path d="M119.897 80.3549C119.874 80.0385 119.566 79.9613 119.349 80.0693C119.018 79.776 118.485 79.6988 118.094 79.8918C118.071 79.7992 118.064 79.7065 118.041 79.6139C118.274 79.6139 118.507 79.5908 118.718 79.5058C118.913 79.4287 118.98 79.1585 118.778 79.035C118.334 78.7648 117.801 78.7725 117.29 78.7339C116.742 78.6953 116.193 78.6568 115.645 78.6259C115.052 78.595 114.458 78.5796 113.857 78.5564C114 77.5915 113.549 76.6035 112.565 76.3642C112.347 76.3102 112.122 76.3024 111.896 76.3179C111.521 73.5853 110.777 70.9454 109.755 68.4136C109.845 67.9736 109.823 67.5027 109.628 67.0164C109.485 66.6691 109.169 66.3603 109.132 65.9743C109.102 65.6347 109.357 65.2565 109.507 64.9632C109.898 64.2144 110.304 63.4657 110.236 62.5857C110.236 62.5548 110.221 62.5239 110.221 62.4931C110.724 61.011 110.364 59.3282 109.552 57.9697C109.56 57.9465 109.568 57.9311 109.575 57.9079C109.921 56.5571 109.214 55.5305 108.148 54.8126C107.637 54.473 107.088 54.1951 106.6 53.8246C106.36 53.647 106.202 53.4772 106.089 53.3074C106.187 52.9677 106.3 52.6358 106.337 52.3425C106.42 51.6941 106.39 51.0457 106.127 50.4436C105.774 49.6408 105.075 49.1159 104.361 48.6837C103.58 48.2051 102.453 47.8346 101.935 47.0163C101.311 46.0283 102.07 44.8087 101.604 43.7666C101.176 42.8095 100.14 42.6242 99.2155 42.7786C97.2999 43.0951 95.0311 44.3456 94.5654 46.3062C93.4686 42.9253 91.3351 39.9843 88.5104 37.8538C84.7467 35.0132 80.1417 33.809 75.5066 33.9866C67.0176 34.3185 59.6705 38.9113 53.3376 44.4227C50.2125 46.5146 47.2977 48.923 44.6308 51.6015C38.8538 57.4139 34.3239 64.4846 31.5143 72.2808C30.4025 74.1643 29.4183 76.1249 28.5469 78.1319C28.5845 77.5221 28.5319 76.9123 28.5018 76.3024C28.4718 75.7621 28.5244 75.106 28.2464 74.6197C27.6304 73.5467 25.9852 73.5776 24.971 73.8709C23.6639 74.2569 22.5746 75.1909 21.6431 76.1712C20.7791 77.0743 19.9152 78.2168 19.8326 79.5367C19.795 80.1157 19.9302 80.6637 20.2533 81.15C20.4035 81.3739 20.7416 81.6132 20.9895 81.8602C19.8476 82.0763 18.7132 82.3542 17.624 82.6784C17.346 82.7633 17.4437 83.1956 17.7291 83.1261C18.9086 82.8328 20.0955 82.6166 21.2975 82.4545C21.2599 82.9486 20.4937 83.4889 20.2082 83.8517C19.8401 84.3225 19.5697 84.8706 19.4269 85.4572C18.7959 88.1203 20.3509 90.3743 21.9736 92.2809C20.4185 92.4893 18.8635 92.7054 17.3084 92.9293C15.9412 93.0219 14.5815 93.1068 13.2142 93.1995C13.0865 92.8444 12.7785 92.6746 12.4404 92.6668C14.1457 90.1041 15.513 87.3098 16.452 84.3611C16.5948 83.9057 15.9412 83.5815 15.7909 84.0447C14.7618 87.2789 13.2443 90.328 11.2911 93.0759C11.231 93.1609 11.2159 93.2535 11.2234 93.3384C11.2009 93.3384 11.1784 93.3384 11.1633 93.3461C10.8704 93.3693 10.8027 93.7475 10.983 93.8864C10.7276 93.8401 10.4422 93.9868 10.4647 94.3342C10.6901 97.4835 11.0281 100.625 11.4939 103.751C11.5314 105.249 11.5765 106.754 11.6216 108.252C11.6742 109.865 11.5991 111.563 11.862 113.153C11.9596 113.755 12.493 114.018 12.9738 113.956C12.9663 115.809 12.9588 117.669 12.9588 119.521C12.9588 120.162 13.9354 120.224 13.9354 119.575C13.9354 118.225 13.9279 116.882 13.9204 115.531C14.0781 116.11 14.2209 116.689 14.3861 117.26C14.5214 117.738 15.22 117.507 15.0998 117.028C14.6716 115.299 14.2735 113.562 13.8978 111.818C13.8753 106.167 13.8302 100.509 13.7326 94.859C17.0831 94.5503 20.4411 94.2261 23.7916 93.9019C23.8517 93.9636 23.8968 94.0254 23.9644 94.0794C24.1372 94.2106 24.3175 94.0485 24.3175 93.8633V93.8556C24.4902 93.8401 24.663 93.8247 24.8358 93.8093C24.8659 94.0949 25.3016 94.1643 25.3166 93.8478C25.3166 93.817 25.3241 93.7938 25.3241 93.7629C28.021 93.5082 30.7105 93.2535 33.4074 93.0219C33.5201 93.1609 33.7755 93.1763 33.8957 92.9833C42.625 92.2346 51.3619 91.6865 60.1213 91.756C66.98 91.81 73.8388 92.2037 80.6375 93.1454C80.8478 93.1763 81.0582 93.2072 81.2685 93.2303C82.185 93.3616 83.094 93.5005 84.003 93.6549C87.9695 94.3187 91.8609 95.3222 95.8049 96.1095C98.4492 96.6344 101.139 96.9972 103.821 96.8969C103.422 97.2983 103.648 98.2323 104.399 98.2323C104.842 98.2323 105.045 97.9081 105.045 97.553C105.578 97.5916 106.179 97.2288 106.367 96.6421C106.42 96.6344 106.48 96.6267 106.533 96.619C110.056 96.0246 113.504 94.3727 115.78 91.4781C117.681 89.062 118.725 86.152 119.281 83.1415C119.619 88.7842 119.822 94.4345 119.874 100.085C119.905 103.412 119.882 106.739 119.792 110.066C119.747 111.717 119.694 113.362 119.627 115.013C119.559 116.526 119.311 118.171 119.499 119.676C119.544 120.054 120.032 120.023 120.115 119.684C120.49 118.132 120.4 116.349 120.475 114.751C120.551 113.099 120.603 111.455 120.648 109.803C120.731 106.592 120.768 103.381 120.746 100.17C120.723 93.5237 120.43 86.9316 119.897 80.3549ZM109.297 58.7107C109.695 59.4672 109.876 60.3008 109.845 61.1345C109.748 60.9107 109.65 60.6868 109.552 60.4629C109.395 60.1001 109.184 59.6833 109.184 59.2742C109.184 59.0812 109.237 58.896 109.297 58.7107ZM109.26 69.5637C110.101 71.7791 110.724 74.0794 111.085 76.4645C110.83 76.5417 110.582 76.6421 110.341 76.7501C110.356 76.5958 110.379 76.4491 110.386 76.2947C110.409 75.6772 110.364 75.052 110.319 74.4344C110.236 73.2689 110.003 72.1187 109.695 70.9995C109.575 70.544 109.207 70.2044 108.749 70.2121C108.936 69.996 109.109 69.7876 109.26 69.5637ZM100.215 43.9133C100.703 44.168 100.695 44.7238 100.62 45.2641C100.2 44.6389 99.6212 44.1757 98.9676 43.921C99.4108 43.8052 99.8841 43.7435 100.215 43.9133ZM96.9318 47.7883C96.0378 46.5378 97.405 44.8782 98.7272 45.789C99.2831 46.175 99.4859 46.9855 99.7339 47.5798C100.012 48.2437 100.335 48.8458 100.883 49.3166C101.807 50.104 103.152 50.1503 104.038 50.9299C104.647 51.4625 104.264 52.3116 104.331 53.0218C104.384 53.5621 104.602 54.0638 104.947 54.4807C104.962 54.4961 104.985 54.5116 105 54.527C105 55.0133 105.18 55.4301 105.766 55.7543C106.578 56.202 107.344 56.588 108.012 57.1283C108.012 57.4602 107.719 57.8616 107.599 58.1472C107.449 58.51 107.359 58.8805 107.359 59.2819C107.351 60.6096 108.884 61.8215 108.508 63.0951C108.366 63.5737 108.118 63.9906 107.877 64.4074C106.57 61.9913 105.045 59.691 103.377 57.5374C103.362 57.5143 103.34 57.4911 103.317 57.4679C103.28 56.2715 103.152 55.075 102.919 53.894C102.821 53.4 102.123 53.6316 102.198 54.1102C102.311 54.8512 102.386 55.6077 102.416 56.3564C100.455 53.9403 98.329 51.6709 96.1204 49.4942C96.9468 49.4864 97.4426 48.4984 96.9318 47.7883ZM93.4085 51.5243C93.5737 51.1229 93.5362 50.7369 93.3784 50.405C93.8292 50.0036 94.37 49.7103 94.956 49.5791C97.052 51.6169 99.0803 53.7242 100.966 55.9705C101.469 56.5648 101.95 57.1746 102.431 57.7844C102.423 58.1395 102.408 58.4869 102.378 58.8419C102.25 60.3935 101.792 61.8832 101.672 63.4193C101.642 63.8285 102.22 63.9134 102.393 63.5969C103.129 62.2152 103.265 60.5015 103.317 58.9423C104.842 60.9956 106.225 63.1569 107.396 65.4109C107.246 65.8663 107.224 66.3603 107.479 66.9392C107.847 67.796 108.268 68.0431 107.509 68.8381C107.299 69.062 107.058 69.2627 106.818 69.4479C106.765 69.4711 106.72 69.5097 106.683 69.556C106.382 69.7876 106.074 70.0114 105.781 70.2507C105.766 70.2353 105.751 70.2121 105.736 70.1889C105.451 69.9033 105.068 69.7258 104.677 69.6872C104.902 68.9616 105.098 68.2129 105.346 67.495C105.488 67.0782 104.895 66.8389 104.722 67.248C104.294 68.2746 103.745 69.2549 103.355 70.297C103.175 70.7679 103.783 71.3005 104.174 70.9145C104.444 70.6521 104.775 70.7293 105 70.9531C104.061 71.9026 103.347 73.045 102.912 74.3264C102.709 74.473 102.513 74.6274 102.311 74.7741C102.025 73.8787 101.725 72.9832 101.402 72.1033C100.801 69.6872 100.17 67.2789 99.4935 64.886C98.5244 61.451 97.0519 58.3865 94.7607 55.8547C94.9485 55.8161 95.1288 55.6848 95.1588 55.4842C95.2039 55.1831 95.249 54.8821 95.3391 54.5965C95.3917 54.4189 95.3992 54.4035 95.4744 54.2568C95.5044 54.2028 95.5345 54.1488 95.572 54.1024C95.5795 54.0947 95.6471 54.0098 95.6622 54.0021C95.6772 53.9867 95.7598 53.9249 95.7673 53.9172C95.8124 53.8863 95.85 53.8632 95.8951 53.84C95.9176 53.8246 96.0378 53.7937 95.9401 53.8168C95.9852 53.8014 96.0378 53.7937 96.0829 53.7782C96.0904 53.7782 96.1355 53.7782 96.173 53.7782C96.173 53.7782 96.2256 53.786 96.2632 53.7937C96.2707 53.8014 96.2932 53.8091 96.3158 53.8246C96.3158 53.8246 96.3834 53.8709 96.4059 53.894C96.4134 53.9095 96.4134 53.9017 96.4209 53.9095C96.4284 53.9172 96.4359 53.9326 96.4435 53.9403C96.466 53.9789 96.481 54.0098 96.496 54.0484C96.496 54.0561 96.5261 54.141 96.5336 54.1642C96.5486 54.2259 96.5561 54.28 96.5712 54.3417C96.5712 54.3572 96.5712 54.3494 96.5712 54.3572C96.5712 54.3803 96.5787 54.4035 96.5787 54.4266C96.5787 54.473 96.5862 54.5193 96.5862 54.5656C96.5862 54.6891 96.5787 54.8203 96.5636 54.9438C96.5636 54.9515 96.5637 54.9593 96.5561 54.9824C96.5486 55.021 96.5411 55.0673 96.5411 55.1059C96.5261 55.1908 96.5186 55.268 96.5036 55.3529C96.4735 55.5382 96.4435 55.7312 96.4359 55.9241C96.4284 56.1017 96.4435 56.3101 96.4885 56.4799C96.5411 56.6729 96.6763 56.8427 96.7965 56.9816C97.0444 57.2673 97.4651 57.028 97.4877 56.696C97.4952 56.5803 97.5327 56.4259 97.5327 56.2869C97.5327 56.148 97.5478 56.009 97.5553 55.8701C97.5778 55.5536 97.6154 55.3529 97.6529 55.0133C97.713 54.5116 97.668 53.9867 97.4501 53.5235C97.2172 53.0218 96.7364 52.6744 96.188 52.659C95.8274 52.6435 95.4969 52.7825 95.2114 52.9909C95.2039 52.9832 95.2039 52.9755 95.1964 52.9755C95.0236 52.7902 94.8584 52.6127 94.6856 52.4274C94.5579 52.2962 94.3175 52.2962 94.1973 52.4351C94.0771 52.5818 94.062 52.7979 94.2048 52.9369C94.3776 53.1067 94.5503 53.2842 94.7306 53.454C94.3625 53.9558 94.2498 54.5965 94.1672 55.2063C94.1672 55.214 94.1672 55.214 94.1672 55.2217C93.6939 54.7508 93.1981 54.2877 92.6572 53.8554C92.4995 53.7242 92.3267 53.6161 92.1614 53.4926C92.1614 53.4463 92.1689 53.4 92.1614 53.346C92.0938 52.6281 92.2741 51.9334 92.6197 51.3313C92.6347 51.5011 92.7098 51.6478 92.8751 51.7173C93.0554 51.7867 93.3258 51.7327 93.4085 51.5243ZM95.5119 60.957C94.9485 60.2082 94.3625 59.4749 93.739 58.7725C92.3567 57.2132 90.8242 55.8161 89.2016 54.5424C89.2466 54.4421 89.2842 54.3417 89.3293 54.2414C89.3743 54.2723 89.4194 54.2954 89.457 54.3263C92.0788 56.0631 94.0996 58.263 95.5119 60.957ZM85.19 38.4559C87.962 40.0229 90.3585 42.4544 91.7257 45.3954C89.9152 43.7743 88.0371 42.2305 86.0539 40.8643C82.6959 38.5563 78.9547 36.943 74.8755 36.7963C72.8697 36.7268 70.8865 36.9661 68.9333 37.3984C74.3196 35.6848 80.0741 35.569 85.19 38.4559ZM59.6255 42.0453C60.835 41.2116 62.112 40.432 63.4417 39.7218C66.041 38.6952 68.7379 37.9001 71.5025 37.5682C75.8596 37.0433 79.9989 38.0082 83.7701 40.2699C86.9178 42.1611 89.7049 44.6466 92.4018 47.1553C92.5145 47.5258 92.6046 47.8963 92.6873 48.2746C92.3718 48.4907 92.0788 48.7377 91.8083 49.0079C91.7708 48.977 91.7332 48.9461 91.6956 48.9152L91.0496 48.3749C90.9669 48.3054 90.8843 48.2591 90.7791 48.2668C90.689 48.2668 90.5838 48.3132 90.5162 48.3826C90.3885 48.5216 90.3585 48.7917 90.5162 48.9307L91.1773 49.471C91.2224 49.5096 91.2674 49.5405 91.3125 49.5791C91.29 49.61 91.2674 49.6408 91.2449 49.6717C90.8618 49.8261 90.5012 50.0808 90.2082 50.3587C89.8401 50.7061 89.5171 51.1152 89.2241 51.5397C86.8051 50.1426 84.1983 49.0619 81.5765 48.1356C78.7218 47.1321 75.7545 46.3602 72.742 45.9048C71.3973 45.5034 70.0376 45.1715 68.6553 44.9785C64.8916 44.4382 61.3082 45.1252 57.9352 46.6458C57.4544 46.7848 56.9811 46.9314 56.5078 47.0935C53.5705 48.1125 50.9712 49.6717 48.6049 51.5706C48.7175 51.4625 48.8152 51.339 48.9279 51.231C52.2483 47.9118 55.7716 44.7084 59.6255 42.0453ZM88.1874 53.5312C88.1648 53.593 88.1348 53.6547 88.1123 53.7165C87.5939 53.3383 87.0681 52.9755 86.5347 52.6127C87.0906 52.9137 87.6465 53.2147 88.1874 53.5312ZM66.98 45.3722C66.935 45.3876 66.8824 45.4031 66.8373 45.4185C66.8073 45.4262 66.7847 45.4417 66.7547 45.4494C65.2071 45.4494 63.6596 45.5497 62.1271 45.7659C63.021 45.5575 63.93 45.4185 64.8541 45.3645C65.5677 45.3259 66.2739 45.3336 66.98 45.3722ZM49.9195 47.5567C49.7768 47.6956 49.634 47.8346 49.4913 47.9658C45.4271 51.9179 41.4681 56.2483 38.959 61.4355C38.8463 61.6671 38.8914 61.8987 39.0116 62.0839C38.974 62.1303 38.944 62.1766 38.9064 62.2229C37.6894 63.5969 36.51 65.0017 35.3982 66.4684C34.5568 67.5799 33.753 68.7223 32.9867 69.8956C36.6677 61.1191 42.5724 53.3846 49.9195 47.5567ZM21.5078 78.9501C21.936 77.9389 22.8676 76.9972 23.7315 76.3719C24.1672 76.0554 24.6705 75.7544 25.1739 75.5769C25.5194 75.4456 26.4059 75.1832 26.7214 75.4765C27.0519 75.7775 26.9393 76.8042 26.9768 77.2673C27.0294 77.8617 27.097 78.402 27.2999 78.9578C27.4125 79.2666 27.7656 79.3515 28.0511 79.2588C27.7506 79.9921 27.4726 80.7409 27.2097 81.4897C27.1872 81.4974 27.1571 81.5128 27.1346 81.536C27.0895 81.4974 27.0294 81.4742 26.9618 81.4665C25.5194 81.3507 24.0545 81.4202 22.5971 81.6054C22.537 81.4819 22.4619 81.3507 22.3642 81.2195C22.1163 80.8953 21.7557 80.6714 21.5229 80.3395C21.2149 79.8995 21.3125 79.4132 21.5078 78.9501ZM22.3718 90.5364C22.4018 90.7139 22.4619 90.876 22.507 91.0536C21.32 89.5329 20.1857 87.7266 20.7491 85.7428C21.0947 84.5232 22.7549 83.5506 22.7624 82.2924C23.9944 82.1921 25.2114 82.1766 26.4434 82.1689C24.926 83.5815 23.4535 85.1408 22.7173 87.1246C22.3041 88.2052 22.1614 89.394 22.3718 90.5364ZM24.971 91.8563C24.5503 91.9104 24.1221 91.9721 23.7014 92.0261C23.4911 91.5013 23.3033 90.9686 23.2056 90.4129C23.0103 89.309 23.1455 88.2129 23.5587 87.1709C24.2574 85.4341 25.5194 83.9829 26.8191 82.6629C25.88 85.6348 25.2415 88.707 24.971 91.8563ZM26.8641 91.6325C26.9167 91.1616 26.9768 90.6908 27.0444 90.2276C27.0444 90.4823 27.0369 90.7448 27.0369 90.9995C27.0369 91.2002 27.2022 91.4009 27.405 91.3932C27.6003 91.3855 27.7882 91.2311 27.7882 91.015C27.7806 90.2739 27.7957 89.5252 27.683 88.7919C27.6604 88.6684 27.5327 88.5757 27.4125 88.568C27.3825 88.568 27.3524 88.5757 27.3224 88.5835C27.6905 86.7232 28.1938 84.8938 28.8249 83.1106C28.8098 83.2419 28.7873 83.3731 28.7798 83.5043C28.7723 83.6973 29.0953 83.7282 29.1178 83.5352C29.1554 83.1184 29.2455 82.7093 29.3883 82.3156C29.531 81.9219 29.7113 81.536 29.9141 81.1732C30.0118 81.0033 29.7564 80.8104 29.6362 80.9725C29.6287 80.9879 29.6212 81.0033 29.6061 81.0188C30.1921 79.5753 30.8457 78.1627 31.5518 76.781C31.5293 77.0512 31.8974 77.2673 32.0927 76.9972C32.3406 76.6575 32.5435 76.2793 32.6862 75.8779C32.7613 75.6695 32.8139 75.4611 32.859 75.2449C32.8815 75.1523 32.889 75.052 32.889 74.9516C32.8965 74.8204 32.8515 74.6969 32.8139 74.5657C32.8064 74.5425 32.7914 74.5348 32.7764 74.5193C33.9934 72.3657 35.323 70.2816 36.7203 68.2746C39.1919 64.7161 41.8287 61.2271 44.6534 57.962C47.463 54.7122 50.6257 51.7867 54.4945 49.9496C56.4853 49.0079 58.5737 48.3749 60.7148 47.9812C60.542 48.1279 60.3917 48.29 60.264 48.4753C60.1664 48.6219 60.1964 48.8535 60.3466 48.9538C60.4969 49.0542 60.7072 49.031 60.8124 48.8689C60.865 48.7917 60.9176 48.7223 60.9777 48.6528C61.0228 48.6065 61.0678 48.5602 61.1204 48.5138C61.188 48.4598 61.2556 48.4058 61.3232 48.3517C61.3533 48.3286 61.3834 48.2977 61.4209 48.2746C61.4359 48.2591 61.4585 48.2514 61.4735 48.236C61.5411 48.1896 61.6162 48.1511 61.6914 48.1202C61.8116 48.0661 61.8641 47.9272 61.8341 47.796C67.3707 47.0241 73.1852 47.8577 78.4664 49.4401C78.489 49.4479 78.504 49.4556 78.5265 49.4556C75.5742 49.857 72.6368 50.6906 69.8873 51.7327C68.2496 52.3502 66.642 53.0758 65.0869 53.8863C63.3816 54.2491 61.7064 54.7894 60.1063 55.4996C53.9687 58.2321 49.0331 63.1569 45.2093 68.6992C40.5366 75.4611 37.0659 83.1878 33.9783 90.8374C31.5969 91.0767 29.2305 91.3392 26.8641 91.6325ZM82.9287 80.0462C82.9212 79.9381 82.8161 79.8223 82.7034 79.8146C82.5682 79.8069 82.448 79.8223 82.3203 79.8455C82.3353 79.8223 82.3578 79.8069 82.3578 79.7683C82.3653 79.5985 82.3954 79.4287 82.4104 79.2588C84.589 79.0813 86.7676 78.9038 88.9461 78.7957C89.2316 80.0076 89.5021 81.2195 89.7575 82.4314C89.1189 82.331 88.4804 82.2075 87.8268 82.2461C87.023 82.2924 86.2567 82.5086 85.528 82.825C84.6566 83.0489 83.8077 83.3654 83.0039 83.7745C83.1241 82.5394 83.0339 81.2735 82.9287 80.0462ZM65.718 79.5213C60.8049 79.7683 55.8918 79.9536 50.9788 80.1234C55.8693 79.7529 60.7523 79.282 65.6428 78.8652C65.6654 79.089 65.6879 79.3129 65.718 79.5213ZM41.1226 79.282C41.6935 78.1782 42.2644 77.0821 42.8729 76.0091C45.2018 72.412 47.771 68.9848 50.6332 65.874C49.7242 70.0423 49.1608 74.28 48.9354 78.541C47.2151 78.6953 45.4947 78.8497 43.7744 79.0196C43.7819 78.4252 43.8646 77.8308 44.0223 77.2442C44.0824 77.028 44.0148 76.7965 43.797 76.7038C43.5866 76.6189 43.3612 76.727 43.2711 76.9354C42.9856 77.6224 42.888 78.3634 42.903 79.1045C42.302 79.1585 41.7085 79.2202 41.1226 79.282ZM49.1007 66.6382C50.4829 64.9632 51.9854 63.3962 53.6156 61.9913C52.0305 63.4579 50.528 65.0095 49.1007 66.6382ZM66.7847 76.7424C66.5969 76.7656 66.4016 76.7887 66.2138 76.8119C66.2213 76.3719 66.2664 75.9242 66.3715 75.5305C66.4316 75.2912 66.5218 75.0674 66.642 74.859C66.9725 74.4807 67.1754 74.4885 67.258 74.8744C67.4383 75.052 67.5435 75.4456 67.6637 75.6695C68.2872 76.8196 69.0234 77.854 70.0902 78.595C70.2254 78.6876 70.3756 78.5178 70.308 78.3789C68.8882 75.6695 68.6102 72.4275 69.6995 69.5483C69.9399 68.9153 70.4132 67.6185 71.0592 67.3406C72.0959 66.8929 72.3063 68.9771 72.434 69.5714C72.8021 71.2928 72.9824 73.045 73.0049 74.8049C73.0125 75.3298 73.7186 75.3144 73.7787 74.8127C73.929 73.6085 74.1393 71.8717 75.4314 71.3931C75.9423 71.2079 76.6334 71.2233 76.994 71.6942C77.4297 72.2654 77.0165 73.3769 77.0691 74.0485C77.0992 74.4113 77.6401 74.6892 77.8204 74.2723C78.1058 73.6316 78.8571 73.0682 79.5407 73.4927C80.0891 73.8323 80.1717 74.6351 79.6834 75.0828C79.5707 75.1909 79.5257 75.407 79.6158 75.546C79.9464 76.0632 80.3971 76.0863 80.8929 76.0554C81.0957 76.2947 81.4939 76.287 81.6892 76.0477C82.3428 76.2098 82.0498 77.0589 82.1024 77.6919C82.1249 77.9698 82.1324 78.2476 82.1249 78.5178C80.5699 78.6182 79.0148 78.7185 77.4673 78.8189C73.7937 79.0659 70.1127 79.2897 66.4316 79.475C66.3866 79.2511 66.349 79.0273 66.319 78.7957C66.4692 78.7803 66.6119 78.7725 66.7622 78.7571C68.0543 78.6645 68.0243 76.5803 66.7847 76.7424ZM82.4179 80.3549C82.4555 81.644 82.2977 82.9254 82.2151 84.2068C82.0799 84.2839 81.9371 84.3611 81.8094 84.446C81.6967 84.3148 81.5765 84.1913 81.4563 84.0601C81.2009 83.2959 80.9755 82.47 81.1709 81.6749C81.3211 81.0728 81.7944 80.4476 82.4179 80.3549ZM82.5005 78.5024C82.5531 78.1241 82.6057 77.7459 82.6508 77.3677C82.7034 76.8737 82.8536 76.1789 82.5005 75.7544C82.3353 75.5537 82.0723 75.4842 81.7869 75.4611C81.539 72.9832 81.3436 69.9497 83.1767 68.0971C83.3119 68.5294 83.4246 68.9616 83.4997 69.417C83.6124 70.0654 84.5289 69.996 84.4988 69.3244C84.4763 68.7686 84.4538 68.2129 84.4312 67.6571C84.4162 67.3792 84.2284 67.2634 84.0256 67.2711C83.988 67.1708 83.9579 67.0705 83.9204 66.9778C83.7927 66.6459 83.402 66.5147 83.109 66.7154C80.9004 68.236 80.4948 70.8837 80.5849 73.4387C80.4722 73.2303 80.3145 73.0373 80.1191 72.8829C79.4355 72.358 78.6167 72.4815 77.9706 72.9215C78.0307 72.2963 78.0382 71.6787 77.6325 71.1616C77.1593 70.5672 76.363 70.3896 75.6493 70.4977C74.6201 70.6598 74.0041 71.3314 73.6285 72.1805C73.4782 70.6675 73.2003 69.1469 72.7044 67.7575C72.156 66.2059 70.7963 66.2522 69.9399 67.5413C67.9642 70.5209 67.9717 74.72 69.6244 77.8385C68.5351 76.8814 67.8289 75.5691 67.1603 74.2569C67.1378 74.2183 67.0777 74.1951 67.0326 74.2183C66.1762 74.8049 65.7856 75.8084 65.6504 76.8814C60.4218 77.5221 55.1631 77.9929 49.912 78.4561C50.1975 74.0408 50.8285 69.6641 51.8352 65.3568C51.8953 65.1098 51.7901 64.9168 51.6323 64.8011C54.0062 62.3387 56.5755 60.0847 59.355 58.0932C64.2831 55.5691 69.9174 54.6659 75.2436 56.4413C77.8128 57.2981 80.2243 58.7262 82.1024 60.7408C82.9964 61.7057 83.7175 62.7787 84.3185 63.9211C85.0472 65.6116 85.7158 67.3175 86.3318 69.0543C86.3619 69.1546 86.3995 69.2627 86.4295 69.363C87.2784 72.2113 88.0447 75.0828 88.7358 77.962C86.6774 78.1936 84.589 78.3557 82.5005 78.5024ZM38.1026 90.4052C37.3664 90.4746 36.6377 90.5518 35.909 90.629C36.7429 88.6143 37.6068 86.5997 38.5233 84.6081C38.6285 84.7008 38.7712 84.7548 38.9365 84.6931C40.5066 84.1064 42.2269 84.9323 43.2861 86.1597C43.8796 86.8467 44.3153 87.688 44.6534 88.5294C44.8261 88.9617 44.9764 89.4094 45.1191 89.8648C42.7828 90.0115 40.4389 90.1967 38.1026 90.4052ZM62.8257 89.4325C63.8474 88.6606 62.976 87.2249 62.3449 86.4916C61.5186 85.5344 60.5119 85.079 59.4226 84.5773C59.1822 83.5429 57.7924 82.9022 56.906 82.6012C55.5913 82.1535 54.5772 82.6012 53.6907 83.6201C53.1874 84.199 52.7066 84.5695 51.9629 84.7625C51.2717 84.9401 50.5506 84.9787 49.882 85.2257C48.8152 85.6193 47.8085 86.5533 47.9663 87.8193C48.0414 88.4059 48.9204 88.3287 48.8528 87.7421C48.71 86.5302 50.1223 86.0902 51.0313 85.9281C51.8878 85.7737 52.7817 85.6734 53.5179 85.1639C54.2466 84.6622 54.7124 83.5892 55.6439 83.458C56.1623 83.3885 56.6806 83.5738 57.1464 83.7976C57.5596 83.9906 58.5662 84.3997 58.5737 84.9478C58.5737 85.1408 58.7615 85.3492 58.9494 85.3646C60.2565 85.4881 62.7506 87.3021 62.112 88.8459C62.0219 89.0698 62.1045 89.3013 62.2623 89.4325C60.9401 89.4094 59.618 89.394 58.2958 89.4017C58.2808 89.3785 58.2732 89.3554 58.2507 89.3399C58.1906 89.2782 58.138 89.2241 58.0779 89.1624C57.9953 89.0775 57.9051 89.008 57.8 88.9385C57.6723 88.8536 57.5445 88.761 57.4168 88.6761C57.1539 88.4908 56.891 88.3133 56.6205 88.128C56.5154 88.0586 56.3351 88.0508 56.2224 88.0894C56.1022 88.128 55.967 88.2284 55.9144 88.3519C55.8543 88.4754 55.8317 88.6221 55.8768 88.761C55.9219 88.8999 56.012 88.9926 56.1322 89.0775C56.305 89.1933 56.4703 89.309 56.6431 89.4248C53.27 89.4634 49.897 89.5869 46.5314 89.7876C46.4864 89.6487 46.4413 89.5097 46.3887 89.3708C46.2084 88.815 46.0056 88.267 45.7727 87.7344C45.3445 86.7463 44.7811 85.7969 44.0148 85.0481C42.6776 83.7359 40.762 83.0489 38.9891 83.6587C39.4473 82.6784 39.9281 81.7058 40.4089 80.7409C40.5216 80.7409 40.6267 80.7332 40.7394 80.7255C40.7244 80.7563 40.7169 80.7949 40.7169 80.8335C40.7094 80.8721 40.7169 80.903 40.7319 80.9416C40.7469 80.9802 40.762 81.0033 40.7845 81.0342C40.807 81.0651 40.8371 81.0883 40.8671 81.1037C40.9122 81.1269 40.9573 81.1346 41.0099 81.1269C41.0925 81.1191 41.1827 81.1114 41.2653 81.1037C41.2953 81.1037 41.3254 81.0883 41.3554 81.0728C41.3855 81.0574 41.408 81.0419 41.4306 81.0111C41.4456 80.9956 41.4531 80.9725 41.4681 80.957C41.4832 80.9262 41.4907 80.8953 41.4907 80.8567C41.4907 80.8335 41.4907 80.8104 41.4832 80.7949C41.4756 80.7641 41.4681 80.7409 41.4456 80.71C41.5508 80.7023 41.6559 80.7023 41.7611 80.7023C41.7536 80.8335 41.8362 80.9725 42.009 80.9725C42.4372 80.9725 42.8654 80.9648 43.2936 80.9648C43.3988 81.0265 43.519 81.0497 43.6242 81.0188C43.6617 81.0111 43.6993 80.9879 43.7369 80.9648C45.4347 80.957 47.1249 80.9493 48.8227 80.9184C48.8227 80.9802 48.8152 81.0419 48.8152 81.1037C48.8002 81.7598 49.7768 81.7367 49.7993 81.0883C49.7993 81.0265 49.8068 80.9648 49.8068 80.8953C55.1181 80.7949 60.4293 80.602 65.7405 80.3395C65.7856 80.3395 65.8231 80.3318 65.8682 80.3318C66.1988 81.9065 66.9124 83.3963 67.8665 84.6776C67.6186 84.531 67.3481 84.4229 67.0401 84.3997C66.4392 84.3611 65.8081 84.6004 65.5978 85.2257C65.2747 86.1905 66.2589 87.3484 66.7396 88.074C67.1002 88.6143 67.4759 89.1392 67.874 89.6487C66.1912 89.5252 64.5085 89.4711 62.8257 89.4325ZM72.1636 89.8957C72.0884 89.6718 71.9983 89.4557 71.9081 89.2319L71.3823 87.8656C71.2996 87.6572 71.0442 87.5723 70.8564 87.6572C70.6461 87.7498 70.5785 87.9891 70.6536 88.1975C70.8189 88.6452 70.9841 89.1006 71.1494 89.5483C71.1794 89.641 71.217 89.7336 71.2546 89.8262C70.5409 89.7722 69.8272 89.7259 69.1136 89.6873C68.8131 89.3322 68.5201 88.9694 68.2421 88.5989C67.7388 87.9196 67.0477 87.1091 66.7396 86.3063C66.071 84.6081 67.581 85.4341 68.167 85.8509C68.6628 86.206 69.106 86.4453 69.7145 86.4839C70.0526 86.507 70.293 86.0053 70.0225 85.766C68.3773 84.3225 67.2129 82.3928 66.6345 80.27C70.2554 80.0925 73.8839 79.8841 77.4973 79.6525C79.0298 79.5522 80.5699 79.4287 82.1024 79.2974C82.0874 79.4518 82.0798 79.6139 82.0648 79.776C82.0573 79.8455 82.0949 79.8841 82.14 79.9072C81.4864 80.1079 80.9831 80.6791 80.7652 81.3584C80.5473 82.0454 80.6375 82.7478 80.8253 83.4271C80.1191 82.771 79.3454 82.1921 78.5115 81.7289C77.7903 81.3275 77.0316 81.0033 76.2503 80.7563C75.4314 80.5016 74.6126 80.4167 73.7787 80.27C73.5684 80.2314 73.4181 80.4476 73.3956 80.6328C73.1928 82.3387 74.4323 83.7822 75.762 84.6004C77.0691 85.4032 78.5791 85.7506 80.0966 85.7892C78.7519 87.0242 77.6701 88.568 76.9564 90.3588C75.3563 90.1736 73.7637 90.0192 72.1636 89.8957ZM81.0732 84.8166C78.4213 84.8937 74.9056 83.9675 74.2144 81.0497C74.8229 81.1191 75.4465 81.289 76.0174 81.4742C76.7761 81.7212 77.5124 82.0454 78.2035 82.4468C79.2928 83.0798 80.2393 83.8903 81.0732 84.8166ZM84.4087 91.3932C82.786 91.1153 81.1633 90.8914 79.5407 90.6753C80.322 88.1898 82.9663 86.5302 85.0322 85.272C86.2417 84.5309 87.4512 84.0755 88.871 84.2762C89.2842 84.338 89.7274 84.4152 90.1782 84.4692C90.4486 85.8046 90.719 87.14 90.9594 88.4831C91.1322 89.9189 91.275 91.3623 91.3876 92.8058C89.0663 92.2963 86.7525 91.7869 84.4087 91.3932ZM95.6847 93.7475C95.2189 93.6472 94.7532 93.5468 94.2874 93.4465C94.2874 93.3461 94.2799 93.2535 94.2799 93.1531C94.2799 93.0528 94.2423 92.9602 94.1747 92.8907C94.1522 92.8675 94.1221 92.8521 94.0996 92.8367C94.017 92.2268 93.9268 91.617 93.8367 91.0072C93.9268 90.9609 94.0095 90.876 94.0095 90.7679C94.017 90.683 94.017 90.5981 94.0245 90.5055C94.032 90.4283 94.032 90.3511 94.0095 90.2739C94.0019 90.2276 93.9944 90.1813 93.9794 90.1427C93.9418 89.9574 93.9043 89.7799 93.8667 89.5947C93.8292 89.4171 93.7014 89.2859 93.5437 89.2319C93.3409 88.0277 93.1305 86.8312 92.8976 85.6271C92.9652 85.7814 93.0404 85.9358 93.108 86.0902C93.1756 86.2446 93.3859 86.2832 93.5211 86.2214C93.6789 86.152 93.739 85.9821 93.7015 85.82C93.6413 85.5421 93.5963 85.2643 93.5136 84.9941C93.431 84.7239 93.3484 84.4538 93.2657 84.1836C93.1981 83.9675 92.9577 83.8208 92.7474 83.898C92.6873 83.9211 92.6272 83.9597 92.5821 84.0138C92.5821 83.9983 92.5746 83.9829 92.5671 83.9597C92.6572 83.8748 92.7474 83.7976 92.83 83.6973C93.2056 83.211 92.7849 82.3851 92.2065 82.3233C92.0412 81.5668 91.8835 80.8104 91.7107 80.0539C91.7482 80.1157 91.7783 80.1851 91.8234 80.2469C91.8985 80.3472 92.0562 80.3704 92.1614 80.3241C92.2741 80.2778 92.3643 80.162 92.3643 80.0385C92.3643 79.8686 92.3342 79.7065 92.3042 79.5444C92.2816 79.4055 92.2365 79.282 92.1915 79.1431C92.1013 78.8729 92.0112 78.595 91.921 78.3248C91.8835 78.2168 91.8384 78.1241 91.7332 78.0547C91.6431 78.0006 91.5154 77.9698 91.4102 78.0006C91.3501 78.0161 91.29 78.0547 91.2449 78.101C90.9144 76.7347 90.5613 75.3762 90.1932 74.0176C90.2383 73.9713 90.2683 73.9095 90.2608 73.8401C90.2007 73.3383 89.9979 72.8752 89.8251 72.4043C89.8025 72.3349 89.7575 72.2808 89.7049 72.2345C89.5171 71.5629 89.3218 70.8837 89.1264 70.2121C88.1048 66.7385 86.9554 63.2341 84.7242 60.3626C82.8987 58.016 80.4572 56.2638 77.7903 55.0673C74.4173 53.5621 70.7888 53.1221 67.2204 53.5312C67.581 53.3691 67.9266 53.1916 68.2947 53.0295C72.1561 51.3699 76.0925 50.4668 80.1792 49.9805C80.938 50.2352 81.6967 50.5054 82.4404 50.791C84.3411 51.8253 86.1816 52.9755 87.932 54.2568C87.9019 54.3726 87.8493 54.4884 87.8193 54.6042C87.6766 55.1677 88.4052 55.6231 88.8034 55.1677C88.8485 55.1136 88.8785 55.0596 88.9161 55.0056C89.765 55.6771 90.5913 56.3873 91.3801 57.136C93.3634 59.0195 95.0837 61.1499 96.5636 63.4579C96.6237 63.62 96.6839 63.7744 96.7364 63.9365C97.2172 65.4186 97.6379 66.9161 98.0361 68.429C97.9084 68.5911 97.8858 68.8072 97.9985 69.0002C98.1037 69.1778 98.2089 69.3553 98.3215 69.5251C99.2005 73.0064 99.9442 76.5417 100.718 80.023C100.733 80.0771 100.741 80.1311 100.756 80.1851C100.733 80.3009 100.748 80.4244 100.816 80.5325C100.823 80.5402 100.831 80.5556 100.831 80.5634C101.71 84.5155 102.521 88.4831 103.302 92.4584C103.092 92.6051 103.032 92.8521 103.129 93.0914C103.152 93.1377 103.167 93.184 103.182 93.2303C103.182 93.238 103.182 93.238 103.19 93.238C103.19 93.2458 103.19 93.238 103.19 93.2535C103.212 93.3384 103.242 93.4233 103.265 93.5082C103.31 93.678 103.34 93.8556 103.362 94.0331C103.37 94.0717 103.377 94.1026 103.37 94.1412C103.37 94.1952 103.377 94.2492 103.377 94.3033C103.385 94.3882 103.4 94.4808 103.407 94.5657C103.407 94.5812 103.407 94.5734 103.407 94.5812C103.407 94.5889 103.407 94.5889 103.407 94.5966C103.407 94.6043 103.407 94.6043 103.407 94.612C100.846 94.6969 98.2239 94.2801 95.6847 93.7475ZM104.316 82.6166C103.843 80.3395 103.295 78.0701 102.634 75.8393C102.709 75.7775 102.784 75.7235 102.859 75.6618C103.25 76.3256 104.301 76.5263 104.587 75.5923C105.068 74.0099 105.886 72.8906 106.976 71.8485C107.021 71.9721 107.201 72.0492 107.321 72.0184C107.457 71.9798 107.562 71.8717 107.569 71.725C107.577 71.5861 107.592 71.4394 107.584 71.3005C107.667 71.231 107.742 71.1616 107.825 71.0921C107.817 71.1847 107.817 71.2696 107.832 71.3622C108.275 73.5313 108.29 75.6154 108.388 77.8077C108.388 77.8308 108.396 77.854 108.403 77.8771C108.133 78.0778 107.862 78.2862 107.607 78.5101C106.63 78.5333 105.654 78.5564 104.684 78.6104C104.189 78.6336 104.174 79.4287 104.677 79.4055C105.391 79.3669 106.104 79.3515 106.818 79.336C106.427 80.1311 107.592 81.2504 108.313 80.5325C108.771 80.0693 109.275 79.6448 109.823 79.2897C110.334 79.2897 110.837 79.282 111.348 79.2897C111.22 79.5136 111.108 79.7451 111.032 79.9922C110.777 80.8258 111.047 81.5437 111.498 82.2384C111.663 82.4854 111.821 82.6475 111.739 82.9486C111.648 83.2728 111.333 83.5815 111.108 83.8208C110.477 84.5155 109.808 85.1871 109.154 85.8663C109.117 85.9127 109.072 85.9513 109.027 85.9976C108.854 85.7737 108.433 85.8895 108.516 86.2137C108.538 86.2986 108.553 86.3835 108.576 86.4607C107.539 87.5259 106.502 88.6066 105.616 89.7953C105.24 87.4024 104.812 84.9941 104.316 82.6166ZM106.442 94.3187C106.375 94.3341 106.3 94.3419 106.232 94.3496C106.134 93.5237 106.022 92.69 105.909 91.8641C106.067 91.8563 106.24 91.81 106.397 91.6865C106.72 91.4318 107.036 91.1539 107.344 90.876C107.366 91.1385 107.381 91.4009 107.404 91.6634C107.442 92.2114 107.487 92.7595 107.524 93.3075C107.539 93.5622 107.562 93.817 107.577 94.064C107.209 94.1643 106.833 94.2492 106.442 94.3187ZM109.462 93.4156C109.019 93.6008 108.561 93.7629 108.095 93.9019C108.073 93.6857 108.05 93.4619 108.027 93.2458C107.967 92.6977 107.915 92.1497 107.855 91.6016C107.817 91.2388 107.78 90.876 107.742 90.5132C108.215 90.0655 108.666 89.5869 109.109 89.1083C109.207 89.7027 109.282 90.3048 109.342 90.8992C109.417 91.6556 109.455 92.4198 109.47 93.184C109.47 93.238 109.47 93.323 109.462 93.4156ZM117.117 83.2573C117.117 83.2496 117.117 83.2496 117.117 83.2419C117.08 82.6089 116.156 82.5549 116.126 83.1724C115.961 83.1724 115.788 83.2727 115.765 83.4889C115.675 84.338 115.585 85.1948 115.487 86.0439C115.442 86.453 115.39 86.8621 115.344 87.2712C115.337 87.3407 115.322 87.4179 115.314 87.4874C115.202 87.7575 115.082 88.0122 114.946 88.2747C114.661 88.815 114.233 89.3322 114.045 89.9111C114.022 89.9729 114.022 90.0424 114.03 90.1041C114.007 90.1273 113.985 90.1581 113.962 90.1813C113.962 90.1273 113.962 90.0732 113.962 90.0269C113.962 89.4634 113.955 88.9077 113.925 88.3442C113.872 87.2403 113.774 86.1442 113.617 85.0481C113.549 84.5927 112.88 84.6699 112.926 85.1253C113.038 86.206 113.106 87.2867 113.083 88.375C113.076 88.9154 113.053 89.4634 113.008 90.0038C112.993 90.2045 112.971 90.4129 112.948 90.6213C112.865 90.8606 112.858 91.0613 112.895 91.2774C112.069 92.0107 111.145 92.6128 110.153 93.0914C110.153 93.0373 110.146 92.9756 110.146 92.9216C110.116 92.2037 110.063 91.4858 109.981 90.7757C109.898 90.0192 109.778 89.2627 109.635 88.514C110.116 87.9737 110.589 87.4256 111.07 86.8853C111.085 87.4951 111.077 88.0972 111.062 88.707C111.047 89.2782 111.025 89.8494 110.987 90.4129C110.972 90.683 110.942 90.9609 110.927 91.2311C110.912 91.563 110.98 91.8177 111.077 92.1342C111.175 92.4353 111.528 92.4198 111.641 92.1497C111.776 91.8409 111.866 91.6016 111.866 91.2542C111.866 90.9841 111.859 90.7062 111.844 90.4283C111.821 89.8108 111.784 89.1933 111.731 88.5757C111.671 87.8424 111.581 87.1168 111.491 86.3912C111.543 86.3372 111.596 86.2755 111.648 86.2137C112.355 85.4341 113.219 84.6467 113.564 83.6124C113.737 83.1029 113.767 82.5549 113.609 82.0377C113.474 81.5977 113.121 81.2581 112.978 80.8335C112.858 80.4707 113.083 80.2392 113.271 79.9304C113.391 79.7374 113.504 79.5444 113.602 79.3437C114.188 79.3669 114.774 79.3746 115.36 79.4132C115.908 79.4441 116.456 79.4827 117.005 79.5213C117.087 79.529 117.178 79.5367 117.268 79.5444C117.268 79.5753 117.26 79.5985 117.268 79.6294C117.388 80.3086 117.425 80.9956 117.44 81.6826C117.343 82.223 117.238 82.7401 117.117 83.2573Z" fill="#5C7644"/>
<path d="M103.76 64.9786C103.588 64.8705 103.392 64.9168 103.272 65.0712C102.927 65.5189 102.581 65.9666 102.235 66.4143C102.123 66.561 102.175 66.808 102.326 66.9006C102.491 67.0087 102.679 66.9624 102.799 66.808C103.152 66.3603 103.498 65.9203 103.851 65.4726C103.971 65.3337 103.918 65.0712 103.76 64.9786Z" fill="#5C7644"/>
<path d="M75.0558 88.7764C74.9356 88.1666 74.5901 87.634 74.2746 87.1091C73.944 86.5533 73.5984 85.9975 73.2529 85.4495C72.6143 84.4383 71.9833 83.4348 71.3447 82.4236C71.1344 82.084 70.6085 82.0531 70.3155 82.2538C70.015 82.4545 69.8047 82.9254 70 83.2804C70.586 84.3225 71.1719 85.3569 71.7579 86.3989C72.0434 86.9084 72.3364 87.4178 72.6369 87.9196C72.9824 88.4985 73.3055 89.1315 73.8313 89.556C74.3572 89.9883 75.1836 89.4402 75.0558 88.7764Z" fill="#5C7644"/>
<path d="M77.272 88.1512L77.2043 88.0045C77.1442 87.9119 77.0691 87.8424 76.9715 87.7884C76.8062 87.6803 76.6409 87.5723 76.4757 87.4642C76.393 87.4179 76.3104 87.3947 76.2202 87.3947C76.1301 87.3793 76.0475 87.387 75.9573 87.4256C75.8747 87.4488 75.7995 87.4951 75.7395 87.5568C75.6718 87.6109 75.6117 87.6803 75.5742 87.7575C75.5516 87.8193 75.5366 87.8733 75.5141 87.9351C75.4915 88.0586 75.4991 88.1744 75.5366 88.2901C75.5592 88.3442 75.5892 88.3982 75.6117 88.4445C75.6794 88.5449 75.762 88.6221 75.8672 88.6761C76.0475 88.7456 76.2353 88.8228 76.4156 88.8922C76.4907 88.9385 76.5658 88.954 76.6484 88.954C76.7311 88.9694 76.8062 88.9617 76.8888 88.9308C76.964 88.9077 77.0316 88.8691 77.0917 88.8073C77.1593 88.761 77.2043 88.6993 77.2419 88.6221C77.2569 88.568 77.2795 88.514 77.2945 88.46C77.3095 88.3673 77.302 88.2593 77.272 88.1512Z" fill="#5C7644"/>
<path d="M63.4117 26.2675C62.7205 25.1251 62.0595 24.1448 61.4059 22.956C60.8049 21.8676 60.2565 20.648 59.8809 19.521C59.7081 19.0039 59.2724 18.6256 58.709 18.7569C58.2282 18.8649 57.8075 19.4361 57.9652 19.961C58.7766 22.6009 59.9861 25.3644 61.9843 27.2864C62.2999 27.5952 62.7506 27.6955 63.1262 27.4176C63.4568 27.1706 63.6446 26.6534 63.4117 26.2675Z" fill="#5C7644"/>
<path d="M28.7422 48.483C27.9234 47.0627 26.3157 46.0283 25.1138 44.9554C23.8066 43.7821 22.522 42.5933 21.2524 41.3737C18.7358 38.9731 16.3018 36.4799 13.9354 33.9171C13.2668 33.1915 12.1249 34.195 12.786 34.936C15.1449 37.5605 17.5714 40.1233 20.0655 42.6088C21.2975 43.8361 22.5446 45.0403 23.8066 46.2367C24.4151 46.808 25.0236 47.3714 25.6321 47.9349C26.3007 48.5525 26.9543 49.2163 27.8032 49.5482C28.3892 49.7721 29.0803 49.0696 28.7422 48.483Z" fill="#5C7644"/>
<path d="M15.2426 58.5795C12.3052 57.576 9.37541 56.5648 6.41555 55.654C5.58168 55.3993 5.16099 56.8504 5.97984 57.1515C8.8195 58.2244 11.6817 59.197 14.5514 60.1774C14.9871 60.324 15.4754 60.1928 15.6783 59.7374C15.8435 59.336 15.6783 58.7339 15.2426 58.5795Z" fill="#5C7644"/>
<path d="M100.5 25.4956C100.14 25.156 99.6137 25.2177 99.2831 25.5496C97.0219 27.8036 94.941 30.2197 92.9878 32.7515C92.6798 33.1452 92.6647 33.7164 93.0479 34.0715C93.3934 34.3957 94.0245 34.4111 94.3325 34.0097C96.2857 31.4856 98.3816 29.0695 100.56 26.7384C100.876 26.4064 100.838 25.8121 100.5 25.4956Z" fill="#5C7644"/>
</g>
<defs>
<clipPath id="clip0_315_901">
<rect width="140" height="140" fill="white"/>
</clipPath>
</defs>
</svg>
