<svg width="140" height="140" viewBox="0 0 140 140" fill="none" xmlns="http://www.w3.org/2000/svg">
<path d="M138.77 97.6373C138.104 97.0894 137.211 96.7865 136.371 97.0636C135.866 92.4553 135.362 87.8535 134.864 83.2451C134.185 76.9546 133.778 70.5416 132.549 64.3285C131.967 61.3766 131.094 58.502 129.827 55.7693C128.689 53.3136 127.279 50.6518 125.255 48.7956C124.22 47.8481 123.03 47.2874 121.769 46.9329C121.808 46.6429 121.627 46.3206 121.226 46.2884C119.428 46.1208 117.624 46.0886 115.82 46.0886C113.175 45.8308 110.524 45.6181 107.866 45.4763C106.78 45.4183 105.694 45.3796 104.607 45.3474C104.523 45.0444 104.426 44.7415 104.316 44.445C103.54 42.3632 102.13 40.5328 100.417 39.1278C96.6921 36.0856 91.6676 35.4411 87.0247 36.1243C87.0182 35.9438 87.0053 35.7634 86.9988 35.5893C86.9859 35.2606 86.6819 35.1188 86.4427 35.1833C86.3845 34.7192 86.2875 34.2616 86.2293 33.8169C86.1193 33.0306 86.0482 32.1669 85.227 31.7931C84.8907 31.6384 84.5221 31.5998 84.16 31.5482C83.7267 31.4837 83.287 31.4257 82.8537 31.3613L80.3512 31.0068C79.905 30.9424 79.6463 31.3484 79.7046 31.69C75.9475 31.574 72.184 31.632 68.4204 31.6384C63.9003 31.6384 59.3802 31.6384 54.8601 31.6449C45.7164 31.6578 36.5663 31.7029 27.4226 31.7287C22.2623 31.7416 17.0891 31.7416 11.9353 32.0123C11.4244 32.038 11.4697 32.7728 11.9676 32.7986C21.0984 33.2755 30.2808 33.0886 39.4245 33.1208C48.5747 33.1466 57.7183 33.1724 66.8685 33.1724C72.0288 33.1724 77.2085 33.3142 82.3623 33.0177C82.6662 32.9984 82.8473 32.8244 82.9055 32.6117C83.4293 32.7019 83.9595 32.7857 84.4768 32.9081C84.5932 32.9339 84.6579 32.9597 84.7096 33.0048C84.2246 42.5308 84.4251 52.1148 84.4186 61.6537C84.4186 71.4246 84.4186 81.1956 84.4122 90.9665C84.4122 94.4533 84.3604 97.9466 84.4251 101.433C84.354 101.375 84.2699 101.33 84.16 101.317C79.3101 100.866 74.3826 101.098 69.5133 101.131C64.6893 101.163 59.8394 101.105 55.0218 101.395C54.4915 101.427 54.5368 102.291 55.0606 102.323C59.9234 102.619 64.8251 102.561 69.6944 102.587C74.5184 102.613 79.3877 102.839 84.1988 102.394C84.3023 102.387 84.3798 102.342 84.4445 102.291C84.451 102.452 84.451 102.607 84.4574 102.768C84.438 102.819 84.4122 102.864 84.3928 102.916C83.7203 103.303 83.0671 103.722 82.4334 104.179C81.8385 104.179 81.2501 104.179 80.6551 104.179C74.0528 104.186 67.444 104.16 60.8417 104.218C57.2851 104.244 53.6832 104.153 50.1396 104.495C50.1396 104.372 50.1331 104.25 50.1331 104.128C50.5405 102.542 50.6957 100.899 50.5858 99.2743C50.2883 94.9883 48.0638 90.9858 44.6689 88.3497C41.0864 85.5654 36.5534 84.5342 32.1044 85.4107C28.7612 86.0681 25.6896 87.8083 23.4328 90.3155C22.4111 91.3339 21.5898 92.5456 21.0402 93.9248C19.9473 96.2064 19.3977 98.7329 19.4041 101.259C19.3653 101.266 19.333 101.279 19.2942 101.292C18.6475 101.459 18.0009 101.608 17.3478 101.73C16.8822 101.82 16.4101 101.891 15.9381 101.962C14.994 101.124 14.1921 100.157 13.5261 99.0681C13.4226 98.9005 13.2803 98.8425 13.1381 98.849C13.2027 95.7939 13.0993 92.7131 13.0928 89.6774C13.0928 85.1851 13.0863 80.6864 13.0863 76.1941C13.0799 67.3126 13.0605 58.4311 13.0281 49.5496C13.0087 44.5288 12.9505 39.508 12.7695 34.4872C12.7501 33.9587 11.8383 33.9136 11.8189 34.4614C11.6637 38.741 11.5926 43.0207 11.5602 47.3003C11.5667 42.2923 11.5861 37.3167 11.418 32.341C11.3986 31.7416 10.3768 31.7158 10.3575 32.3216C10.0471 41.4867 10.1893 50.6711 10.1958 59.8426C10.2023 69.0141 10.2023 78.1921 10.2087 87.3636C10.2087 92.0106 10.1764 96.6511 10.3251 101.292C9.98239 101.485 9.86599 102.072 10.1958 102.368C10.2475 102.42 10.3057 102.458 10.3639 102.503C10.3704 102.658 10.3704 102.806 10.3768 102.961C10.3962 103.464 11.1464 103.541 11.3404 103.161C11.2757 103.535 11.515 103.992 12.0129 103.966C13.0411 103.921 14.0692 103.876 15.091 103.831C15.4531 103.973 15.8217 104.102 16.1967 104.192C16.8304 104.34 17.4965 104.411 18.1561 104.392C18.6669 104.379 19.1907 104.347 19.6369 104.121C19.6563 104.276 19.6822 104.424 19.7145 104.579C21.3958 112.919 30.0351 118.107 38.267 116.799C39.2564 116.644 40.2134 116.354 41.1381 115.98C41.5973 115.793 41.7654 115.362 41.7201 114.968C45.0698 113.937 48.0444 111.862 49.3959 108.53C49.7257 107.711 49.9326 106.854 50.0426 105.977C55.9788 106.203 61.928 106.113 67.8643 106.132C73.4385 106.151 79.0126 106.145 84.5868 106.145C84.6062 106.506 84.6256 106.867 84.6579 107.221C84.7032 107.795 85.615 107.756 85.6602 107.189C85.6861 106.841 85.7055 106.493 85.7249 106.138C85.8284 106.138 85.9383 106.138 86.0417 106.138C89.4237 106.138 92.8187 106.171 96.1942 105.913C96.2136 105.913 96.233 105.9 96.2524 105.9C97.6621 105.881 99.0653 105.829 100.469 105.72C100.656 105.707 100.792 105.623 100.889 105.507C101.891 108.485 103.799 111.159 106.405 113.009C109.703 115.342 114.048 116.303 118.122 115.722C120.314 116.013 122.772 114.891 124.485 113.731C126.089 112.648 127.408 111.25 128.566 109.722C129.238 109.142 129.911 108.381 130.105 107.531C130.228 107.337 130.228 107.144 130.156 106.976C130.15 106.738 130.105 106.499 130.008 106.254C129.93 106.055 129.781 105.926 129.613 105.855C129.613 105.836 129.62 105.816 129.62 105.797C131.611 105.526 133.532 105.011 135.362 104.198C136.229 104.25 137.089 104.115 137.942 103.973C138.369 103.902 138.835 103.889 139.21 103.651C139.604 103.399 139.805 102.961 139.869 102.51C140.102 100.866 140.173 98.791 138.77 97.6373ZM11.4438 101.479C11.4632 100.873 11.4891 100.267 11.5085 99.6675C11.5214 100.286 11.5408 100.905 11.5796 101.524C11.5279 101.511 11.4891 101.491 11.4438 101.479ZM13.0734 100.834C13.0863 100.628 13.0928 100.422 13.0993 100.215C13.248 100.46 13.4097 100.705 13.5713 100.944C13.4032 100.905 13.2415 100.86 13.0734 100.834ZM46.7834 107.44C44.6883 110.901 41.0476 113.144 37.0384 113.66C32.7446 114.214 28.5478 112.687 25.6443 109.49C24.2282 107.93 23.1612 106.029 22.5469 103.999C22.8055 103.87 22.9672 103.58 22.7732 103.264C22.4951 102.806 22.2688 102.323 22.0748 101.833C22.23 101.556 22.1912 101.234 21.9972 101.015C21.9261 100.035 21.9649 99.0552 22.133 98.082C22.1977 97.7017 22.0101 97.4117 21.745 97.257C22.6503 94.028 24.6291 91.1276 27.4614 89.2263C28.3409 88.8525 29.2462 88.5495 30.1644 88.2853C31.7811 87.8148 33.443 87.4538 35.1243 87.383C38.1053 87.2605 40.9377 88.137 43.1169 90.2059C45.0375 92.0364 46.3372 94.4533 47.1908 96.9347C47.8439 98.8425 48.3677 100.931 48.5229 103C48.1996 104.559 47.6176 106.068 46.7834 107.44ZM98.16 39.3533C99.6797 40.3008 100.992 41.5834 101.936 43.1044C102.363 43.7876 102.712 44.5353 102.965 45.3023C97.7397 45.1927 92.5212 45.3216 87.3027 45.6632L87.2833 43.3236C87.2704 41.3513 87.1734 39.3856 87.0764 37.4198C90.8399 36.9235 94.8944 37.3167 98.16 39.3533ZM86.0611 37.5229C85.9835 39.1084 85.8995 40.7004 85.8736 42.2923C85.8736 42.4857 85.8671 42.6791 85.8671 42.8724C85.8542 41.0355 85.8284 39.1922 85.7831 37.3553C85.8542 37.4327 85.9447 37.4971 86.0611 37.5229ZM101.781 103.303C101.717 103.122 101.652 102.942 101.607 102.755C101.354 101.794 101.257 100.802 101.322 99.8157C101.335 99.5966 101.361 99.3839 101.393 99.1712C101.464 99.1197 101.536 99.0552 101.587 98.9585C101.613 98.9199 101.633 98.8747 101.658 98.8361C101.717 99.545 101.82 100.248 101.949 100.944C101.852 101.724 101.794 102.51 101.781 103.303ZM125.559 109.954C124.996 110.373 124.427 110.785 123.845 111.172C122.325 112.178 120.683 113.054 118.918 113.492C118.808 113.248 118.581 113.061 118.271 113.151C116.997 113.505 115.749 113.705 114.501 113.634C113.641 113.505 112.787 113.318 111.947 113.08C109.987 112.332 108.274 111.043 106.942 109.432C106.379 108.755 105.894 108.02 105.461 107.26C105.5 107.131 105.5 106.996 105.448 106.867C104.95 105.649 104.342 104.495 103.851 103.277C103.404 101.549 103.223 99.7577 103.346 97.9724C103.417 96.967 103.579 95.9744 103.825 95.0076C105.894 91.6303 108.435 88.4851 112.264 87.2025C114.889 86.3195 117.864 86.558 120.327 87.8083C122.875 89.0974 124.608 91.4112 125.565 94.0537C126.516 96.6769 126.807 99.4806 126.891 102.252C126.975 104.798 126.943 107.705 125.559 109.954ZM127.977 108.008C127.958 108.027 127.945 108.053 127.925 108.072C128.119 107.363 128.249 106.628 128.326 105.874C128.359 105.887 128.398 105.894 128.443 105.906C128.398 106.641 128.262 107.357 127.977 108.008ZM129.704 104.244C129.697 103.644 129.665 103.045 129.613 102.471C129.458 100.705 129.109 98.9585 128.663 97.2505C128.436 96.3869 128.204 95.4975 127.835 94.6789C127.473 93.8733 127.234 93.0161 126.6 92.3844C126.567 92.3522 126.535 92.3329 126.503 92.3135C125.733 90.6378 124.679 89.1038 123.25 87.9115C120.89 85.9263 117.715 84.9467 114.637 85.1787C112.774 85.3205 111.106 85.8877 109.606 86.7384C106.03 87.4538 103.605 90.4251 101.943 93.5317C100.889 95.4975 100.029 97.605 99.8542 99.848C99.7443 101.272 99.906 102.922 100.482 104.34C100.469 104.334 100.462 104.334 100.449 104.334C97.1383 104.07 93.8016 104.173 90.4778 104.173C89.9152 104.173 89.3591 104.173 88.7965 104.173C88.7642 104.134 88.7383 104.089 88.6995 104.063C88.5378 103.947 88.3956 103.805 88.2792 103.657C88.2986 103.593 88.305 103.528 88.2921 103.464C88.1822 102.884 88.0722 102.297 87.9558 101.717C87.9041 101.44 87.5808 101.259 87.3157 101.259C87.4385 98.0304 87.4191 94.8078 87.4191 91.5723C87.4191 87.0736 87.4191 82.5684 87.4191 78.0696C87.4191 69.0141 87.4191 59.9522 87.3544 50.8967C87.348 49.743 87.3351 48.5829 87.3286 47.4292C92.6893 47.5839 98.0501 47.5903 103.417 47.6096L103.424 47.6934C103.417 47.7321 103.43 47.7514 103.43 47.7772C103.398 47.803 103.366 47.8288 103.333 47.8674C103.314 47.8868 103.301 47.9126 103.282 47.9319C103.042 48.2477 103.165 48.6344 103.437 48.8793C103.721 49.1371 104.174 49.0727 104.484 48.9051C104.937 48.6602 105.015 48.2606 105.002 47.7772C105.002 47.7192 104.989 47.6612 104.989 47.6096C107.465 47.6161 109.949 47.6225 112.425 47.629C113.945 47.6354 115.464 47.6548 116.978 47.6354C117.54 47.6934 118.103 47.745 118.659 47.8094C120.127 47.9835 121.666 48.1768 122.979 48.9051C125.242 50.1555 126.658 52.7465 127.816 54.9572C129.193 57.5675 130.169 60.3518 130.829 63.2199C132.213 69.2462 132.568 75.5238 133.222 81.6596C133.965 88.6075 134.696 95.5555 135.433 102.503C133.622 103.367 131.695 103.96 129.704 104.244ZM138.712 101.098C138.686 101.504 138.66 101.923 138.576 102.316C138.563 102.374 138.518 102.503 138.537 102.49C138.408 102.581 138.123 102.561 137.981 102.574C137.651 102.607 137.315 102.632 136.979 102.665C136.817 101.182 136.655 99.6997 136.494 98.2173C136.539 98.2173 136.578 98.2173 136.623 98.2044C137.231 97.9917 137.839 98.314 138.227 98.7974C138.731 99.4355 138.757 100.318 138.712 101.098Z" fill="#5C7644"/>
<path d="M124.126 56.5269C123.577 55.1865 122.95 53.8717 121.813 52.9142C120.859 52.11 119.657 51.6568 118.441 51.3887C115.54 50.7568 112.338 51.0568 109.391 51.1781C106.385 51.3057 103.385 51.51 100.399 51.8036C100.053 51.7462 99.6866 51.7908 99.3403 51.9185C98.7064 51.9823 98.0725 52.0462 97.4387 52.1228C97.0596 52.1674 96.9812 52.5376 97.125 52.7802C97.0727 52.8376 97.027 52.9142 97.0139 53.0164C96.9224 53.8014 96.8701 54.5929 96.8309 55.3908C96.7983 54.727 96.7787 54.0631 96.7395 53.3993C96.7133 52.9461 95.9292 52.9589 95.9226 53.4185C95.805 60.4524 95.9291 67.4927 96.001 74.5266C96.001 74.6606 96.0402 74.7755 96.099 74.8777C95.5828 74.9351 95.0731 74.9989 94.5699 75.0947C93.8576 75.2223 93.7662 76.333 94.5634 76.3968C97.5236 76.6393 100.556 76.3138 103.522 76.2755C106.528 76.2372 109.541 76.2564 112.547 76.3393C115.52 76.4159 118.493 76.5436 121.467 76.7287C124.1 76.8946 127.002 77.4244 129.491 76.3074C129.798 76.1734 130.06 75.8223 129.988 75.4776C128.59 69.0118 126.642 62.6609 124.126 56.5269ZM124.826 75.3564C123.46 75.2734 122.094 75.1521 120.728 75.0691C117.814 74.884 114.893 74.7628 111.972 74.6926C109.083 74.6287 106.195 74.616 103.307 74.6543C101.608 74.6798 99.8565 74.6479 98.1313 74.7245C98.1575 71.5458 98.1771 68.3671 98.1902 65.1949C98.249 64.4225 98.3078 63.6566 98.3666 62.8843C98.5169 60.9183 98.6737 58.9524 98.824 56.9865C98.8959 56.0929 98.8828 55.1546 99.0723 54.2738C99.1965 53.7121 99.9414 52.4036 100.621 53.2844C100.994 53.7695 101.817 53.31 101.634 52.7738C103.581 52.6717 105.535 52.5823 107.482 52.5249C110.488 52.4355 113.573 52.2313 116.572 52.5185C117.801 52.6334 119.062 52.8695 120.134 53.4823C121.408 54.2099 122.068 55.4163 122.604 56.7057C123.773 59.5333 124.786 62.4375 125.695 65.3544C126.694 68.5586 127.537 71.8075 128.25 75.0883C127.152 75.4202 125.995 75.4266 124.826 75.3564Z" fill="#5C7644"/>
<path d="M41.6729 97.3644C39.9288 95.2638 36.8698 94.528 34.274 95.2973C32.7275 95.7522 31.4466 96.8025 30.7245 98.2207C30.1522 99.3513 30.0091 100.689 30.4383 101.86C30.1113 102.669 29.9341 103.539 30.0227 104.395C30.2135 106.188 31.7396 107.152 33.3611 107.613C36.5155 108.516 40.0923 107.914 41.9045 104.997C43.3353 102.689 43.4715 99.5319 41.6729 97.3644ZM40.9507 103.272C40.5624 104.181 39.9492 104.977 39.118 105.539C38.0416 106.269 36.6654 106.456 35.3845 106.322C34.165 106.195 32.1347 105.847 31.76 104.469C31.6374 104.014 31.6578 103.539 31.7464 103.064C32.1143 102.904 32.3664 102.455 32.0598 102.041C32.053 102.034 32.0462 102.021 32.0394 102.014C32.2233 101.505 32.4345 101.01 32.598 100.555C32.816 99.9534 32.053 99.4383 31.6033 99.8932C31.869 98.5753 32.9864 97.3377 34.2059 96.8359C36.1067 96.0599 38.464 96.4613 39.9901 97.826C41.523 99.2041 41.7206 101.465 40.9507 103.272Z" fill="#5C7644"/>
<path d="M119.383 99.3661C118.915 98.0871 118.297 96.8614 117.404 95.8621C115.657 93.917 112.099 92.991 110.482 95.629C110.251 96.002 110.457 96.3351 110.757 96.455C109.24 98.4535 108.491 101.285 109.384 103.763C110.22 106.088 112.286 107.96 114.689 108C117.017 108.033 119.321 106.361 119.857 103.896C120.188 102.377 119.907 100.792 119.383 99.3661ZM115.151 106.567C113.285 106.794 111.568 105.515 110.732 103.803C109.646 101.591 110.183 98.8332 111.593 96.9413C111.768 96.7082 111.712 96.4217 111.562 96.2485C112.992 95.1427 114.895 95.4425 116.169 96.6948C117.635 98.1404 118.69 100.638 118.615 102.777C118.547 104.782 116.993 106.347 115.151 106.567Z" fill="#5C7644"/>
<path d="M39.49 89.028C39.0513 88.8559 38.7929 89.5251 39.2136 89.7355C40.7038 90.4812 42.0198 91.654 43.0293 93.0307C44.0448 94.4265 44.6998 96.0264 45.1565 97.7154C45.3007 98.2444 46.0458 97.964 45.9978 97.4605C45.6432 93.6426 42.7889 90.341 39.49 89.028Z" fill="#5C7644"/>
<path d="M45.2062 105.289C44.5885 106.946 43.3657 108.193 41.9494 109C40.5144 109.822 38.9297 109.982 37.3449 109.815C36.9394 109.773 36.8832 110.393 37.2202 110.56C38.9109 111.375 40.895 110.971 42.4922 110.059C44.1144 109.133 45.3747 107.489 45.9736 105.575C46.1483 105.018 45.4059 104.76 45.2062 105.289Z" fill="#5C7644"/>
<path d="M120.851 92.1258C120.389 91.7379 119.697 92.3327 120.145 92.7529C122.633 95.1061 123.849 98.3191 123.989 101.571C124.01 102.14 124.856 102.14 124.926 101.59C125.387 98.0475 123.654 94.4919 120.851 92.1258Z" fill="#5C7644"/>
<path d="M120.497 110.007C117.854 110.359 115.128 110.408 112.443 110.275C111.86 110.245 111.86 110.775 112.401 110.835C115.163 111.145 117.973 111.002 120.675 110.54C121.205 110.449 121.044 109.935 120.497 110.007Z" fill="#5C7644"/>
<path d="M82.6385 78.1148C80.6978 77.9069 78.66 78.0438 76.7064 78.0489C74.6621 78.054 72.6179 78.059 70.5737 78.0641C66.4852 78.0742 62.3968 78.0844 58.3148 78.0894C50.2478 78.1097 42.1809 78.13 34.1139 78.1452C29.4885 78.1554 24.8631 78.2162 20.2377 78.2973C19.9208 78.3024 19.9208 78.6775 20.2377 78.6876C36.4751 78.9766 52.7255 78.8854 68.9629 78.9208C71.2206 78.9259 73.4783 78.931 75.736 78.9361C78.0002 78.9411 80.3938 79.1135 82.6385 78.8702C83.1237 78.8144 83.1173 78.1655 82.6385 78.1148Z" fill="#5C7644"/>
<path d="M82.6851 75.1422C79.6387 74.905 76.5592 75.0332 73.4996 75.0461C70.4202 75.0589 67.3539 75.2448 64.2745 75.2576C63.958 75.2576 63.8855 75.7449 64.2152 75.7449C67.3276 75.7577 70.4334 75.9437 73.5523 75.9565C76.5922 75.9693 79.6584 76.0911 82.6917 75.8603C83.1071 75.8283 83.1005 75.1743 82.6851 75.1422Z" fill="#5C7644"/>
<path d="M81.4104 69.0231C78.6264 69.898 75.6349 70.2155 72.7943 69.4888C71.9144 69.263 71.663 70.7659 72.568 70.8505C75.6035 71.1469 78.6578 71.0481 81.6178 70.1379C82.2463 69.9545 82.0452 68.8255 81.4104 69.0231Z" fill="#5C7644"/>
<path d="M81.5322 52.2835C79.4888 52.1419 77.4775 51.9915 75.434 52.0004C73.3389 52.0004 71.2503 52.0092 69.1553 52.0092C65.0747 52.0181 60.9942 52.0269 56.9201 52.0446C48.7074 52.0889 40.4883 52.1508 32.2757 52.2216C27.6536 52.2658 23.0381 52.3631 18.416 52.4516C17.9132 52.4605 17.8359 53.5311 18.3516 53.5399C34.8155 53.8496 51.286 53.9646 67.75 53.9912L74.6733 54C76.994 54 79.276 53.8673 81.5903 53.708C82.1769 53.6638 82.1124 52.3277 81.5322 52.2835Z" fill="#5C7644"/>
<path d="M46.8743 88.096C45.4194 86.2058 42.8508 84.8666 40.6427 84.0785C38.293 83.2327 35.763 82.861 33.2652 83.0468C27.9284 83.4441 22.8169 86.5518 19.1861 90.3578C17.2742 92.3634 15.7356 94.8623 16.0381 97.7201C16.0768 98.1109 16.6497 98.0853 16.6497 97.688C16.6562 95.2275 18.0724 93.0682 19.7462 91.3638C21.4522 89.621 23.4414 88.096 25.5401 86.8529C29.7374 84.3732 34.5527 83.5723 39.265 84.9947C40.4689 85.36 41.6405 85.8662 42.7349 86.4877C43.9259 87.1605 44.8786 88.0703 45.9795 88.8585C46.4816 89.2237 47.3185 88.6727 46.8743 88.096Z" fill="#5C7644"/>
<path d="M116.857 81.3571C115.954 80.9435 114.894 80.9308 113.932 81.1089C111.523 81.5479 109.219 82.4006 107.092 83.5777C102.89 85.9001 99.4469 89.5587 97.4572 93.8473C96.9008 95.0435 96.4492 96.3033 96.1481 97.5886C95.8798 98.7403 95.8798 100.127 96.9794 100.872C97.6993 101.362 98.5699 100.325 97.8433 99.8219C97.0317 99.2684 97.4572 98.0085 97.6666 97.245C97.9415 96.2715 98.3081 95.3171 98.7335 94.3945C99.5517 92.6383 100.632 91.0031 101.914 89.5333C104.5 86.5682 107.923 84.284 111.739 83.0877C112.76 82.7696 113.879 82.4196 114.959 82.4069C115.954 82.3942 116.465 82.6996 116.975 83.4695C117.198 83.8067 117.682 83.6858 117.846 83.3804C118.317 82.5469 117.63 81.7134 116.857 81.3571Z" fill="#5C7644"/>
<path d="M111.913 68.2865C111.46 67.6578 110.767 67.181 110.177 66.6836C109.573 66.1723 108.963 65.668 108.359 65.1567C107.144 64.1411 105.93 63.1185 104.716 62.1029C104.324 61.7712 103.734 62.3171 104.132 62.6694C105.306 63.7265 106.479 64.7836 107.652 65.8407L109.361 67.3814C109.656 67.6439 109.944 67.9134 110.239 68.1759C110.548 68.4454 110.863 68.7563 111.227 68.9498C111.611 69.1501 112.229 68.7148 111.913 68.2865Z" fill="#5C7644"/>
<path d="M118.966 69.3837C118.495 68.3383 117.41 67.5896 116.587 66.8477C115.724 66.0653 114.848 65.2964 113.966 64.5343C112.168 62.9897 110.319 61.4991 108.443 60.0625C108.129 59.8197 107.822 60.3458 108.123 60.5886C109.953 62.0994 111.737 63.6777 113.469 65.3099C114.312 66.099 115.142 66.9084 115.959 67.7245C116.744 68.5137 117.482 69.5051 118.502 69.9705C118.835 70.1189 119.096 69.6737 118.966 69.3837Z" fill="#5C7644"/>
<path d="M120.958 65.3668C120.711 64.8219 120.21 64.396 119.779 63.9638C119.349 63.5317 118.911 63.1058 118.473 62.6862C117.591 61.8406 116.715 60.9951 115.847 60.1433C115.423 59.73 114.717 60.2999 115.12 60.7258C115.953 61.6089 116.779 62.4983 117.598 63.3876C117.993 63.8198 118.396 64.2519 118.805 64.6716C119.236 65.1225 119.659 65.6236 120.245 65.9305C120.683 66.1622 121.142 65.7739 120.958 65.3668Z" fill="#5C7644"/>
<path d="M81.6231 84.0505C80.9192 83.9236 80.0392 84.0709 79.3222 84.1119C78.54 84.161 77.7513 84.206 76.9691 84.2592C75.3982 84.3615 73.8338 84.4924 72.2694 84.6234C71.8913 84.6561 71.9174 85.008 72.3085 84.9999C73.8859 84.9753 75.4568 84.9467 77.0343 84.8935C77.823 84.8648 78.6052 84.8362 79.3939 84.8034C80.1109 84.7748 81.0235 84.828 81.6818 84.6357C82.1185 84.5088 82.112 84.1364 81.6231 84.0505Z" fill="#5C7644"/>
<path d="M82.9945 97.0552C81.0975 97.7746 78.8338 98.0611 76.824 97.6154C75.9354 97.4181 75.6533 98.7677 76.5419 98.8505C77.6984 98.9587 78.8761 99.0415 80.0397 98.9778C81.2103 98.9078 82.3669 98.6849 83.4952 98.3857C84.4543 98.1247 83.9112 96.7051 82.9945 97.0552Z" fill="#5C7644"/>
<path d="M81.4322 49.0646C78.2543 48.9638 75.0635 49.01 71.8856 49.0142C68.6437 49.0184 65.4081 49.0226 62.1661 49.0268C55.7911 49.0352 49.4096 49.0394 43.0346 49.1024C39.4338 49.1402 35.8458 49.2453 32.2451 49.3041C31.9183 49.3083 31.9183 49.6822 32.2451 49.6864C35.4166 49.741 38.5881 49.846 41.766 49.8796C45.0016 49.9132 48.2371 49.9216 51.4727 49.9342C57.8926 49.9594 64.3125 49.972 70.7388 49.9804C74.3011 49.9846 77.8762 50.0435 81.4386 49.9342C82.1882 49.909 82.1882 49.0856 81.4322 49.0646Z" fill="#5C7644"/>
<path d="M99.4453 83.1732C99.4453 83.1684 99.4518 83.1636 99.4518 83.1587C99.1519 83.0911 98.8259 83.0718 98.5194 83.0525C98.2977 83.038 98.0695 83.0332 97.8478 83.0332C97.763 83.0236 97.6783 83.0139 97.6 83.0042C97.4827 82.9898 97.3653 83.0139 97.2544 83.0525C96.6481 83.0863 96.0547 83.1636 95.4744 83.2794C95.044 83.3663 94.8484 83.8443 95.1353 84.0953C95.5592 84.4622 96.0873 84.7374 96.7133 84.8822C96.9871 84.945 97.261 84.9884 97.5479 84.9981C97.8217 85.0077 98.0499 84.9836 98.2912 84.8774C98.4281 84.8194 98.539 84.7422 98.6563 84.6601C98.8715 84.496 98.7737 84.187 98.5064 84.0856H98.5129C98.5259 84.0856 98.539 84.0856 98.5585 84.0856C98.6237 84.0905 98.6954 84.0905 98.7606 84.0953C98.9171 84.1049 99.0736 84.1243 99.2301 84.1291C99.6279 84.1436 99.9865 83.9843 99.9995 83.6608C100.013 83.3905 99.7648 83.2215 99.4453 83.1732Z" fill="#5C7644"/>
<path d="M13.5839 99.4629C9.13844 98.5332 4.50265 98.9981 0.31549 100.91C-0.309865 101.195 0.0843804 102.192 0.716533 101.967C4.82213 100.505 9.15883 99.9803 13.448 100.558C14.0937 100.655 14.216 99.5979 13.5839 99.4629Z" fill="#5C7644"/>
<path d="M103.971 113.144C102.482 113.151 100.987 112.986 99.4985 113.001C98.1134 113.016 96.7348 113.084 95.3497 113.129C92.3336 113.219 89.3175 113.392 86.3014 113.528C80.4181 113.798 74.5283 114.099 68.6514 114.513C65.4476 114.739 62.2761 115.13 59.2018 116.243C58.8329 116.378 59.0141 117.063 59.3895 116.995C65.0334 115.89 70.7743 115.754 76.4764 115.423C82.3339 115.077 88.1913 114.709 94.0423 114.31C95.6539 114.197 97.2591 114.054 98.8642 113.919C100.579 113.776 102.269 113.407 103.971 113.212C104.01 113.219 104.01 113.144 103.971 113.144Z" fill="#5C7644"/>
<path d="M20.5803 110C14.4952 110.308 8.41 110.616 2.34394 111.163C1.85968 111.206 1.89791 112.018 2.38855 112C8.48009 111.791 14.5525 111.348 20.6249 110.905C21.1538 110.868 21.1092 109.976 20.5803 110Z" fill="#5C7644"/>
<path d="M95.698 111C88.9746 111.139 82.2577 111.486 75.5343 111.714C68.8109 111.943 62.081 112.096 55.3511 112.172C54.8917 112.179 54.8787 112.935 55.3382 112.942C68.7656 113.094 82.303 113.032 95.6851 111.687C96.0863 111.638 96.1187 110.986 95.698 111Z" fill="#5C7644"/>
</svg>
