<svg width="140" height="140" viewBox="0 0 140 140" fill="none" xmlns="http://www.w3.org/2000/svg">
<path d="M22.122 94.6872C19.6011 94.4752 17.0519 94.5898 14.5253 94.6127C11.9476 94.6357 9.37559 94.6643 6.80356 94.8248C6.46783 94.8477 6.46783 95.4095 6.80356 95.4267C9.37559 95.5872 11.9533 95.6158 14.5253 95.6387C17.0519 95.6617 19.6011 95.7763 22.122 95.5642C22.6227 95.5298 22.617 94.7331 22.122 94.6872Z" fill="#5C7644"/>
<path d="M112.428 102.328C112.411 101.972 112.394 101.623 112.371 101.273C112.354 100.952 112.024 100.832 111.751 100.901C111.734 100.878 111.723 100.849 111.705 100.826C111.637 100.723 111.523 100.677 111.41 100.683C110.789 100.23 109.833 100.075 109.139 100.419C109.105 100.396 109.076 100.373 109.042 100.356C108.923 100.276 108.707 100.27 108.587 100.362C107.563 101.124 106.556 101.915 105.571 102.729C104.519 101.611 102.806 101.48 101.417 102.03C100.484 102.402 99.6704 103.021 98.868 103.618C98.5039 103.893 98.134 104.162 97.7641 104.437C96.6659 103.979 95.505 103.778 94.3158 103.944C92.9785 104.128 91.7722 104.764 90.617 105.435C89.3481 106.174 88.0848 106.925 86.8216 107.681C86.1843 108.06 85.5469 108.444 84.9096 108.822C84.4715 109.086 83.9195 109.321 83.487 109.647C82.8725 108.788 82.1157 108.031 81.228 107.446C78.7584 105.807 75.6344 105.509 72.7551 105.366C69.5628 105.211 66.3705 105.44 63.1839 105.36C59.8721 105.28 56.7083 104.758 53.6583 103.434C50.8529 102.219 48.1443 100.975 45.1455 100.31C39.6999 99.1065 33.9128 99.4562 28.6094 101.204C28.5468 100.734 28.3875 100.264 28.2452 99.886C27.9436 99.0893 27.4941 98.3499 27.0047 97.6563C26.3674 96.745 25.3147 95.14 24.0571 95.0942C23.8864 94.5153 22.8963 94.5669 22.9646 95.2318C23.2263 97.7767 23.3914 100.339 23.5279 102.901C23.4539 107.097 23.4369 111.292 23.4141 115.494C23.397 118.486 23.4027 121.484 23.4027 124.476C23.4027 126.476 23.397 128.465 23.471 130.454C23.3686 130.529 23.2719 130.62 23.1979 130.718C22.828 131.205 22.6971 131.893 22.9304 132.466C22.9646 132.546 22.9987 132.621 23.0442 132.69C22.6687 132.701 22.2988 132.707 21.9232 132.713C21.4794 132.707 21.0356 132.707 20.5974 132.713C20.3698 129.526 20.0796 126.35 19.9373 123.158C19.9202 122.728 19.2602 122.693 19.2715 123.129C19.3569 126.316 19.4138 129.531 19.63 132.724C19.613 132.724 19.5959 132.724 19.5845 132.724C18.987 132.718 18.3952 132.707 17.7977 132.69C17.61 128.104 17.462 123.519 17.5417 118.922C17.5474 118.549 16.9783 118.543 16.9613 118.916C16.7963 123.49 16.7109 128.087 16.8816 132.667C16.8304 132.667 16.7735 132.667 16.7223 132.661C16.506 132.655 16.2955 132.638 16.0793 132.632C16.0679 132.558 16.0337 132.489 15.9825 132.449C16.0053 130.259 15.863 128.041 15.8346 125.863C15.7948 123.18 15.772 120.498 15.7663 117.821C15.7663 117.42 15.1517 117.397 15.1461 117.804C15.1119 120.486 15.0778 123.163 15.055 125.846C15.0322 128.075 14.9071 130.345 14.981 132.586C12.5569 132.455 10.1329 132.26 7.70878 132.134C7.59497 132.128 7.50961 132.168 7.44702 132.231C7.30476 132.128 7.16819 132.03 7.02594 131.927C6.74711 131.629 6.54795 131.262 6.46259 130.815C6.45121 130.752 6.42845 130.701 6.4 130.661C6.50242 126.706 6.38862 122.728 6.4 118.778C6.41138 113.872 6.41138 108.971 6.40569 104.065C6.40569 101.256 6.38293 98.4416 6.34309 95.633C6.33171 94.8649 5.16519 94.7904 5.15381 95.5699C5.02863 105.423 5.09122 115.282 5.11398 125.135C5.11967 127.669 5.07415 130.208 5.18226 132.735C5.01155 132.919 4.93189 133.188 5.09691 133.441C5.13674 133.498 5.18226 133.538 5.2221 133.595C5.25624 133.916 5.50661 134.1 5.75699 134.117C6.71866 134.81 8.08434 134.868 9.23379 135.034C11.1457 135.309 13.0691 135.527 14.9981 135.59C15.6753 135.613 16.3524 135.601 17.0296 135.567C17.0865 136.123 17.866 136.123 17.9116 135.556C17.9116 135.544 17.9116 135.527 17.9116 135.515C19.0781 135.424 20.2332 135.24 21.3599 134.954C22.4012 134.788 23.4141 134.501 24.3473 134.014C24.8595 134.008 25.3716 133.979 25.8553 133.825C26.3731 133.658 26.2707 133.011 25.8894 132.787C25.9861 132.707 26.0544 132.586 26.0715 132.437C26.0772 132.432 26.0772 132.426 26.0829 132.42C26.2024 132.512 26.3617 132.5 26.4869 132.415C27.2153 131.904 27.8583 131.234 28.3192 130.471C28.5525 130.087 28.7517 129.675 28.9053 129.256C28.9793 129.05 29.0419 128.844 29.0988 128.631C33.2527 127.565 37.8562 128.316 41.8963 129.64C44.9293 130.632 47.8655 131.899 50.8643 132.988C53.8859 134.088 56.9814 134.965 60.1396 135.579C61.9776 135.94 63.8383 136.209 65.699 136.398C65.7844 136.404 65.8641 136.415 65.9494 136.421C67.3037 136.748 68.6922 137.086 70.0749 137.023C70.8545 136.989 71.5942 136.799 72.3055 136.524C72.5331 136.455 72.7607 136.387 72.977 136.306C74.5817 135.699 75.9758 134.661 77.4041 133.727C80.6077 131.629 83.8114 129.537 87.0151 127.439C93.2801 123.341 99.6476 119.386 105.833 115.167C106.294 114.852 106.749 114.525 107.193 114.181C108.115 113.614 109.031 113.029 109.867 112.359C111.222 111.275 111.245 109.642 111.444 108.043C111.455 108.031 111.472 108.02 111.489 108.002C112.701 106.392 113.026 104.214 112.428 102.328ZM100.165 103.95C101.474 102.987 103.631 101.892 105.025 103.159C103.927 104.076 102.851 105.022 101.799 105.991C100.717 106.988 99.659 108.02 98.6347 109.074C97.7698 109.963 96.7626 110.868 96.0627 111.923C95.9716 111.791 95.8009 111.711 95.6132 111.791C93.65 112.634 91.6982 113.499 89.7464 114.376C88.7904 114.806 87.8345 115.242 86.8785 115.672C86.3834 115.895 85.8997 116.13 85.3933 116.331C85.2795 116.377 85.1657 116.417 85.0519 116.457C85.3876 115.597 85.2567 114.393 85.1316 113.608C85.0974 113.408 85.0519 113.213 85.0064 113.018C86.7192 112.531 88.3978 111.728 89.9626 110.926C91.8063 109.98 93.5533 108.868 95.2376 107.67C96.9162 106.472 98.5095 105.171 100.165 103.95ZM85.2112 109.865C85.8087 109.504 86.4005 109.149 86.998 108.788C88.1076 108.117 89.2172 107.446 90.3268 106.77C91.3682 106.134 92.4152 105.435 93.5874 105.068C94.6913 104.718 95.818 104.741 96.8992 105.068C96.6203 105.274 96.3472 105.486 96.0684 105.687C94.1621 107.08 92.216 108.415 90.139 109.533C88.375 110.484 86.5314 111.149 84.6877 111.889C84.5227 111.43 84.3178 110.983 84.0845 110.559C84.4772 110.364 84.847 110.083 85.2112 109.865ZM28.1712 128.924C28.0404 129.308 27.8753 129.68 27.6705 130.03C27.2949 130.672 26.8283 131.239 26.265 131.715C26.2593 131.446 26.1853 131.176 26.0374 130.947C26.0203 130.569 26.0089 130.185 25.9918 129.806C26.6974 129.422 27.4315 129.119 28.1826 128.872C28.1769 128.889 28.1769 128.907 28.1712 128.924ZM110.932 103.457C110.926 103.772 110.903 104.099 110.892 104.426C110.761 105.32 110.636 106.214 110.516 107.108C110.476 107.395 110.454 107.687 110.425 107.991C110.067 108.902 109.663 109.796 109.139 110.628C108.513 111.625 107.694 112.45 106.789 113.173C106.191 113.545 105.594 113.912 105.014 114.29C103.585 115.219 102.157 116.147 100.729 117.07C94.9758 120.802 89.2172 124.533 83.4643 128.27C80.6077 130.122 77.7512 131.979 74.8889 133.83C74.5987 134.019 74.2971 134.214 73.9956 134.403C73.2843 134.793 72.5388 135.137 71.7479 135.315C71.452 135.384 71.1618 135.407 70.8716 135.412C70.4334 135.355 69.9896 135.315 69.5457 135.292C69.4205 135.269 69.2953 135.246 69.1645 135.217C69.0279 135.189 68.9084 135.206 68.8116 135.252C67.9126 135.217 67.0135 135.194 66.1258 135.114C65.5283 135.057 64.9365 134.982 64.339 134.914C58.3073 133.481 52.3723 131.721 46.4998 129.732C43.0344 128.563 39.3584 127.422 35.6882 127.113C35.6427 127.107 35.5971 127.101 35.5516 127.101C35.3695 127.084 35.1817 127.078 34.9996 127.067C34.4192 127.032 33.8331 127.009 33.2413 127.021C31.7789 127.049 30.3165 127.25 28.9167 127.64C28.7972 127.6 28.6663 127.611 28.5866 127.703C28.5753 127.714 28.5696 127.726 28.5639 127.737C27.6648 128.007 26.7885 128.362 25.9577 128.798C25.6618 120.819 25.2578 112.852 24.7457 104.884C24.9277 104.523 25.0985 104.162 25.2976 103.812C25.3488 103.721 25.4171 103.618 25.474 103.52C25.6049 103.595 25.7699 103.618 25.952 103.526C26.6462 103.205 27.3518 102.912 28.0688 102.643C28.1371 102.632 28.2054 102.609 28.2623 102.574C32.8032 100.918 37.7082 100.39 42.5109 101.067C45.3276 101.462 48.0419 102.253 50.6424 103.4C53.3339 104.586 55.9287 105.756 58.8649 106.203C64.7658 107.091 70.7862 105.864 76.67 106.902C79.3502 107.378 81.7173 108.564 83.1229 110.994C83.3562 111.401 83.5439 111.831 83.7033 112.273C83.7033 112.296 83.709 112.313 83.7147 112.336C83.5269 112.548 83.5952 112.886 83.8057 113.075C83.8171 113.19 83.8228 113.31 83.8285 113.425C83.4472 113.425 83.066 113.425 82.6847 113.448C82.0588 113.488 81.4328 113.534 80.8069 113.585C80.181 113.637 79.555 113.688 78.9291 113.74C78.4568 113.78 77.9731 113.809 77.5236 113.981C76.8009 114.256 76.3912 114.949 76.5277 115.643C75.4921 115.677 74.4565 115.729 73.4208 115.786C71.8275 115.872 69.8188 116.331 68.4475 115.276C68.1743 115.07 67.7646 115.27 67.8614 115.637C67.924 115.872 68.0264 116.067 68.1516 116.233C67.4858 116.445 66.6721 116.4 66.0234 116.451C65.0959 116.526 64.1683 116.617 63.2408 116.709C62.3133 116.795 61.3858 116.893 60.4582 116.973C59.9575 117.013 59.4567 117.053 58.956 117.087C58.5064 117.116 58.091 117.099 57.6984 117.345C57.4594 117.494 57.4423 117.924 57.7326 118.039C58.2049 118.222 58.6203 118.125 59.1096 118.073C59.6445 118.016 60.1794 117.953 60.7143 117.901C61.2549 117.85 61.7955 117.804 62.336 117.752C68.4076 117.752 74.4792 117.666 80.5508 117.569C81.3475 117.557 82.1498 117.546 82.9465 117.529C83.3675 117.523 83.8228 117.517 84.2154 117.363C84.2495 117.471 84.3292 117.563 84.4487 117.58C84.9551 117.661 85.2624 117.46 85.7006 117.225C86.1956 116.961 86.7135 116.738 87.2199 116.503C88.1702 116.061 89.1205 115.626 90.0765 115.184C91.977 114.307 93.8662 113.413 95.744 112.502C95.7042 112.76 95.9887 113.035 96.2391 112.857C97.3487 112.072 98.2136 110.931 99.1639 109.963C100.194 108.908 101.252 107.882 102.328 106.873C104.331 104.993 106.43 103.216 108.587 101.514C108.735 101.651 108.968 101.686 109.116 101.457C109.116 101.451 109.122 101.451 109.128 101.445C109.742 101.806 110.357 102.162 110.971 102.528L110.932 103.457ZM83.7716 114.325C83.7374 114.485 83.6976 114.64 83.635 114.789C83.5724 114.938 83.4814 115.081 83.3789 115.207C82.8611 115.236 82.3319 115.379 81.8312 115.465C81.3133 115.551 80.8012 115.643 80.2834 115.729C80.2208 115.683 80.1468 115.643 80.0444 115.643C79.2477 115.632 78.4625 115.626 77.6715 115.632C77.5634 115.5 77.5179 115.339 77.6317 115.184C77.8536 114.886 78.4454 114.875 78.7697 114.846C79.4184 114.789 80.0728 114.732 80.7215 114.674C81.3702 114.617 82.0189 114.554 82.6676 114.485C83.0375 114.445 83.4074 114.388 83.7716 114.325Z" fill="#5C7644"/>
<path d="M19.4933 103.847C19.4079 103.044 18.8047 102.391 18.0365 102.19C17.6439 102.087 17.2114 102.081 16.8245 102.196C16.3636 102.334 15.9994 102.586 15.7092 102.976C15.4247 103.36 15.2767 103.853 15.254 104.323C15.2312 104.861 15.4019 105.337 15.7433 105.744C15.8742 105.899 16.1189 105.916 16.2782 105.801C16.4546 105.675 16.4888 105.475 16.4091 105.274C16.4432 105.36 16.3977 105.245 16.3977 105.234C16.3863 105.199 16.375 105.165 16.3693 105.125C16.3522 105.05 16.3408 104.976 16.3294 104.901C16.3181 104.827 16.3067 104.752 16.2953 104.678C16.2953 104.672 16.2953 104.672 16.2953 104.672C16.2953 104.666 16.2953 104.666 16.2953 104.661C16.2953 104.609 16.2896 104.558 16.2896 104.512C16.2896 104.443 16.2896 104.374 16.2953 104.305C16.2953 104.277 16.301 104.242 16.3067 104.214C16.3067 104.208 16.3067 104.202 16.3067 104.196C16.301 104.133 16.3408 104.042 16.3579 103.979C16.3693 103.944 16.3807 103.91 16.392 103.87C16.4034 103.847 16.4091 103.824 16.4205 103.801C16.4432 103.749 16.4376 103.755 16.4091 103.824C16.4091 103.767 16.4888 103.675 16.5172 103.629C16.54 103.6 16.5571 103.566 16.5798 103.537C16.5855 103.526 16.5969 103.52 16.6026 103.509C16.6367 103.463 16.631 103.468 16.5855 103.532C16.5912 103.491 16.6879 103.423 16.7164 103.4C16.7676 103.354 16.8302 103.291 16.8985 103.256C16.9099 103.251 16.9212 103.245 16.9269 103.239C16.9554 103.222 16.9895 103.205 17.0237 103.188C17.0578 103.17 17.0863 103.159 17.1204 103.142C17.1261 103.142 17.1318 103.136 17.1375 103.13C17.1944 103.096 17.2797 103.084 17.3423 103.073C17.3651 103.067 17.3878 103.062 17.4106 103.062C17.4277 103.062 17.4903 103.05 17.5073 103.05C17.5699 103.044 17.6268 103.044 17.6894 103.05C17.7236 103.05 17.7634 103.056 17.7975 103.056C17.8032 103.056 17.8374 103.062 17.8545 103.062C17.917 103.073 17.9739 103.09 18.0309 103.107C18.065 103.119 18.0991 103.13 18.1333 103.142C18.1447 103.147 18.156 103.153 18.1674 103.159C18.1731 103.159 18.1731 103.165 18.1902 103.17C18.2414 103.199 18.2926 103.233 18.3381 103.268C18.3495 103.274 18.3495 103.274 18.3552 103.279C18.3609 103.285 18.3552 103.285 18.3666 103.291C18.3893 103.314 18.4178 103.342 18.4406 103.365C18.4633 103.388 18.4861 103.417 18.5031 103.44C18.5088 103.446 18.5202 103.468 18.5316 103.48C18.5657 103.537 18.5999 103.6 18.6283 103.663C18.634 103.669 18.6454 103.709 18.6511 103.721C18.6568 103.744 18.6625 103.767 18.6739 103.784C18.6909 103.835 18.7023 103.893 18.708 103.944C18.7137 103.967 18.7137 103.99 18.7194 104.013C18.7194 104.024 18.7251 104.065 18.7251 104.076C18.7251 104.156 18.7251 104.231 18.7137 104.311C18.7137 104.317 18.7023 104.368 18.7023 104.374C18.6966 104.397 18.6909 104.42 18.6852 104.443C18.6682 104.506 18.6511 104.569 18.6226 104.632C18.617 104.649 18.5714 104.741 18.6113 104.661C18.5999 104.678 18.5942 104.701 18.5828 104.718C18.5487 104.781 18.5088 104.833 18.469 104.89C18.4576 104.901 18.4406 104.924 18.4349 104.93C18.4064 104.959 18.3723 104.993 18.3381 105.022C18.3324 105.028 18.304 105.05 18.2926 105.056C18.2755 105.068 18.2528 105.079 18.2357 105.085C18.2243 105.091 18.1959 105.102 18.1902 105.102C18.1788 105.108 18.1219 105.114 18.1105 105.114C18.065 105.114 18.0195 105.114 17.9739 105.108C17.9569 105.108 17.9341 105.102 17.9284 105.102C17.8886 105.091 17.8545 105.079 17.8203 105.068C17.8146 105.068 17.8146 105.068 17.8146 105.068C17.8146 105.068 17.8146 105.068 17.8089 105.062C17.7862 105.045 17.7065 104.976 17.7748 105.045C17.7634 105.033 17.7577 105.028 17.7463 105.016C17.752 105.005 17.752 104.993 17.7577 104.982C17.8943 104.632 17.3196 104.363 17.1602 104.701C17.0635 104.901 17.035 105.096 17.1204 105.303C17.183 105.457 17.3082 105.589 17.4504 105.675C17.7748 105.876 18.1845 105.899 18.5373 105.761C18.8616 105.635 19.1405 105.32 19.2884 105.01C19.4762 104.649 19.5388 104.254 19.4933 103.847Z" fill="#5C7644"/>
<path d="M14.1271 130.276C14.036 129.669 13.962 129.061 13.9051 128.448C13.797 127.21 13.7686 125.966 13.8141 124.728C13.8312 124.298 13.1825 124.195 13.1426 124.636C13.0402 125.915 13.0118 127.198 13.063 128.482C13.0914 129.119 13.1369 129.755 13.2052 130.391C13.2735 131.022 13.3077 131.687 13.632 132.237C13.8084 132.529 14.2409 132.351 14.2921 132.065C14.4002 131.474 14.2124 130.861 14.1271 130.276Z" fill="#5C7644"/>
<path d="M22.3329 132.059C22.3386 132.019 22.35 131.939 22.35 131.939C22.367 131.732 22.3386 131.52 22.3158 131.314C22.2589 130.706 22.2134 130.105 22.1906 129.497C22.1508 128.253 22.202 127.015 22.1906 125.771C22.1849 125.318 21.5021 125.376 21.4964 125.817C21.4793 127.353 21.3542 128.884 21.3826 130.42C21.3883 130.769 21.4054 131.125 21.4224 131.474C21.4338 131.715 21.4452 131.933 21.5362 132.157C21.6728 132.489 21.9915 132.799 22.3158 132.455C22.4353 132.34 22.4126 132.179 22.3329 132.059Z" fill="#5C7644"/>
<path d="M92.825 57.0001C92.2616 53.773 91.3853 50.5575 89.8091 47.6686C86.8273 42.2004 81.2053 39.0134 75.2191 37.9989C68.3337 36.8353 61.2606 38.4059 54.6428 40.2974C49.5841 41.7418 44.3148 43.7537 40.5478 47.5883C40.4397 47.5024 40.2861 47.4909 40.1779 47.6399C39.791 48.1615 39.4439 48.7061 39.1195 49.2621C38.6017 49.9613 38.1294 50.7065 37.7254 51.4803C37.5945 51.7268 37.6401 51.9503 37.7709 52.1108C36.2232 56.2034 35.9842 60.8175 36.4337 65.1336C37.0369 70.963 39.0114 76.6777 42.2777 81.5326C45.5212 86.3588 50.0336 90.2909 55.411 92.5034C60.7542 94.7044 66.7348 95.3292 72.3853 94.0682C78.0984 92.79 83.1343 89.4254 86.7534 84.8227C90.6683 79.8417 92.8306 73.72 93.3314 67.4149C93.6102 63.9299 93.4281 60.4335 92.825 57.0001ZM88.0508 80.6327C85.2682 85.4818 81.0118 89.5744 75.8108 91.6723C65.4146 95.868 53.1804 92.3429 45.7659 84.1463C42.0216 80.0079 39.4723 74.8377 38.1579 69.4211C36.832 63.9586 36.5646 57.7223 38.4367 52.3458C38.5903 52.3114 38.7326 52.214 38.835 52.042C41.5493 47.3476 46.5056 44.6765 51.4448 42.9283C54.1534 41.9711 56.9474 41.2317 59.7413 40.5782C63.1612 39.7815 66.6437 39.1969 70.1603 39.1682C75.8621 39.1223 81.8711 40.7502 85.9852 44.9173C88.1418 47.1011 89.5132 49.9098 90.4179 52.8216C91.3967 55.9684 91.943 59.2757 92.108 62.5715C92.4266 68.8307 91.1805 75.1759 88.0508 80.6327Z" fill="#5C7644"/>
<path d="M71.1787 72.6424C70.1089 70.3324 67.9409 68.7791 65.7729 67.604C63.3772 66.3029 60.7085 65.317 58.751 63.3395C56.8902 61.448 56.0822 58.8056 57.4251 56.3696C58.4096 54.5755 60.1793 53.5151 62.1083 53.1024C62.1652 53.6011 62.2562 54.0883 62.4099 54.5583C62.4838 54.7933 62.6546 54.9767 62.9163 54.9595C63.1439 54.9423 63.3829 54.7589 63.3829 54.5124C63.3886 53.9851 63.3658 53.452 63.3488 52.9247C63.9463 52.8846 64.5494 52.896 65.1355 52.9706C67.5369 53.2743 70.3707 54.8735 70.4446 57.5962C70.4617 58.1522 71.2413 58.0891 71.2811 57.5618C71.5827 53.4406 66.763 51.6064 63.326 51.7554C63.326 51.6751 63.326 51.5949 63.326 51.5147C63.3374 50.5058 63.4512 49.5085 63.6561 48.5226C63.7812 47.9093 62.7399 47.68 62.5863 48.2876C62.2961 49.4282 62.0741 50.6721 62.0571 51.9044C60.1508 52.2541 58.3356 53.1597 57.0951 54.6901C55.7636 56.3352 55.1661 58.4846 55.6953 60.5596C56.9301 65.3915 62.2107 66.9563 65.9663 69.2147C67.8498 70.3496 69.739 71.9259 70.3081 74.1613C70.8714 76.391 69.961 78.4832 67.7986 79.3143C66.7801 79.7041 65.6591 80.0078 64.521 80.1397C64.4356 79.6811 63.6447 79.7098 63.6674 80.2027V80.2085C62.2619 80.26 60.8678 80.0136 59.6557 79.3086C58.6258 78.7067 57.4991 77.5718 57.5048 76.2879C57.5105 75.7089 57.9088 74.8778 58.6087 74.9924C59.394 75.1243 59.155 76.1789 58.5518 75.8809C57.869 75.5427 57.3967 76.5286 58.0226 76.9241C58.8591 77.4629 59.9346 76.9585 60.3044 76.0872C60.7198 75.1128 59.9915 74.0753 59.064 73.7773C57.9942 73.4391 56.9073 74.0696 56.435 75.0555C55.883 76.2191 56.2529 77.5775 56.9358 78.5978C58.3413 80.6899 60.8792 81.5956 63.3033 81.5898C63.4284 81.5898 63.5593 81.5727 63.6845 81.5727C63.6959 82.1344 63.713 82.6904 63.713 83.2521C63.713 84.2724 63.6162 85.3041 63.7414 86.3186C63.7926 86.7485 64.5096 86.8403 64.6063 86.3932C64.8283 85.3729 64.7884 84.324 64.7543 83.2807C64.7372 82.6846 64.7031 82.0942 64.6519 81.4981C65.6363 81.3835 66.6093 81.16 67.5482 80.8619C68.7205 80.4951 69.8984 79.9333 70.6836 78.9474C72.0834 77.182 72.1005 74.6313 71.1787 72.6424Z" fill="#5C7644"/>
<path d="M56.3042 86.3989C54.1589 85.4302 51.8942 84.5647 49.9708 83.1891C47.854 81.6759 46.4713 79.4863 45.1909 77.2566C42.653 72.8258 40.6728 67.9824 39.9843 62.8867C39.603 60.0724 39.6542 57.1835 40.2859 54.4093C40.3143 54.2946 40.1436 54.2603 40.1095 54.3692C38.6983 59.482 39.2218 64.7725 40.8492 69.7707C41.6686 72.2756 42.7327 74.6944 43.9504 77.0273C45.1852 79.3888 46.5168 81.802 48.5938 83.5215C50.7618 85.3156 53.3964 86.313 56.0538 87.1154C56.4635 87.2358 56.6968 86.5766 56.3042 86.3989Z" fill="#5C7644"/>
<path d="M87.6121 56.467C86.5423 52.3229 84.4938 48.3851 81.4722 45.3529C81.2162 45.095 80.7496 45.4733 80.9829 45.7713C83.5094 49.027 85.4384 52.7012 86.4797 56.7078C87.5268 60.7545 87.5097 64.933 86.8951 69.0485C86.8155 69.5644 87.5324 69.7363 87.6861 69.2319C88.9095 65.0992 88.6819 60.6112 87.6121 56.467Z" fill="#5C7644"/>
<path d="M26.2533 70.0287C24.2389 70.0917 22.2303 70.1376 20.2159 70.2236C18.2015 70.3095 16.1928 70.4872 14.1784 70.5445C13.9053 70.5503 13.8996 70.9802 14.1727 70.9744C16.1814 70.9515 18.1958 71.0489 20.2045 71.0604C22.2132 71.0661 24.2276 71.0318 26.2363 71.0146C26.8679 71.0031 26.885 70.0058 26.2533 70.0287Z" fill="#5C7644"/>
<path d="M29.3376 52.3687C28.9962 51.8643 28.3247 51.6408 27.7899 51.3886C27.1241 51.0733 26.4412 50.7867 25.7527 50.5231C24.4382 50.0187 23.101 49.5888 21.7638 49.1646C18.9528 48.2762 16.1133 47.3476 13.6607 45.6624C13.2966 45.4102 12.8299 45.9261 13.1998 46.1955C15.5386 47.8807 18.213 48.8952 20.9159 49.8238C22.3214 50.3053 23.7326 50.7581 25.1154 51.2969C25.8039 51.5663 26.4811 51.8529 27.1468 52.1681C27.75 52.4547 28.3589 52.9419 29.0303 52.9878C29.3433 53.005 29.4856 52.5923 29.3376 52.3687Z" fill="#5C7644"/>
<path d="M40.3314 37.2996C39.1762 35.6832 37.8617 34.1642 36.6269 32.6109C35.358 31.0117 34.0947 29.4125 32.8258 27.8191C30.3107 24.6722 27.7842 21.5312 25.2633 18.3844C24.9731 18.0233 24.3984 18.4474 24.6829 18.82C27.1468 22.0069 29.6108 25.1996 32.0804 28.3808C33.2981 29.957 34.5329 31.5219 35.7563 33.0867C37.0082 34.6859 38.2032 36.3596 39.5347 37.8957C39.9501 38.3772 40.7126 37.8269 40.3314 37.2996Z" fill="#5C7644"/>
<path d="M50.0336 29.7622C49.2767 28.7132 48.5768 27.6184 47.968 26.4778C47.2851 25.1996 46.7104 23.8698 46.2381 22.4999C46.1072 22.1216 45.4471 22.3279 45.5666 22.7177C46.3178 25.1365 47.3819 27.458 48.7931 29.5616C48.9695 29.831 49.1572 30.0946 49.345 30.3526C49.5044 30.5704 49.6978 30.8512 49.9937 30.8455C50.1929 30.8455 50.3238 30.7309 50.3693 30.536C50.4262 30.2494 50.1872 29.9742 50.0336 29.7622Z" fill="#5C7644"/>
<path d="M66.1995 28.9883C66.0914 28.3292 65.9719 27.67 65.8581 27.0166C65.4086 24.3856 64.9363 21.7547 64.4754 19.118C63.5365 13.8218 62.5634 8.53125 61.5904 3.24072C61.5164 2.84522 60.8335 2.96559 60.8961 3.36682C61.5847 7.74025 62.2675 12.1194 62.9845 16.4928C63.343 18.6538 63.6958 20.8204 64.0543 22.9813C64.2307 24.0647 64.4128 25.1423 64.5949 26.2256C64.6916 26.7873 64.7883 27.3548 64.8851 27.9165L65.0046 28.6215C65.0273 28.7648 65.0501 28.9024 65.0785 29.0457C65.0672 29.1488 65.0785 29.2176 65.1013 29.2692C65.0387 29.3036 64.9818 29.3552 64.9363 29.4297C64.5437 30.0659 65.4313 30.6219 65.9549 30.2207C66.3532 29.9284 66.2678 29.4125 66.1995 28.9883Z" fill="#5C7644"/>
<path d="M77.5633 20.8491C77.1991 22.603 76.835 24.357 76.4537 26.111C76.2659 26.9879 76.0725 27.8649 75.8847 28.7362C75.6969 29.6017 75.4408 30.4844 75.3327 31.3671C75.2644 31.9517 76.1863 32.2613 76.3627 31.6537C76.6017 30.8168 76.7155 29.9399 76.8748 29.0858C77.0455 28.1744 77.2162 27.2573 77.3869 26.346C77.7226 24.5519 78.0698 22.7635 78.4226 20.9695C78.5364 20.4135 77.6771 20.2988 77.5633 20.8491Z" fill="#5C7644"/>
<path d="M95.0211 27.7102C91.9427 29.7966 89.2284 32.4963 86.7303 35.2419C86.4799 35.517 86.9465 35.9641 87.2026 35.6947C88.4829 34.3477 89.8145 33.058 91.2029 31.8314C92.5914 30.599 94.0481 29.4469 95.4593 28.249C95.8064 27.9566 95.3853 27.4637 95.0211 27.7102Z" fill="#5C7644"/>
<path d="M124.742 36.8239C123.552 36.8926 122.375 37.2824 121.242 37.6091C120.042 37.9588 118.847 38.3428 117.652 38.7268C115.307 39.4835 112.986 40.3031 110.681 41.1686C106.077 42.8997 101.565 44.8542 97.1379 46.998C96.7681 47.1756 97.0696 47.8291 97.4509 47.6571C101.935 45.6338 106.504 43.7766 111.125 42.0972C113.395 41.2718 115.688 40.4923 117.987 39.7529C119.182 39.3688 120.383 39.0077 121.578 38.6351C122.71 38.2855 123.894 37.9932 124.947 37.4372C125.237 37.2767 125.049 36.8067 124.742 36.8239Z" fill="#5C7644"/>
<path d="M109.901 55.3035C106.595 55.699 103.317 56.2893 100.034 56.8568C99.5618 56.9371 99.596 57.6879 100.08 57.6191C103.408 57.1377 106.737 56.6734 110.038 56.0142C110.436 55.934 110.305 55.2576 109.901 55.3035Z" fill="#5C7644"/>
<path d="M133.75 70.0688C132.532 69.7765 131.286 69.7306 130.04 69.6389C128.742 69.5414 127.445 69.4555 126.147 69.3523C123.462 69.1345 120.781 68.8651 118.107 68.5556C112.889 67.9594 107.694 67.1742 102.521 66.2685C101.992 66.1768 101.793 66.9908 102.333 67.0997C107.523 68.1601 112.752 68.9855 118.004 69.6274C120.542 69.9369 123.086 70.1891 125.63 70.407C126.927 70.5159 128.224 70.6248 129.522 70.705C130.904 70.791 132.31 70.9114 133.687 70.7222C134.04 70.6764 134.137 70.1662 133.75 70.0688Z" fill="#5C7644"/>
<path d="M114.42 82.6445C109.719 80.5237 104.61 79.5379 99.4711 79.4633C98.9533 79.4576 98.9078 80.2544 99.4313 80.2773C104.49 80.4836 109.435 81.6759 114.152 83.4986C114.698 83.7107 114.932 82.8738 114.42 82.6445Z" fill="#5C7644"/>
<path d="M25.5988 80.6556C23.2259 81.1198 20.9498 81.8249 18.8045 82.9598C18.4176 83.1604 18.6338 83.7852 19.0549 83.6132C21.2002 82.7305 23.4194 81.9338 25.6842 81.4179C26.1565 81.3033 26.0825 80.5581 25.5988 80.6556Z" fill="#5C7644"/>
<path d="M25.0469 62.4969C24.5974 62.4855 24.1422 62.4568 23.6926 62.4224C23.2431 62.388 22.7935 62.325 22.3554 62.2333C21.9684 62.153 21.8433 62.7606 22.2302 62.8409C22.7025 62.9326 23.1805 62.9956 23.6585 63.03C23.8861 63.0472 24.1251 63.0644 24.3527 63.0529C24.5917 63.0415 24.8307 63.0128 25.0697 62.9784C25.3826 62.9383 25.3542 62.5027 25.0469 62.4969Z" fill="#5C7644"/>
<path d="M30.3847 43.5817C30.214 43.4212 30.0433 43.2665 29.8612 43.1174C29.6677 42.9627 29.4458 42.8309 29.2353 42.699C28.837 42.4583 28.4159 42.2462 27.9834 42.0685C27.807 41.994 27.5965 42.0628 27.5168 42.2405C27.4371 42.4067 27.5111 42.636 27.6875 42.7105C28.1086 42.8824 28.5126 43.0888 28.9052 43.3238C29.2694 43.5416 29.6393 43.7881 29.9978 44.0517C30.3164 44.281 30.6692 43.8511 30.3847 43.5817Z" fill="#5C7644"/>
<path d="M61.7951 27.3319C61.5277 26.5007 61.3911 25.6008 61.448 24.7238C61.4594 24.5118 61.3399 24.3169 61.118 24.2825C60.9245 24.2538 60.6969 24.4029 60.6798 24.6149C60.6115 25.6352 60.7424 26.6383 61.1408 27.5898C61.3172 28.0139 61.9317 27.7617 61.7951 27.3319Z" fill="#5C7644"/>
<path d="M75.9018 44.0174C75.6685 43.9085 75.4409 43.8053 75.1962 43.7308C74.9857 43.662 74.7752 43.6104 74.5589 43.5531C74.1208 43.4327 73.6769 43.3124 73.2388 43.1863C73.0282 43.1289 72.7778 43.278 72.738 43.4958C72.6925 43.7308 72.8234 43.9371 73.0453 44.0002C73.4721 44.132 73.9045 44.2639 74.3313 44.3957C74.5418 44.4587 74.7524 44.5333 74.9629 44.5848C75.1849 44.6422 75.4125 44.6708 75.6401 44.7052C75.8222 44.7281 76.0043 44.6594 76.0669 44.4759C76.1295 44.3097 76.0726 44.0919 75.9018 44.0174Z" fill="#5C7644"/>
<path d="M83.3278 83.2521C83.2026 83.0744 82.992 83.0687 82.8213 83.1661C82.3604 83.4298 81.8938 83.6935 81.4329 83.9571C80.9663 84.2208 80.5224 84.5017 80.0729 84.794C79.9363 84.88 79.9022 85.0806 79.9762 85.2181C80.0502 85.35 80.2322 85.4532 80.3802 85.3729C80.8753 85.1207 81.3646 84.8685 81.8426 84.5876C82.3092 84.3125 82.7758 84.0431 83.2481 83.768C83.4131 83.6648 83.4359 83.4011 83.3278 83.2521Z" fill="#5C7644"/>
<path d="M99.1584 91.1507C97.8155 90.0158 96.1027 89.3394 94.4411 88.8178C93.8891 88.6458 93.6217 89.4884 94.168 89.6776C94.9532 89.9527 95.7214 90.268 96.4612 90.6405C97.2237 91.0246 97.9691 91.4315 98.7487 91.7927C99.1015 91.9531 99.4486 91.3971 99.1584 91.1507Z" fill="#5C7644"/>
<path d="M40.2117 87.7402C40.0922 87.551 39.7906 87.465 39.6028 87.6141C38.9427 88.1357 38.2883 88.6515 37.6282 89.1731C37.3039 89.4311 36.9795 89.689 36.6609 89.9527C36.3251 90.2278 36.0236 90.5431 35.7049 90.8469C35.4204 91.1163 35.8358 91.5691 36.1488 91.3627C36.4902 91.1392 36.8487 90.9271 37.173 90.6749C37.5031 90.4227 37.8274 90.1705 38.1461 89.9068C38.7891 89.391 39.4378 88.8694 40.0808 88.3535C40.2742 88.2045 40.3539 87.9523 40.2117 87.7402Z" fill="#5C7644"/>
</svg>
