<svg width="140" height="140" viewBox="0 0 140 140" fill="none" xmlns="http://www.w3.org/2000/svg">
<path d="M82.1044 62.6264C80.8963 61.4458 79.7019 60.2516 78.4938 59.071C78.1457 58.7298 77.784 58.45 77.4018 58.3204C77.4154 57.9587 77.1151 57.6243 76.767 57.5902L76.6032 57.3923C75.9412 56.6075 74.699 57.5833 75.3474 58.3818C75.4088 58.4568 75.4771 58.5387 75.5385 58.6138C73.4909 60.975 71.6003 63.5136 70.0237 66.2092C68.686 67.9971 67.3823 69.7987 66.1128 71.6412C64.4816 68.9252 62.9323 66.1614 61.4853 63.343C61.1987 62.7834 60.3319 62.7766 60.0315 63.3293C58.2024 66.6596 56.5029 70.0512 54.9399 73.5111C54.5031 74.4801 55.9432 75.34 56.3869 74.3573C56.4005 74.33 56.4073 74.3095 56.421 74.2822C60.2022 75.5993 63.6148 77.8445 66.2016 80.9154C66.5497 81.3248 67.1981 81.1679 67.4574 80.7584C67.5393 80.6287 67.628 80.5059 67.7099 80.3831C68.0853 80.4445 68.5085 80.2875 68.645 79.8167C68.8225 79.2161 69.0477 78.6565 69.3002 78.1106C71.8938 74.6439 75.0334 71.6276 78.6235 69.205C79.2583 68.816 79.8862 68.4339 80.5073 68.0585C81.1284 67.6832 81.7495 67.301 82.3706 66.9121C82.8893 66.5845 83.5104 66.2706 83.7766 65.6905C84.3635 64.3666 82.9029 63.4112 82.1044 62.6264ZM56.8919 73.2449C56.9807 73.0539 57.0762 72.8628 57.1649 72.6717C58.9463 73.4224 60.639 74.3778 62.202 75.5106C60.5571 74.5142 58.7757 73.7431 56.8919 73.2449ZM57.7519 71.457C58.7074 69.4643 59.6971 67.4785 60.7414 65.5336C62.1815 68.2701 63.7035 70.9656 65.3211 73.6066C65.6692 74.1799 66.4268 74.1662 66.7954 73.6203C69.6278 69.4507 72.6582 65.4244 75.8661 61.5346C76.5418 62.4012 77.2175 63.2679 77.9 64.1278C75.7501 65.5063 73.8117 67.3215 72.1668 69.1913C70.3581 71.2454 68.8429 73.5588 67.6758 76.036C67.3892 76.5274 67.1093 77.0324 66.85 77.5442C64.2768 74.8827 61.1918 72.815 57.7519 71.457Z" fill="#5C7644"/>
<path d="M113.392 75.415C114.702 74.5688 116.258 74.057 117.337 72.8764C119.985 69.9557 118.34 65.6223 115.562 63.4999C114.825 62.9335 114.02 62.4627 113.18 62.0669C112.32 61.6642 111.317 61.3503 110.703 60.5792C110.02 59.7125 110.17 58.6138 110.484 57.6311C111.276 55.1812 112.989 53.1339 113.719 50.6567C114.484 48.0704 113.235 45.4703 110.43 44.9995C107.706 44.5491 102.813 46.494 101.7 42.8294C101.154 41.0346 101.721 39.117 102.301 37.4109C103.031 35.2818 103.843 33.0161 103.229 30.7505C102.594 28.4166 100.506 28.867 98.6833 29.4402C96.5129 30.1295 94.4517 31.2214 92.2062 31.6649C90.4384 32.013 88.3431 31.9515 86.8415 30.8392C85.5311 29.8633 85.0533 28.2255 84.7052 26.7037C84.0773 23.9945 83.7292 20.4937 80.6442 19.4632C76.3853 18.0369 73.5255 22.7661 70.7749 25.0386C69.3416 26.2192 67.5124 27.0995 65.7311 26.1373C64.5708 25.5095 63.7381 24.3903 62.96 23.3598C61.4858 21.4013 59.7726 18.8013 56.9674 19.0811C54.3943 19.3404 53.2477 21.722 52.5037 23.899C51.8076 25.9394 51.4253 28.8875 49.5757 30.2728C47.1391 32.0949 44.3953 29.1946 42.5389 27.8502C41.4605 27.0722 40.2865 26.342 38.9283 26.2192C37.3858 26.0827 35.9525 26.7993 35.0516 28.0481C32.6559 31.3783 34.451 35.3295 33.7138 39.001C33.6115 39.4923 33.434 39.9427 33.1951 40.3522C32.7378 40.2157 32.1782 40.4614 32.2669 41.0619C32.301 41.2803 32.2669 41.4577 32.185 41.5942C32.0417 41.717 31.8915 41.833 31.7345 41.9422C31.168 42.1469 30.308 42.0378 29.8644 41.9832C28.8679 41.8535 27.9056 41.7921 26.9705 42.222C26.9022 42.2561 26.834 42.2971 26.7657 42.338C26.5064 42.2015 26.2539 42.0514 26.0081 41.8603C25.4621 41.4304 24.7455 42.2152 25.2847 42.6724C25.4485 42.8089 25.6191 42.9385 25.7966 43.0546C24.9844 43.8462 24.4588 44.9449 24.2609 46.0504C23.9128 48.0362 24.6431 49.9743 25.5304 51.7213C26.0218 52.6835 26.7111 53.6185 27.0797 54.6421C27.4619 55.6794 27.1275 56.3959 26.2197 56.9555C24.8956 57.7744 23.319 58.0542 22.0973 59.0642C20.9233 60.0401 20.1248 61.3708 19.7084 62.8312C18.8621 65.7861 19.7221 69.0071 22.1587 70.9179C23.4077 71.9006 25.1618 72.699 25.9945 74.1116C27.0797 75.9473 24.841 77.4555 23.7626 78.6497C21.2578 81.4272 19.5037 85.4671 21.599 89.0021C22.6501 90.7764 24.4656 91.3769 26.3085 92.0047C27.2299 92.3186 28.199 92.7076 28.827 93.4856C29.5573 94.3932 29.2433 95.2872 28.7041 96.2016C27.8373 97.6825 27.264 99.1838 27.3664 100.938C27.4619 102.446 28.0694 103.995 29.3184 104.909C30.9906 106.138 33.045 105.81 34.9424 105.394C36.13 105.135 37.3107 104.923 38.5256 104.848C39.0648 104.814 39.604 104.8 40.15 104.814C40.778 104.827 41.6448 104.766 42.2181 105.094C43.0917 105.599 42.7027 106.8 42.6071 107.619C42.5116 108.431 42.4638 109.256 42.4843 110.075C42.5252 111.659 42.8119 113.289 43.5831 114.695C44.2657 115.937 45.4123 116.872 46.7978 117.179C48.3949 117.541 49.9647 116.995 51.3912 116.299C53.8483 115.084 57.0835 112.532 59.4245 115.33C61.1718 117.418 61.6427 120.55 64.0998 122.038C65.6423 122.966 67.5056 122.727 68.9867 121.786C70.734 120.673 71.71 118.858 72.686 117.097C73.3958 115.821 74.5561 113.365 76.3989 113.815C77.6479 114.122 78.6581 115.296 79.5727 116.122C80.5691 117.022 81.6475 117.923 82.958 118.326C84.5005 118.797 86.0635 118.298 87.2033 117.193C88.3977 116.033 89.0666 114.375 89.4966 112.798C89.9538 111.126 90.22 109.297 91.2643 107.857C93.5098 104.752 97.3114 107.673 100.001 108.431C101.516 108.861 103.154 108.785 104.417 107.762C105.666 106.752 106.102 105.182 106.164 103.64C106.239 101.825 105.672 100.126 105.352 98.3581C105.051 96.7203 104.853 94.5979 106.239 93.3764C107.515 92.2436 109.522 92.3596 111.105 92.1753C112.668 91.9911 114.313 91.6089 115.385 90.3533C116.572 88.9543 116.675 87.0162 116.245 85.3033C115.719 83.2151 114.272 81.5364 113.16 79.7484C112.682 78.9773 111.979 77.9673 112.109 77.0119C112.231 76.2612 112.812 75.7904 113.392 75.415ZM110.621 78.0833C110.928 79.339 111.651 80.4513 112.402 81.5364C112.293 81.4886 112.19 81.4272 112.081 81.3931C111.672 81.2566 111.399 81.9185 111.795 82.1028C112.095 82.2393 112.279 82.3758 112.484 82.6283C112.491 82.6419 112.532 82.6897 112.532 82.6897C112.559 82.7238 112.58 82.7579 112.607 82.7989C112.648 82.8603 112.682 82.9217 112.716 82.9899C112.757 83.065 112.798 83.1401 112.832 83.2151C112.832 83.222 112.839 83.2288 112.839 83.2356C112.853 83.2766 112.873 83.3175 112.887 83.3584C112.914 83.4335 112.934 83.5154 112.955 83.5905C112.962 83.6246 112.969 83.6587 112.982 83.6997C112.982 83.7065 112.989 83.7474 112.996 83.7747C112.996 83.7952 113.003 83.8361 113.003 83.843C113.01 83.8839 113.01 83.9317 113.016 83.9726C113.023 84.0545 113.03 84.1296 113.03 84.2115C113.03 84.3684 113.01 84.5254 113.003 84.6892C113.003 84.696 113.003 84.6892 113.003 84.696C113.003 84.7028 113.003 84.7028 113.003 84.7096C112.996 84.7506 112.989 84.7984 112.975 84.8393C112.955 84.9212 112.934 85.0099 112.914 85.0918C112.859 85.3102 112.975 85.5354 113.18 85.6173C113.405 85.706 113.603 85.6104 113.74 85.4262C114.006 85.0645 114.115 84.6346 114.115 84.1978C114.866 85.6923 115.357 87.6304 114.347 89.0771C113.378 90.4556 111.447 90.5034 109.931 90.6467C108.355 90.79 106.662 90.9743 105.379 92.0047C102.308 94.4683 104.007 98.5696 104.451 101.757C104.662 103.244 104.765 105.278 103.529 106.383C102.342 107.455 100.69 106.977 99.3727 106.452C96.547 105.326 93.2504 103.585 90.6159 106.117C88.0291 108.601 88.6161 112.655 86.5685 115.432C85.6608 116.667 84.3094 117.234 82.8761 116.545C81.6475 115.958 80.6852 114.92 79.6682 114.033C78.7468 113.235 77.7025 112.396 76.4603 112.218C74.7882 111.979 73.4914 113.057 72.5631 114.34C71.3141 116.074 70.5975 118.244 69.0345 119.738C67.7718 120.946 65.929 121.56 64.4889 120.312C62.4413 118.544 62.0795 115.473 60.0388 113.651C57.4179 111.31 54.3124 112.928 51.712 114.354C50.4152 115.071 48.9068 115.924 47.3643 115.678C45.8969 115.446 44.9891 114.272 44.5387 112.928C44.0404 111.447 43.9722 109.809 44.1155 108.26C44.2725 106.52 44.7503 104.452 42.7163 103.626C41.9041 103.299 40.9759 103.292 40.1091 103.272C38.8123 103.244 37.5087 103.34 36.2255 103.558C34.3486 103.872 31.7345 104.957 30.0965 103.483C28.9976 102.494 28.8065 100.774 29.0659 99.3954C29.3866 97.6688 30.9564 96.3176 30.8677 94.5092C30.7722 92.5916 28.9976 91.3428 27.3595 90.7354C25.5235 90.053 23.5511 89.6708 22.6706 87.7055C21.872 85.9175 22.2065 83.9044 23.0869 82.2188C24.0698 80.3353 25.7283 79.1274 26.9705 77.4555C27.9465 76.1384 28.124 74.4938 27.1753 73.1085C26.2265 71.7231 24.6704 70.911 23.3668 69.9147C20.9097 68.0449 20.2545 64.7897 21.6536 62.0327C22.3703 60.6201 23.4965 59.808 24.9229 59.2211C26.2948 58.6547 27.9397 58.0747 28.5744 56.6007C29.4003 54.683 27.81 52.7518 26.9637 51.1344C26.0423 49.3874 25.2369 47.2992 26.0627 45.3611C26.3289 44.7265 26.7589 44.1396 27.3527 43.7643C28.7587 44.1874 30.3149 44.0782 31.6663 43.4845C32.5126 43.2934 33.2975 42.8362 33.6319 42.0992C36.3552 39.2125 34.6011 35.0156 35.1608 31.5353C35.4065 30.0066 36.0958 28.1709 37.7339 27.6796C39.1536 27.2565 40.5254 28.0686 41.6311 28.8738C43.7401 30.4093 46.0198 32.8114 48.8932 32.1426C51.3025 31.583 52.3468 29.1673 53.0702 27.0517C53.7255 25.1273 54.1145 22.1383 55.971 20.9441C58.3257 19.4223 60.305 22.2338 61.5199 23.858C63.2194 26.1305 65.3079 28.635 68.4953 27.9321C72.5836 27.0381 74.1602 22.3362 77.9755 20.9987C79.6204 20.4254 81.2107 21.0396 82.0024 22.5819C82.6781 23.8921 82.8624 25.4481 83.1764 26.8675C83.4972 28.3211 83.9135 29.8429 84.8554 31.0303C85.9474 32.4088 87.5787 33.1458 89.2986 33.3437C91.2302 33.5621 93.1071 33.1594 94.9226 32.5248C95.9737 32.1563 96.9975 31.7263 98.0418 31.3442C98.5127 31.1736 98.9905 31.0098 99.4751 30.8597C99.9596 30.7164 100.629 30.4297 101.154 30.5048C102.178 30.6549 101.837 33.0844 101.707 33.7736C101.482 34.9474 101.065 36.0734 100.683 37.1994C100.11 38.8918 99.7003 40.6729 99.987 42.4609C100.239 44.0304 101.093 45.4703 102.574 46.1596C104.041 46.842 105.7 46.7192 107.269 46.5963C108.682 46.4871 110.566 46.1869 111.685 47.2924C112.484 48.084 112.491 49.1281 112.211 50.1586C111.549 52.5812 109.863 54.6148 109.037 56.9828C108.675 58.0269 108.471 59.1666 108.785 60.2516C109.228 61.8075 110.573 62.6333 111.958 63.2611C113.781 64.08 115.589 65.1651 116.531 67.0076C117.323 68.5567 117.303 70.7063 115.978 71.9688C113.992 73.8591 109.713 74.3982 110.621 78.0833Z" fill="#5C7644"/>
<path d="M83.0256 50.3906C82.3431 49.947 81.6469 49.5239 80.9098 49.1486C75.5998 46.4462 69.5185 46.3302 63.7102 46.9375C58.7005 47.463 53.3631 48.3911 49.1997 51.4279C48.2169 52.1444 47.3569 53.0043 46.6198 53.9665C46.3331 54.335 46.456 54.7376 46.7222 54.956C46.5379 55.1676 46.3468 55.3655 46.1761 55.5838C46.0806 55.3313 45.6642 55.1812 45.4936 55.4678C39.9993 64.6873 39.5284 76.5206 43.7259 86.3474C45.8963 91.4383 49.2202 96.1129 54.4756 98.283C59.4922 100.358 65.3892 100.521 70.7129 99.7639C76.685 98.9108 82.6775 96.6247 86.8955 92.1958C87.0525 92.032 87.0252 91.8341 86.916 91.684C87.2095 91.4247 87.503 91.1585 87.7828 90.8787C89.4687 89.1863 90.7859 87.1459 91.8643 85.0167C94.0689 80.6697 95.3657 75.7972 95.3725 70.9042C95.3725 62.5582 90.9224 53.8437 83.0256 50.3906ZM76.8147 49.3124C77.4835 49.5034 78.1251 49.7423 78.7598 50.0016C78.7598 50.2814 78.91 50.5748 79.2649 50.6909C80.3569 51.0389 81.408 51.4688 82.4182 51.9738C88.2674 55.9182 92.0827 62.7629 92.3625 69.8465C92.7584 79.8713 86.7044 89.5821 77.545 93.663C73.0198 95.683 67.935 96.2903 63.1232 95.0142C58.6117 93.82 54.462 91.022 51.8343 87.1391C48.7697 82.5941 48.2578 76.9983 47.978 71.6685C47.7323 66.9735 47.3433 61.7871 49.4659 57.4264C49.9778 56.3686 50.633 55.4132 51.4316 54.5465C51.8343 54.1166 51.1517 53.5434 50.7491 53.9528C47.1726 57.5492 46.5857 62.8585 46.6198 67.69C46.6607 73.3132 46.7836 79.414 48.9881 84.6687C50.9333 89.3023 54.6872 92.9601 59.226 95.0688C62.0858 96.3995 65.1571 97.0615 68.2558 97.0888C65.4097 97.5392 62.4953 97.6688 59.656 97.2526C55.7724 96.6861 52.1551 95.0006 49.4932 92.073C46.5788 88.8588 44.9544 84.6346 43.8556 80.4991C42.4905 75.3468 42.0469 69.8396 43.3437 64.6259C44.4767 60.0673 46.9474 55.7954 50.6125 52.8132C50.7695 52.6835 50.8241 52.5198 50.8173 52.3628C53.6566 50.5885 56.96 49.6399 60.3044 49.094C65.71 48.2205 71.4978 47.7633 76.8147 49.3124ZM83.4147 91.8887C85.6602 90.1622 87.6327 88.0876 89.2434 85.7537C87.776 88.19 85.8922 90.3464 83.4147 91.8887Z" fill="#5C7644"/>
<path d="M50.3739 42.0514C48.2649 41.9217 46.1763 42.8362 44.4837 44.0372C42.7501 45.2588 41.3782 46.9307 40.4909 48.862C40.2179 49.4557 41.1734 49.7628 41.4533 49.1895C42.2791 47.4698 43.5896 45.9821 45.1594 44.9107C46.7633 43.812 48.5652 43.2661 50.4285 42.8021C50.8312 42.686 50.8039 42.0719 50.3739 42.0514Z" fill="#5C7644"/>
<path d="M70.2079 37.4041C68.72 37.1448 67.0819 37.5201 65.6145 37.8135C64.072 38.1138 62.55 38.5164 61.0553 38.9873C60.4615 39.1716 60.7549 40.0655 61.3487 39.9017C62.823 39.4991 64.3109 39.1716 65.8125 38.9191C66.5428 38.7962 67.2799 38.6802 68.017 38.5847C68.7746 38.4891 69.5254 38.4072 70.242 38.1479C70.5833 38.0319 70.6038 37.4723 70.2079 37.4041Z" fill="#5C7644"/>
<path d="M87.1075 41.9286C85.0872 40.9117 82.9714 40.0519 80.9102 39.1238C80.2754 38.8372 79.6953 39.7516 80.3368 40.0655C82.1728 40.9527 84.002 41.8467 85.838 42.7338C86.5 43.0546 87.1757 43.4026 87.7286 43.9008C88.179 44.3034 88.65 44.8357 88.5271 45.484C88.3975 46.1869 89.4076 46.5076 89.6123 45.7911C90.1311 43.9963 88.5408 42.6451 87.1075 41.9286Z" fill="#5C7644"/>
<path d="M94.6973 50.2336C94.2809 49.7082 93.5506 50.4111 93.9397 50.9365C94.8679 52.199 95.6187 53.5911 96.1715 55.0584C96.7244 56.5187 97.052 58.0542 97.3728 59.576C97.4888 60.1151 98.342 60.0537 98.342 59.4873C98.3351 56.1366 96.7449 52.8268 94.6973 50.2336Z" fill="#5C7644"/>
<path d="M100.765 65.2879C100.56 64.7419 99.755 65.0968 99.9393 65.6359C100.82 68.2428 101.045 70.9861 101.079 73.7226C101.086 74.2003 101.823 74.1525 101.891 73.7158C102.328 70.8633 101.775 67.963 100.765 65.2879Z" fill="#5C7644"/>
<path d="M98.7379 85.0372C97.6118 87.7805 95.9123 90.1622 94.0695 92.4688C93.7623 92.851 94.3288 93.4174 94.6974 93.0762C96.977 91.0084 98.5741 88.2582 99.673 85.3989C99.905 84.8052 98.9836 84.4435 98.7379 85.0372Z" fill="#5C7644"/>
<path d="M87.0803 98.713C83.538 100.631 79.7773 102.152 75.9551 103.429C75.4159 103.606 75.648 104.425 76.2008 104.282C80.2141 103.244 84.0089 101.613 87.6263 99.6069C88.2201 99.2725 87.6741 98.3922 87.0803 98.713Z" fill="#5C7644"/>
<path d="M65.3627 104.998C64.8235 104.814 64.2706 104.8 63.711 104.718C63.1718 104.636 62.6326 104.514 62.107 104.35C61.0696 104.022 60.0936 103.497 59.2541 102.807C58.7013 102.357 57.9573 103.156 58.5033 103.62C59.4589 104.438 60.5509 105.059 61.7385 105.483C62.3118 105.687 62.8919 105.831 63.4926 105.906C64.1341 105.988 64.7894 106.035 65.3968 105.769C65.7654 105.605 65.7517 105.128 65.3627 104.998Z" fill="#5C7644"/>
<path d="M47.5889 98.7402C46.5582 97.9282 45.4867 97.1638 44.4902 96.304C43.5005 95.4578 42.586 94.5229 41.7465 93.5265C41.3028 93.0011 40.477 93.6698 40.9138 94.1953C41.7942 95.2531 42.7566 96.2426 43.794 97.1502C44.8315 98.0578 45.9303 98.8699 47.1793 99.4636C47.6298 99.682 47.9506 99.02 47.5889 98.7402Z" fill="#5C7644"/>
<path d="M37.0579 74.9305C37.0852 73.5179 37.3719 72.1326 37.406 70.7268C37.4196 70.2286 36.7576 70.1194 36.5733 70.563C36.0068 71.9142 35.9659 73.4906 35.9863 74.9442C36 76.425 36.1706 77.9059 36.4914 79.3526C36.6279 79.9531 37.5493 79.7757 37.4333 79.1684C37.1603 77.7694 37.0238 76.35 37.0579 74.9305Z" fill="#5C7644"/>
<path d="M42.2047 51.578C40.6554 52.6221 39.461 54.2394 38.4576 55.7954C37.4339 57.3854 36.649 59.0983 36.0688 60.8931C35.8982 61.4322 36.8196 61.7461 37.0107 61.2138C37.6181 59.535 38.4235 57.9177 39.4337 56.4437C40.4574 54.956 41.7269 53.7208 42.8804 52.3491C43.2558 51.9056 42.6961 51.2436 42.2047 51.578Z" fill="#5C7644"/>
<path d="M11.2449 60.6747C10.617 60.4495 9.83211 60.5928 9.17689 60.6406C8.52849 60.6952 7.88692 60.7634 7.24535 60.8521C5.8803 61.0432 4.53573 61.3298 3.21163 61.6983C2.86354 61.7939 2.97957 62.3262 3.33448 62.2511C4.63128 61.9645 5.94173 61.7529 7.259 61.6164C7.9347 61.5482 8.6104 61.5004 9.28609 61.4731C9.90037 61.4527 10.6307 61.5414 11.2176 61.3366C11.5248 61.2206 11.593 60.7975 11.2449 60.6747Z" fill="#5C7644"/>
<path d="M18.6709 34.5584C17.886 33.2481 16.4527 32.2791 15.1696 31.5011C13.8318 30.6822 12.3849 30.0407 10.8901 29.5699C10.2827 29.3788 10.0233 30.3205 10.624 30.5116C12.0368 30.9757 13.3814 31.6035 14.6372 32.3951C15.2446 32.7773 15.8316 33.2004 16.3981 33.6439C16.9919 34.1012 17.5447 34.6266 18.1863 35.0224C18.4798 35.1999 18.8484 34.8518 18.6709 34.5584Z" fill="#5C7644"/>
<path d="M35.1739 17.8868C34.778 16.6789 34.1569 15.5597 33.5563 14.4406C32.9557 13.3214 32.3551 12.1954 31.7544 11.0762C31.3859 10.387 30.3484 11.0012 30.7102 11.6836C31.304 12.8096 31.9046 13.9356 32.4984 15.0616C33.0922 16.1807 33.6792 17.3067 34.4572 18.3099C34.7302 18.6443 35.2967 18.269 35.1739 17.8868Z" fill="#5C7644"/>
<path d="M57.888 3.84254C57.8197 3.22154 56.8506 3.27613 56.912 3.90396C57.1577 6.66777 57.2669 9.48618 57.8402 12.2022C57.9426 12.6731 58.6115 12.4752 58.6183 12.0453C58.6388 9.31557 58.1883 6.56541 57.888 3.84254Z" fill="#5C7644"/>
<path d="M82.8421 2.61418C82.726 2.23202 82.4189 1.93858 81.9889 2.01364C81.634 2.07506 81.2791 2.47769 81.3883 2.86667C81.9821 4.86617 81.7841 6.92709 81.1562 8.89929C81.0675 9.17908 81.1562 9.493 81.4292 9.6363C81.6681 9.75914 82.0435 9.72502 82.1937 9.4657C82.5008 8.93341 82.7601 8.40112 82.9171 7.80741C83.0673 7.24783 83.1833 6.67459 83.2174 6.09453C83.3062 4.91394 83.1833 3.73335 82.8421 2.61418Z" fill="#5C7644"/>
<path d="M114.388 16.597C111.501 18.0642 108.819 19.9273 106.095 21.6674C105.515 22.0428 105.979 23.0186 106.573 22.6433C109.351 20.9031 112.224 19.2517 114.818 17.2453C115.173 16.9724 114.777 16.3991 114.388 16.597Z" fill="#5C7644"/>
<path d="M132.004 43.4367C128.878 44.6309 125.725 45.7433 122.38 46.1527C121.609 46.2483 121.596 47.4698 122.38 47.3811C125.841 46.9716 129.342 46.0913 132.318 44.2215C132.714 43.9758 132.482 43.2524 132.004 43.4367Z" fill="#5C7644"/>
<path d="M134.543 65.7587C131.465 66.4685 128.414 67.301 125.322 67.9357C124.797 68.0449 124.851 68.8638 125.404 68.7819C128.626 68.3383 131.806 67.7378 134.877 66.6459C135.464 66.4343 135.116 65.6223 134.543 65.7587Z" fill="#5C7644"/>
<path d="M135.676 96.4814C133.076 95.2258 130.421 94.1134 127.766 92.9874C127.138 92.7213 126.817 93.7244 127.438 93.9906C130.046 95.1166 132.646 96.2562 135.308 97.2525C135.758 97.4163 136.12 96.693 135.676 96.4814Z" fill="#5C7644"/>
<path d="M115.534 117.091C115.364 116.606 115.125 116.176 114.804 115.773C114.217 115.023 113.371 114.463 112.449 114.218C111.842 114.054 111.569 115.002 112.176 115.159C112.586 115.269 112.859 115.391 113.227 115.637C113.419 115.767 113.494 115.821 113.651 115.971C113.801 116.115 113.944 116.265 114.074 116.429C114.531 117.002 114.865 117.78 114.975 118.551C115.036 118.974 115.664 118.865 115.691 118.469C115.719 118.005 115.691 117.52 115.534 117.091Z" fill="#5C7644"/>
<path d="M90.0351 125.054C89.9191 124.399 88.9226 124.652 89.0318 125.307C89.4345 127.668 89.8167 130.022 90.3491 132.356C90.4719 132.909 91.25 132.684 91.1886 132.145C90.8883 129.763 90.4514 127.416 90.0351 125.054Z" fill="#5C7644"/>
<path d="M65.8266 129.497C65.7789 129.19 65.383 129.026 65.11 129.108C64.7824 129.204 64.6663 129.517 64.7209 129.825C65.1305 132.363 65.2192 134.95 65.1168 137.515C65.0895 138.205 66.1133 138.15 66.1747 137.488C66.4068 134.813 66.243 132.138 65.8266 129.497Z" fill="#5C7644"/>
<path d="M38.7367 123.171C36.3684 124.952 34.1638 126.972 32.4507 129.401C32.1094 129.893 32.7851 130.35 33.181 129.941C35.1671 127.88 37.2011 125.846 39.4807 124.106C40.0881 123.635 39.351 122.707 38.7367 123.171Z" fill="#5C7644"/>
<path d="M21.5581 108.328C21.2237 108.608 20.7459 108.785 20.3569 108.983C20.0361 109.147 19.7221 109.311 19.4014 109.475C18.7461 109.816 18.0909 110.171 17.4493 110.532C16.1252 111.269 14.8489 112.061 13.5794 112.887C13.129 113.18 13.5043 113.931 13.9821 113.638C15.2994 112.839 16.5894 112.007 17.8452 111.113C18.4458 110.683 19.0533 110.253 19.6471 109.809L20.4934 109.168C20.8415 108.908 21.2032 108.553 21.5991 108.376C21.64 108.369 21.5991 108.294 21.5581 108.328Z" fill="#5C7644"/>
<path d="M13.3748 85.7128C10.1328 85.6104 6.88401 85.8697 3.64884 86.0404C2.97997 86.0745 3.02092 87.1186 3.69662 87.0845C6.93861 86.9275 10.1943 86.8661 13.4089 86.4362C13.8662 86.3816 13.8389 85.7333 13.3748 85.7128Z" fill="#5C7644"/>
<path d="M11.4903 71.7368C11.4084 71.5525 11.2241 71.4843 11.0398 71.5457C10.876 71.5935 10.7122 71.6344 10.5552 71.7026C10.4051 71.7641 10.2549 71.8323 10.098 71.8937C9.79082 72.0234 9.48368 72.153 9.16972 72.2827C8.98544 72.3578 8.86941 72.5898 8.95814 72.7809C9.04004 72.9651 9.25845 73.0811 9.45638 72.9992C9.76352 72.8696 10.0775 72.7399 10.3846 72.6171C10.5348 72.5557 10.6917 72.4942 10.8419 72.426C10.9989 72.3578 11.149 72.269 11.2992 72.1872C11.4562 72.1053 11.5722 71.921 11.4903 71.7368Z" fill="#5C7644"/>
<path d="M13.8932 43.1842C13.4701 42.9726 13.0537 42.7543 12.6169 42.57L11.3133 42.0036C11.1358 41.9285 10.9174 41.9695 10.8219 42.1537C10.7332 42.3175 10.7878 42.57 10.972 42.6451C11.4157 42.8362 11.8593 43.0204 12.303 43.2115C12.7534 43.4026 13.2244 43.5664 13.6885 43.7301C14.0024 43.8393 14.1867 43.3343 13.8932 43.1842Z" fill="#5C7644"/>
<path d="M25.4682 22.9435C25.2908 22.8617 25.1133 22.7661 24.929 22.7047C24.7447 22.6365 24.5605 22.575 24.3762 22.5068C24.267 22.4659 24.1509 22.459 24.0417 22.5068C23.9394 22.5477 23.8438 22.6433 23.8029 22.7456C23.7619 22.8548 23.7551 22.9777 23.8029 23.08C23.8506 23.1824 23.9325 23.2848 24.0417 23.3189C24.2328 23.3803 24.424 23.4417 24.6151 23.5031C24.8335 23.5714 25.0587 23.6123 25.2839 23.6601C25.3658 23.6806 25.4887 23.6396 25.5501 23.5919C25.6115 23.5373 25.6593 23.4758 25.6798 23.3939C25.7276 23.196 25.6388 23.0186 25.4682 22.9435Z" fill="#5C7644"/>
<path d="M46.6133 15.0002C46.5246 14.618 46.4427 14.2358 46.3267 13.8673L45.9718 12.7413C45.9308 12.6117 45.8762 12.5161 45.7738 12.4274C45.651 12.3319 45.4872 12.3182 45.3439 12.366C45.0435 12.4615 44.9548 12.7618 45.0504 13.0416C45.18 13.4101 45.3097 13.7854 45.4394 14.1539C45.5691 14.5225 45.7329 14.8773 45.8899 15.239C46.0605 15.628 46.7089 15.4301 46.6133 15.0002Z" fill="#5C7644"/>
<path d="M70.3312 9.17909C70.2698 8.44207 70.1197 7.7187 69.9012 7.01581C69.8262 6.77696 69.5122 6.66777 69.287 6.73601C69.0686 6.80425 68.8502 7.05675 68.9252 7.30242C69.2938 8.5922 69.3825 9.96387 69.2938 11.2946C69.2802 11.5334 69.444 11.7586 69.6897 11.7791C69.949 11.8064 70.1265 11.6222 70.1743 11.3833C70.3312 10.6463 70.3927 9.92293 70.3312 9.17909Z" fill="#5C7644"/>
<path d="M96.5873 14.9251C96.3211 14.7476 95.9184 14.7749 95.7341 15.0616C95.4134 15.5529 95.0857 16.0442 94.7718 16.5356C94.4578 17.0338 94.1848 17.5592 93.8981 18.0779C93.7821 18.2894 93.7753 18.5829 94.0073 18.733C94.2326 18.8763 94.4988 18.8285 94.6626 18.6238C95.0311 18.1666 95.4065 17.7162 95.741 17.2317C96.0754 16.7471 96.3962 16.2626 96.7306 15.7781C96.9081 15.512 96.8671 15.1093 96.5873 14.9251Z" fill="#5C7644"/>
<path d="M120.947 34.7972C120.729 34.572 120.333 34.5174 120.094 34.7495C119.65 35.1862 119.193 35.6161 118.77 36.0734C118.326 36.5511 117.91 37.0424 117.521 37.561C117.398 37.7248 117.453 37.9773 117.603 38.1002C117.773 38.2435 117.978 38.2162 118.149 38.0933C118.654 37.7317 119.125 37.3427 119.582 36.9264C120.039 36.5169 120.462 36.0665 120.906 35.6366C121.131 35.4319 121.186 35.0429 120.947 34.7972Z" fill="#5C7644"/>
<path d="M131.683 57.1943C130.441 57.1534 129.192 57.1602 127.95 57.1602C127.704 57.1602 127.513 57.4264 127.534 57.6584C127.554 57.9245 127.779 58.0747 128.032 58.0747C129.274 58.0747 130.516 58.0883 131.765 58.0405C131.997 58.0337 132.175 57.8017 132.154 57.5833C132.127 57.3308 131.916 57.2012 131.683 57.1943Z" fill="#5C7644"/>
<path d="M136.509 84.4025C135.008 84.464 133.513 84.5936 132.018 84.7096C131.752 84.7301 131.568 85.0235 131.602 85.276C131.643 85.5558 131.902 85.7128 132.168 85.6923C133.663 85.5626 135.151 85.4398 136.639 85.2556C136.871 85.2283 137.035 84.9894 137 84.7642C136.96 84.5117 136.741 84.3957 136.509 84.4025Z" fill="#5C7644"/>
<path d="M123.712 108.826C123.404 108.676 123.104 108.533 122.797 108.383C122.463 108.226 122.121 108.089 121.78 107.946C121.548 107.851 121.241 108.021 121.173 108.253C121.097 108.513 121.227 108.758 121.48 108.861C121.794 108.983 122.101 109.113 122.415 109.222C122.736 109.325 123.049 109.427 123.37 109.536C123.555 109.598 123.759 109.502 123.848 109.331C123.923 109.168 123.889 108.908 123.712 108.826Z" fill="#5C7644"/>
<path d="M98.8542 124.188C98.7928 123.628 98.7313 123.069 98.6699 122.509C98.6426 122.236 98.3901 122.024 98.1102 122.052C97.8372 122.079 97.6188 122.338 97.6529 122.611C97.7144 123.171 97.7758 123.731 97.8441 124.29C97.9055 124.857 98.001 125.402 98.1034 125.962C98.2058 126.508 98.9839 126.44 98.9634 125.88C98.9498 125.307 98.9156 124.754 98.8542 124.188Z" fill="#5C7644"/>
<path d="M73.5793 131.039C73.5452 130.794 73.2381 130.623 73.006 130.684C72.7398 130.759 72.617 130.992 72.6511 131.258C72.7944 132.254 72.9241 133.244 73.1152 134.226C73.1562 134.431 73.3677 134.567 73.5657 134.547C73.7568 134.526 73.9615 134.356 73.9411 134.144C73.866 133.1 73.7227 132.07 73.5793 131.039Z" fill="#5C7644"/>
<path d="M49.8073 127.777C49.5684 127.695 49.3432 127.805 49.2408 128.023C48.8791 128.774 48.5378 129.531 48.2034 130.295C48.1215 130.48 48.2307 130.725 48.415 130.787C48.6265 130.862 48.804 130.76 48.9064 130.575C49.2954 129.838 49.6845 129.094 50.053 128.344C50.1554 128.139 50.0121 127.852 49.8073 127.777Z" fill="#5C7644"/>
<path d="M29.4474 118.578C29.3178 118.394 29.0038 118.278 28.8059 118.449C28.0346 119.104 27.277 119.766 26.5262 120.441C26.3829 120.571 26.4102 120.823 26.5262 120.96C26.6491 121.096 26.8812 121.151 27.0381 121.035C27.8026 120.441 28.567 119.841 29.3178 119.227C29.502 119.063 29.6044 118.797 29.4474 118.578Z" fill="#5C7644"/>
<path d="M14.3712 101.675C14.2757 101.6 14.1733 101.572 14.0573 101.586C13.9071 101.606 13.8184 101.681 13.7296 101.797C13.3679 102.302 12.9993 102.801 12.6376 103.306C12.583 103.381 12.5694 103.524 12.5967 103.606C12.624 103.695 12.6717 103.77 12.74 103.824C12.8082 103.879 12.897 103.913 12.9857 103.913C13.0881 103.913 13.2109 103.879 13.2724 103.797C13.6546 103.306 14.0368 102.821 14.419 102.33C14.4941 102.234 14.5419 102.145 14.5487 102.023C14.5487 101.886 14.4804 101.757 14.3712 101.675Z" fill="#5C7644"/>
<path d="M39.1187 101.06C38.5181 101.101 37.9379 101.306 37.3305 101.347C36.7298 101.381 36.1087 101.361 35.515 101.265C34.3205 101.081 33.1875 100.61 32.2047 99.9072C31.7201 99.5659 31.2492 100.337 31.7201 100.685C32.7917 101.484 34.0475 102.023 35.358 102.248C35.9995 102.357 36.6479 102.405 37.3032 102.371C37.9516 102.33 38.7501 102.282 39.3303 101.968C39.7193 101.75 39.6237 101.026 39.1187 101.06Z" fill="#5C7644"/>
<path d="M26.4109 86.7978C26.2607 86.6613 26.1242 86.518 25.9945 86.3542C25.9604 86.3133 25.9331 86.2724 25.9058 86.2314C25.8922 86.2109 25.8785 86.1905 25.8649 86.17C25.8103 86.0813 25.7557 85.9857 25.7079 85.8902C25.6601 85.8015 25.6192 85.7059 25.5782 85.6172C25.5646 85.5899 25.5373 85.5422 25.5304 85.5012C25.5304 85.4944 25.5304 85.5012 25.5304 85.4944C25.5236 85.4671 25.51 85.4398 25.5031 85.4125C25.4417 85.2146 25.4008 85.0099 25.3735 84.8051C25.3462 84.5731 25.0663 84.4025 24.8411 84.4571C24.5885 84.5185 24.4657 84.7369 24.493 84.9894C24.609 85.897 25.0663 86.7774 25.7488 87.3847C25.9195 87.5417 26.1925 87.5963 26.3768 87.412C26.5406 87.2687 26.5952 86.9616 26.4109 86.7978Z" fill="#5C7644"/>
<path d="M27.1681 67.7514C26.9906 67.4239 26.6357 67.3351 26.3831 67.533C26.0555 67.301 25.7552 67.0417 25.4822 66.7073C25.1137 66.2569 24.8338 65.7587 24.6291 65.2196C24.2264 64.1551 24.1649 62.9472 24.5267 61.8621C24.711 61.3094 23.8851 60.9408 23.6872 61.5004C23.0388 63.302 23.3186 65.3015 24.3356 66.912C24.5881 67.3078 24.8884 67.6627 25.2297 67.9903C25.5709 68.3178 26.0214 68.7409 26.5197 68.7205C27.0179 68.7 27.4342 68.2428 27.1681 67.7514Z" fill="#5C7644"/>
<path d="M30.0007 51.7827C28.8609 50.6226 28.3421 48.8415 29.1134 47.347C29.2294 47.1218 29.0929 46.8215 28.8677 46.726C28.6083 46.6168 28.3763 46.7533 28.2466 46.9717C27.1955 48.7596 27.6937 51.4757 29.598 52.4788C29.7754 52.5744 30.0075 52.472 30.1031 52.315C30.2054 52.1171 30.144 51.9329 30.0007 51.7827Z" fill="#5C7644"/>
<path d="M38.9687 30.5935C38.6411 30.5321 38.3954 30.7436 38.3067 31.0371C37.9791 32.0675 37.8016 33.1321 37.7538 34.2103C37.7334 34.7222 37.747 35.234 37.8153 35.7458C37.8835 36.3259 38.0473 36.8172 38.2999 37.3427C38.4978 37.7453 39.0506 37.4587 39.0506 37.097C39.0643 36.1075 38.9414 35.1248 38.9619 34.1421C38.9824 33.1662 39.1462 32.1972 39.4192 31.2623C39.5011 30.962 39.2486 30.6481 38.9687 30.5935Z" fill="#5C7644"/>
<path d="M56.6331 24.0354C56.4215 23.8443 56.1417 23.8921 55.9506 24.0695C54.7152 25.1955 53.5822 26.7378 53.3775 28.4302C53.3365 28.7919 53.8143 29.0103 54.0054 28.6554C54.3876 27.9457 54.7425 27.2223 55.1725 26.5331C55.5889 25.8643 56.1008 25.257 56.6741 24.711C56.8652 24.5404 56.8174 24.1992 56.6331 24.0354Z" fill="#5C7644"/>
<path d="M69.8528 112.723C69.2863 114.634 68.6038 116.456 67.3753 118.053C67.0135 118.524 67.7233 119.111 68.0919 118.64C69.3614 117.015 70.3988 115.016 70.5695 112.941C70.6104 112.539 69.9825 112.279 69.8528 112.723Z" fill="#5C7644"/>
<path d="M52.0256 112.095C50.5377 112.648 48.9338 112.894 47.364 112.614C46.8862 112.525 46.818 113.283 47.2957 113.371C48.9748 113.685 50.7766 113.494 52.2713 112.641C52.6058 112.45 52.3942 111.959 52.0256 112.095Z" fill="#5C7644"/>
<path d="M87.2305 109.85C87.0326 109.761 86.7254 109.809 86.6162 110.028C85.9405 111.44 85.0191 112.709 84.2479 114.074C83.9817 114.545 84.5891 115.112 85.0055 114.702C86.193 113.535 86.9165 111.979 87.4898 110.437C87.5717 110.212 87.4352 109.946 87.2305 109.85Z" fill="#5C7644"/>
<path d="M102.021 99.4022C101.98 99.1224 101.769 98.8494 101.448 98.8767C101.175 98.8972 100.881 99.1428 100.922 99.4499C100.963 99.7297 100.977 100.016 100.963 100.296C100.963 100.371 100.956 100.446 100.95 100.521C100.956 100.419 100.936 100.631 100.929 100.651C100.909 100.781 100.888 100.91 100.854 101.04C100.724 101.627 100.526 102.091 100.328 102.562C100.24 102.773 100.267 103.012 100.465 103.149C100.649 103.278 100.909 103.265 101.066 103.094C101.967 102.139 102.212 100.671 102.021 99.4022Z" fill="#5C7644"/>
<path d="M116.04 67.9561C115.897 67.7446 115.733 67.533 115.549 67.3556C115.207 67.0212 114.805 66.7278 114.382 66.4957C113.528 66.0317 112.546 65.7997 111.576 65.8747C111.317 65.8952 111.092 66.0863 111.092 66.3593C111.092 66.6118 111.317 66.8574 111.576 66.8438C112.389 66.8097 113.167 67.0144 113.842 67.417C114.204 67.6286 114.45 67.8265 114.75 68.1336C114.9 68.2837 115.037 68.4406 115.173 68.6044C115.242 68.6863 115.303 68.775 115.385 68.8433C115.474 68.9183 115.576 68.9798 115.672 69.048C115.91 69.2186 116.299 68.9866 116.272 68.7C116.252 68.4202 116.197 68.195 116.04 67.9561Z" fill="#5C7644"/>
<path d="M109.085 49.3806C108.723 49.3055 108.354 49.2509 107.986 49.2236C107.276 49.169 106.559 49.2032 105.863 49.3124C105.597 49.3533 105.426 49.6467 105.481 49.8992C105.542 50.1859 105.802 50.3087 106.068 50.2814C106.73 50.2063 107.399 50.2268 108.061 50.3223C108.382 50.3701 108.661 50.4383 108.996 50.5134C109.194 50.5612 109.405 50.6294 109.61 50.5953C109.863 50.5612 110.074 50.3838 110.081 50.1176C110.108 49.6058 109.48 49.4625 109.085 49.3806Z" fill="#5C7644"/>
<path d="M100.676 32.477C100.13 32.477 99.6115 32.7636 99.1132 32.9684C98.6218 33.1663 98.1235 33.3642 97.6321 33.5621C96.6288 33.9647 95.6187 34.3741 94.6154 34.7768C94.124 34.9747 94.3697 35.7526 94.8816 35.5684C95.919 35.193 96.9496 34.8109 97.987 34.4356C98.5058 34.2445 99.0245 34.0602 99.5364 33.8692C100.055 33.6781 100.587 33.5416 101.004 33.1663C101.29 32.9001 100.997 32.4702 100.676 32.477Z" fill="#5C7644"/>
<path d="M80.8075 22.111C77.9477 22.6979 75.2108 24.1787 72.8493 25.8575C72.2828 26.2601 72.8561 27.1609 73.4294 26.7651C74.6034 25.9599 75.8456 25.2433 77.1355 24.6496C78.4323 24.0491 79.7837 23.585 81.1215 23.0937C81.7699 22.8617 81.4491 21.9745 80.8075 22.111Z" fill="#5C7644"/>
</svg>
