<svg width="23" height="23" viewBox="0 0 23 23" fill="none" xmlns="http://www.w3.org/2000/svg">
<path fill-rule="evenodd" clip-rule="evenodd" d="M2.22326 1.85314C0.758789 3.3176 0.758789 5.67463 0.758789 10.3887V12.6109C0.758789 17.3249 0.758789 19.682 2.22326 21.1464C3.68772 22.6109 6.04474 22.6109 10.7588 22.6109H12.981C17.6951 22.6109 20.0521 22.6109 21.5165 21.1464C22.981 19.682 22.981 17.3249 22.981 12.6109V10.3887C22.981 5.67463 22.981 3.3176 21.5165 1.85314C20.0521 0.388672 17.6951 0.388672 12.981 0.388672H10.7588C6.04474 0.388672 3.68772 0.388672 2.22326 1.85314ZM16.0366 5.94423C16.0366 5.17717 16.6584 4.55534 17.4255 4.55534C18.1925 4.55534 18.8143 5.17717 18.8143 5.94423C18.8143 6.71129 18.1925 7.33312 17.4255 7.33312C16.6584 7.33312 16.0366 6.71129 16.0366 5.94423ZM7.61643 11.2463C7.61643 9.03717 9.40729 7.24631 11.6164 7.24631H12.1234C14.3325 7.24631 16.1234 9.03717 16.1234 11.2463V11.7533C16.1234 13.9624 14.3325 15.7533 12.1234 15.7533H11.6164C9.40729 15.7533 7.61643 13.9624 7.61643 11.7533V11.2463Z" fill="white"/>
</svg>
