<svg width="456" height="218" viewBox="0 0 456 218" fill="none" xmlns="http://www.w3.org/2000/svg">
<path d="M122.167 81.9078C117.344 75.4833 109.215 70.8641 100.411 69.5475C86.5889 67.4865 78.0892 68.8768 76.471 73.4634C75.5814 75.9956 77.3089 79.15 78.6928 81.6912C79.0962 82.4259 79.4771 83.1217 79.7784 83.7698C81.0897 86.5817 82.3621 89.4162 83.6377 92.2384C84.3602 93.8503 85.0905 95.4577 85.8208 97.0651C86.3796 98.3033 86.9474 99.5571 87.5074 100.815C89.5747 105.459 91.7197 110.256 94.288 114.704C96.5994 118.708 98.9991 121.963 101.603 124.653C101.629 124.68 101.647 124.711 101.66 124.734C101.728 124.851 101.736 124.992 101.676 125.121C101.6 125.279 101.436 125.374 101.262 125.36C98.1055 125.101 95.0466 124.183 92.0986 123.294C89.1628 122.408 86.1208 121.501 82.9844 121.241C80.6475 121.05 78.2473 121.218 75.9199 121.386C73.5677 121.548 71.1319 121.726 68.7782 121.524C65.4505 121.24 62.4658 119.134 59.5819 117.094C58.0727 116.03 56.6475 115.022 55.2102 114.28C50.3706 111.809 45.5203 110.708 40.3898 110.923C30.3019 111.347 18.593 115.703 9.82018 122.298C5.42885 125.613 -1.2997 132.432 1.35865 137.037C2.12912 138.371 3.66294 139.442 5.93429 140.222C8.36688 141.065 10.8736 142.001 13.5215 143.001C30.7825 149.486 50.3442 156.838 62.9136 140.383C64.2649 138.614 65.1866 137.021 65.7487 135.489C65.9707 134.882 66.0189 133.668 66.054 132.504C66.1126 130.857 66.1682 129.295 66.6973 128.626C68.6602 126.15 73.6852 127.338 77.3586 128.204C78.2839 128.419 79.0828 128.613 79.7148 128.716C82.1319 129.1 84.5778 129.426 87.1658 129.763C95.8981 130.902 104.931 132.076 112.534 136.052C112.609 136.092 112.661 136.146 112.701 136.216C112.746 136.294 112.768 136.385 112.757 136.475C112.731 136.646 112.606 136.791 112.439 136.825C90.4102 141.979 76.0682 156.211 73.0775 175.866C72.5074 179.619 72.1203 183.796 73.5891 186.34C74.8642 188.549 77.5361 189.41 81.7524 188.963C92.119 187.868 100.047 185.632 106.006 182.13C114.141 177.35 122.544 167.285 125.562 158.727C126.873 154.994 126.833 151.105 125.433 146.481C125.247 145.871 124.979 145.245 124.689 144.58C123.751 142.396 122.673 139.917 125.151 138.153C127.013 136.818 130.456 137.952 133.228 138.859C134.216 139.184 135.138 139.484 135.809 139.617C141.117 140.61 146.839 140.844 151.445 141.036C155.367 141.196 159.439 141.041 163.383 140.897C170.106 140.647 177.051 140.383 183.65 141.63C183.768 141.656 183.874 141.73 183.932 141.832C183.95 141.863 183.968 141.894 183.979 141.93C184.024 142.08 183.973 142.245 183.859 142.353C182.049 143.959 179.812 145.022 177.642 146.057C175.962 146.86 174.231 147.682 172.74 148.741C169.763 150.866 166.975 153.391 164.283 155.829L162.996 156.988C158.006 161.483 152.964 166.682 149.921 174.225C149.724 174.713 149.398 175.464 148.988 176.376C147.115 180.611 142.741 190.535 144.16 192.993C144.187 193.04 144.214 193.086 144.244 193.121C145.827 195.141 151.186 192.402 154.068 190.924C154.863 190.517 155.545 190.166 156.026 189.971C158.295 189.036 160.682 188.178 162.994 187.353C168.907 185.229 175.016 183.034 180.035 179.273C185.572 175.129 189.306 168.53 191.444 159.096C191.92 157 192.202 154.84 192.477 152.756C192.677 151.246 192.878 149.684 193.153 148.141C194.18 142.46 196.307 141.367 201.678 139.91C203.918 139.304 206.283 138.407 208.778 137.466C213.981 135.502 219.362 133.467 224.356 133.737C224.486 133.745 224.607 133.811 224.677 133.915C224.682 133.923 224.686 133.931 224.695 133.947C224.754 134.048 224.769 134.164 224.732 134.28C224.34 135.494 223.846 136.674 223.366 137.825C222.649 139.54 221.916 141.316 221.526 143.164C221.188 144.795 221.116 146.491 221.053 148.13C220.99 149.769 220.926 151.46 220.586 153.124C219.541 158.306 216.7 163.983 212.598 169.098C210.341 171.911 207.539 174.194 204.841 176.407C202.351 178.438 199.769 180.543 197.662 183.039C193.118 188.399 190.991 195.059 189.644 200.259C188.818 203.462 188.833 205.378 189.698 206.877C190.585 208.414 192.46 209.589 195.193 210.988C200.357 213.625 205.651 216.323 211.382 217.041C221.812 218.345 232.94 213.793 239.747 205.451C246.301 197.411 248.89 185.927 246.503 175.485C245.875 172.757 244.84 170.118 243.421 167.66C242.078 165.334 240.409 163.146 238.308 160.966C237.235 159.848 236.025 158.778 234.745 157.644C232.175 155.371 229.514 153.016 227.847 150.128C227.531 149.582 227.26 149.021 227.032 148.466C225.649 145.06 225.736 141.462 227.296 137.783C230.128 131.101 237.039 125.842 242.629 123.593C247.797 121.514 252.753 118.726 257.545 116.032C263.571 112.646 269.788 109.14 276.508 107.009C285.191 104.243 294.406 103.334 303.312 102.449C306.972 102.084 310.76 101.707 314.441 101.216C316.932 100.88 319.433 100.508 321.926 100.14C331.434 98.73 341.274 97.2633 351.064 97.7294C351.206 97.7411 351.331 97.8143 351.403 97.9391C351.412 97.9548 351.421 97.9704 351.43 97.986C351.496 98.1355 351.462 98.3111 351.352 98.4267C343.295 107.199 333.527 110.664 323.182 114.337C319.26 115.727 315.213 117.169 311.24 118.921C300.617 123.608 292.603 133.625 286.743 149.537L286.316 150.689C283.761 157.564 279.474 169.081 283.367 175.824C284.232 177.322 285.479 178.527 287.086 179.4C294.458 183.426 305.14 178.841 311.527 176.1C331.498 167.525 345.127 149.823 348.916 127.532C349.291 125.297 349.517 122.877 349.728 120.539C350.486 112.246 351.259 103.673 358.936 99.001C365.771 94.8361 374.089 93.8523 382.131 92.8933C385.955 92.4336 389.912 91.97 393.553 91.158C407.736 88.0054 417.232 81.8883 427.953 73.0451C432.246 69.5051 436.937 66.2037 441.473 63.0125C447.423 58.828 453.575 54.5063 458.899 49.5803C461.653 47.033 461.324 46.3906 461.31 46.3672C461.279 46.3126 461.191 46.2694 461.068 46.2364C459.905 45.951 456.831 47.0075 454.486 48.4967C451.254 50.5398 448.134 52.9758 445.11 55.3253C443.308 56.7294 441.442 58.1818 439.576 59.5292C436.481 61.7739 433.457 64.2486 430.255 66.8672C422.851 72.9315 415.189 79.1969 406.605 82.405C395.994 86.3565 388.362 84.4568 383.915 76.7542C383.221 75.5524 382.603 74.1926 382.07 72.7106C380.063 67.1265 379.462 61.147 378.881 55.3642C378.24 48.9916 377.582 42.41 375.042 36.2805C374.013 33.7947 372.823 31.3913 371.517 29.1281C366.56 20.5437 359.839 13.9667 352.095 10.1238C347.06 7.62012 341.591 5.89748 336.294 4.221C335.381 3.93667 334.476 3.64786 333.566 3.35124C332.928 3.1473 332.28 2.92775 331.633 2.70821C327.278 1.23766 322.778 -0.284752 318.47 1.39091C310.039 4.66651 310.965 16.3997 311.468 22.6958C312.636 37.4425 315.435 48.4899 320.285 57.4683C320.44 57.7538 320.59 58.0314 320.752 58.3123C328.61 71.9226 343.612 74.9463 358.128 77.866C366.501 79.5557 375.165 81.2965 382.411 85.0522C382.486 85.0922 382.538 85.1456 382.578 85.2158C382.61 85.2704 382.63 85.3419 382.63 85.4145C382.636 85.5676 382.559 85.7055 382.426 85.7821C374.587 90.4432 363.516 91.5074 353.742 92.4373C350.281 92.7702 347.018 93.0831 344.001 93.5347C333.565 95.0857 319.801 97.018 305.848 98.1543C304.337 98.2773 302.669 98.5429 300.918 98.8256C294.776 99.812 287.806 100.933 284.936 95.9616C284.355 94.9549 283.962 93.7149 283.771 92.285C283.512 90.3223 283.3 88.3326 283.095 86.411C282.272 78.604 281.486 71.2427 277.535 64.3986C277.427 64.2113 277.314 64.0162 277.198 63.8334C267.475 47.8037 242.81 37.2169 223.463 35.0474C217.455 34.3745 213.094 35.4356 210.869 38.1247C208.901 40.4997 208.631 44.0889 210.075 48.7702C210.537 50.2726 210.992 51.7996 211.447 53.3267C213.661 60.7475 215.946 68.4183 219.807 75.1064C220.411 76.1522 221.045 77.1598 221.695 78.1058C226.92 85.7133 234.576 91.1159 245.777 95.1267C246.867 95.5175 247.96 95.9162 249.067 96.3181C257.325 99.3227 265.861 102.428 274.662 102.893C274.799 102.896 274.925 102.97 274.997 103.095L275.001 103.102C275.069 103.219 275.077 103.36 275.02 103.477C274.222 105.249 271.332 106.407 269.018 107.337C268.316 107.618 267.658 107.883 267.179 108.118C264.489 109.442 261.816 110.902 259.228 112.313C257.465 113.279 255.697 114.237 253.917 115.172C243.926 120.378 233.889 124.602 221.817 129.573C221.202 129.824 220.059 130.422 218.72 131.112C213.677 133.732 209.712 135.678 208.355 135.057C207.873 134.835 207.485 134.487 207.223 134.034C206.282 132.403 207.028 129.694 207.688 127.305C207.96 126.336 208.212 125.42 208.282 124.766C209.282 115.864 207.135 106.522 202.066 97.7423C201.602 96.9385 201.105 96.1326 200.597 95.3435C195.34 87.193 188.248 79.6855 180.628 74.2C176.872 71.4984 173.863 70.593 171.919 71.5697C169.975 72.5463 168.957 75.3608 168.888 79.927C168.834 83.4023 168.53 86.8764 168.235 90.241C167.656 96.8606 167.057 103.699 168.422 110.497C169.67 116.696 171.635 122.064 174.433 126.911C176.772 130.961 179.735 134.651 183.24 137.892C183.27 137.927 183.296 137.954 183.318 137.993C183.381 138.102 183.398 138.238 183.345 138.362C183.282 138.524 183.122 138.626 182.94 138.617C174.958 138.272 166.937 137.014 159.185 135.787C156.621 135.384 154.065 134.976 151.499 134.606C149.866 134.373 148.233 134.14 146.601 133.906C143.168 133.422 139.629 132.916 136.148 132.366C135.187 132.214 133.966 132.117 132.667 132.014C129.276 131.745 125.439 131.442 123.235 130.04C122.559 129.609 122.079 129.137 121.772 128.606C120.835 126.983 121.753 125.184 122.721 123.293C123.061 122.638 123.408 121.959 123.689 121.256C125.56 116.711 126.696 112.101 127.156 107.184C127.797 100.383 127.996 91.643 123.76 84.3072C123.278 83.4721 122.741 82.6686 122.167 81.9078ZM63.9302 134.25C62.2597 140.386 57.1699 145.988 51.2826 148.191C41.3714 151.894 30.0252 147.363 20.0071 143.366C17.8976 142.524 15.9123 141.735 14.0057 141.046C13.1347 140.727 12.2091 140.439 11.2834 140.151C8.12369 139.166 4.85647 138.139 3.63543 136.024C2.67572 134.362 3.07103 132.271 4.86335 129.644C7.36414 125.974 11.2893 123.635 15.0862 121.38C16.4819 120.553 17.8029 119.759 19.0599 118.909C26.2586 115.013 36.9909 110.19 47.4668 113.07C47.5652 113.096 56.9636 115.713 59.0227 119.28C59.5859 120.255 59.5523 121.242 58.9191 122.128C57.0319 124.789 50.196 125.312 45.2048 125.697C43.6618 125.818 42.3276 125.922 41.4442 126.068C39.7811 126.341 38.0889 126.6 36.3889 126.864C28.7444 128.041 20.8519 129.258 13.6891 131.936C16.1203 133.967 23.4465 131.589 27.9176 130.142C29.5137 129.626 30.8876 129.176 31.742 129.016C38.0406 127.814 46.338 126.416 54.6586 126.211C58.6496 126.113 62.351 126.234 63.7928 128.731C64.5374 130.039 64.5812 131.845 63.9302 134.25ZM222.468 156.366C222.579 156.396 222.672 156.467 222.726 156.56C222.762 156.623 222.783 156.694 222.783 156.767C222.767 158.649 222.78 160.619 222.794 162.608C222.845 168.625 222.887 174.843 222.088 180.435C221.039 187.773 215.989 192.093 210.863 195.271C213.952 195.215 216.607 194.119 218.793 191.993C223.264 187.643 224.538 180.227 224.277 175.196C223.971 169.368 224.288 164.077 225.21 159.476C225.649 157.297 226.174 155.756 227.289 155.362C228.427 154.954 229.85 155.85 231.777 157.422C235.904 160.804 239.146 164.509 241.422 168.45C243.972 172.867 245.301 177.584 245.364 182.469C245.523 194.208 239.967 205.147 231.205 210.32C223.121 215.133 213.811 216.201 204.981 213.307C199.031 211.363 195.016 208.645 193.051 205.242C191.695 202.893 191.324 200.215 191.947 197.274C193.272 191.026 197.548 184.988 205.022 178.81C213.096 172.141 217.073 166.088 221.987 156.56C222.087 156.409 222.276 156.321 222.468 156.366ZM381.289 80.0811C372.127 79.0444 360.317 68.6104 355.352 63.2361C353.594 61.3271 352 59.1255 350.491 56.5112C348.847 53.6627 347.478 50.6442 346.157 47.7238C344.853 44.8347 343.495 41.852 341.895 39.0815C341.057 37.63 340.195 36.3171 339.296 35.1196C340.439 37.6953 341.477 40.3218 342.487 42.8814C344.358 47.6179 346.291 52.5161 348.863 56.9722C349.562 58.1818 350.294 59.341 351.044 60.4062C355.521 66.7909 361.94 72.2314 371.236 77.5193C371.281 77.5247 371.317 77.5346 371.362 77.54C371.481 77.5652 371.578 77.6441 371.632 77.7377C371.637 77.7455 371.637 77.7455 371.641 77.7533C371.68 77.7834 371.714 77.8257 371.741 77.8725C371.75 77.8881 371.764 77.9115 371.765 77.9316L371.943 78.4014L372.12 78.8712C372.192 79.0486 372.128 79.2624 371.961 79.3693C371.793 79.4762 371.582 79.4526 371.441 79.3157C371.311 79.1822 371.198 79.0396 371.108 78.8835C371.013 78.7196 370.937 78.5344 370.902 78.3468C370.54 78.3685 370.022 78.4804 369.511 78.5877C368.786 78.7363 368.108 78.8779 367.634 78.8498C365.961 78.7645 364.278 78.2276 362.656 77.7073C361.944 77.4836 361.24 77.2553 360.551 77.0706C358.204 76.4484 355.843 75.8554 353.494 75.2656C350.793 74.588 348.005 73.8873 345.268 73.1473C335.855 70.6117 329.016 67.4533 324.04 59.5563C323.674 58.9767 323.324 58.3881 322.986 57.8028C318.751 50.467 315.991 41.6861 314.799 31.7089L314.737 31.2241C313.883 24.1214 312.594 13.3992 316.141 6.98099C320.209 -0.372792 331.922 3.94648 338.916 6.52636C339.589 6.77262 340.224 7.00899 340.79 7.21325C350.219 10.5513 357.947 15.5377 363.75 22.0204C365.767 24.2693 367.558 26.7415 369.081 29.3793C374.501 38.7676 376.17 49.5518 377.781 59.9843C378.784 66.4604 379.816 73.1689 381.734 79.5538C381.77 79.6889 381.746 79.8276 381.656 79.942C381.565 80.0363 381.423 80.0973 381.289 80.0811ZM382.118 89.0506C382.401 89.0538 382.615 89.0651 382.736 89.0578C383.14 89.0013 383.654 89.0068 384.187 89.0112C385.253 89.0198 386.473 89.0233 387.166 88.477C387.344 88.3332 387.6 88.3622 387.743 88.5393C387.757 88.5627 387.774 88.5738 387.787 88.5972C387.886 88.7689 387.855 88.9848 387.701 89.1151C386.601 90.0936 383.707 90.235 381.155 90.3559C379.83 90.4233 378.574 90.4825 377.874 90.6577C377.755 90.6851 377.629 90.6644 377.523 90.59C377.48 90.5522 377.438 90.5144 377.411 90.4676C377.379 90.4129 377.359 90.3415 377.355 90.2811C377.345 90.0476 377.434 89.8404 377.605 89.6686C378.259 88.9995 380.193 88.9965 382.118 89.0506ZM337.273 113.006C337.409 112.99 337.554 113.042 337.645 113.146C337.666 113.165 337.679 113.188 337.688 113.204C337.747 113.305 337.762 113.421 337.725 113.537C336.415 117.882 332.897 122.494 329.794 126.564C328.473 128.295 327.223 129.932 326.181 131.481C325.322 132.768 324.386 134.067 323.484 135.316C320.821 139.029 318.075 142.852 316.523 147.139C320.748 145.085 324.785 138.416 327.778 133.472C328.796 131.792 329.754 130.208 330.587 129.02C331.536 127.671 332.471 126.299 333.403 124.939C337.608 118.796 341.95 112.439 347.517 107.248C347.632 107.14 347.799 107.106 347.948 107.166C348.039 107.197 348.112 107.269 348.157 107.347C348.188 107.402 348.207 107.453 348.211 107.513C349.458 120.487 347.113 134.411 341.612 146.691C335.88 159.49 324.885 167.389 314.113 174.378C314.082 174.396 314.043 174.419 314.007 174.429C312.171 174.979 310.255 175.752 308.217 176.565C302.516 178.857 296.058 181.441 290.254 179.371C288.117 178.607 286.526 177.33 285.508 175.566C282.282 169.978 285.56 160.771 287.136 156.344L287.298 155.886C290.833 145.968 294.833 134.731 302.846 127.378C307.446 123.162 313.102 120.885 318.981 118.739C320.217 118.285 321.473 117.81 322.731 117.323C327.436 115.523 332.297 113.652 337.273 113.006ZM264.202 89.9836C263.552 89.4533 263.026 89.0287 262.658 88.752C262.333 88.5131 261.783 88.102 261.053 87.5766C256.062 83.9237 242.79 74.2194 240.24 69.8023C239.628 68.741 239.705 68.0823 239.976 67.6865C239.335 66.5582 238.743 65.3705 238.127 64.1236C237.462 62.7909 236.777 61.4068 236.025 60.1036C234.56 57.5672 233.118 55.8088 231.45 54.5766C232.642 57.9569 234.182 61.2921 236.043 64.5152C239.184 69.9546 243.155 74.9767 247.842 79.419C251.135 82.544 255.079 85.2303 258.888 87.8277C263.696 91.108 268.671 94.4994 272.452 98.8306C272.473 98.8495 272.487 98.8729 272.5 98.8963C272.554 98.99 272.565 99.0983 272.543 99.2046C272.507 99.34 272.412 99.4466 272.281 99.4908C268.883 100.777 264.249 98.8425 260.522 97.2898C259.305 96.7855 258.154 96.3056 257.165 95.9814C255.576 95.4631 253.975 94.9617 252.375 94.4602C248.025 93.0903 243.528 91.6807 239.226 89.9607C231.329 86.8092 225.683 81.9319 221.452 74.6039C219.623 71.4355 218.012 67.7251 216.532 63.2518C216.285 62.4996 215.875 61.4462 215.405 60.2188C212.722 53.2461 208.218 41.5702 213.029 37.8458C216.208 35.386 222.859 36.957 227.26 37.9847C227.973 38.1559 228.624 38.3106 229.18 38.4266C235.289 39.7071 241.451 41.6748 247.501 44.279C262.007 50.5341 271.485 57.7773 276.473 66.4164C276.82 67.0173 277.156 67.635 277.456 68.2629C280.333 74.0936 280.802 80.1496 281.304 86.571L281.315 86.6794C281.351 87.2101 281.467 87.9339 281.601 88.7616C282.082 91.7929 282.726 95.9368 280.997 97.591C277.564 100.873 268.54 93.5142 264.202 89.9836ZM186.185 144.995C184.599 146.951 182.865 148.795 181.184 150.588C178.766 153.159 176.27 155.828 174.22 158.802C173.733 159.509 173.112 160.326 172.447 161.209C170.397 163.912 167.886 167.224 167.274 169.929C170.424 168.61 172.815 165.398 174.941 162.537C175.561 161.701 176.166 160.893 176.768 160.151C177.475 159.285 178.187 158.374 178.903 157.451C182.056 153.414 185.318 149.241 189.585 146.684C189.702 146.617 189.843 146.608 189.955 146.658C190.038 146.693 190.106 146.758 190.151 146.836C190.169 146.867 190.184 146.911 190.194 146.946C193.294 159.849 183.803 175.453 173.246 180.778C171.395 181.483 169.581 182.145 167.772 182.815C165.197 183.761 162.626 184.714 160.065 185.704C159.572 185.895 158.605 186.401 157.481 186.977C153.62 188.977 150.319 190.613 148.933 190.248C148.391 190.102 147.973 189.793 147.693 189.309C146.297 186.889 148.959 180.597 150.72 176.438C151.134 175.46 151.494 174.607 151.698 174.042C154.386 166.549 158.914 162.821 164.641 158.089L165.199 157.631C171.223 152.655 177.442 147.514 185.709 144.333C185.887 144.262 186.088 144.322 186.199 144.477C186.208 144.493 186.212 144.501 186.221 144.516C186.311 144.672 186.294 144.859 186.185 144.995ZM183.259 135.114C179.993 133.368 177.215 130.539 175.002 126.707C170.835 119.488 169.451 110.225 169.024 103.718C168.711 98.9047 169.355 94.2353 169.992 89.7157C170.356 87.1019 170.734 84.3864 170.927 81.6739C170.97 81.0455 170.981 80.3626 170.984 79.664C171.003 77.2284 171.033 74.7033 172.53 73.5476C173.36 72.9124 174.508 72.791 176.02 73.1766C179.182 73.984 182.217 77.3304 184.654 80.0021C185.164 80.561 185.636 81.0898 186.079 81.5517C189.59 85.2167 193.007 89.0812 196.308 92.8153C197.78 94.4831 199.253 96.1509 200.737 97.8019C200.758 97.8208 200.772 97.8442 200.79 97.8754C200.799 97.8911 200.808 97.9067 200.817 97.9223C200.912 98.1588 210.785 121.874 205.286 132.084C204.032 134.4 202.074 135.821 199.463 136.309C196.081 136.94 193.463 135.684 191.678 132.594C189.317 128.504 188.75 122.006 188.256 116.267C188.01 113.443 187.789 110.917 187.388 109.14C185.975 116.21 186.389 123.702 188.543 129.451C188.648 129.723 188.91 130.196 189.131 130.579L189.501 131.218L189.929 131.96C191.077 133.95 191.41 134.85 191.214 135.411C190.996 136.026 190.578 136.455 189.974 136.689C188.023 137.472 184.623 135.855 183.259 135.114ZM146.123 136.648C146.186 136.685 146.238 136.738 146.278 136.808C146.31 136.863 146.329 136.914 146.333 136.975C146.349 137.111 146.292 137.248 146.184 137.331C144.973 138.332 134.503 137.301 129.307 136.358C124.286 135.448 123.867 134.722 123.714 134.457C123.638 134.324 123.601 134.189 123.613 134.047C123.622 133.865 123.73 133.709 123.906 133.617C125.469 132.757 144.323 135.638 146.123 136.648ZM116.903 139.096C117.022 139.122 117.123 139.188 117.186 139.298C117.19 139.305 117.195 139.313 117.199 139.321C117.255 139.435 117.259 139.568 117.201 139.684C114.744 144.692 110.476 148.78 106.341 152.738C105.119 153.902 103.974 155 102.867 156.128C102.113 156.896 101.287 157.664 100.416 158.48C97.2924 161.396 93.7717 164.688 92.7609 168.633C96.8669 166.751 100.918 161.603 104.508 157.043C106.009 155.136 107.422 153.332 108.705 151.967C109.187 151.449 109.74 150.786 110.366 150.05C112.956 146.984 116.498 142.774 119.571 143.05C120.756 143.157 121.762 143.908 122.555 145.281C122.65 145.445 122.741 145.621 122.832 145.798C129.122 158.638 115.899 173.619 106.083 180.046C100.524 183.682 93.8718 184.65 87.44 185.586C85.9991 185.793 84.5704 186.004 83.1553 186.238C79.7979 186.803 76.1495 187.026 74.6401 184.412C73.8381 183.023 73.7036 180.915 74.2214 177.973C76.6412 164.412 85.375 151.316 97.5903 142.953C97.6293 142.93 97.6762 142.903 97.7242 142.896C99.3866 142.477 101.069 141.912 102.845 141.313C107.451 139.757 112.216 138.15 116.903 139.096ZM119.356 132.405C119.765 132.501 120.021 132.656 120.156 132.89C120.39 133.296 120.183 133.748 119.546 134.23C119.407 134.332 119.226 134.342 119.079 134.25C118.836 134.099 118.661 133.94 118.557 133.761C118.436 133.55 118.242 133.017 119.021 132.473C119.126 132.403 119.245 132.375 119.356 132.405ZM113.383 131.702C113.426 131.739 113.456 131.774 113.483 131.821C113.537 131.914 113.557 132.038 113.527 132.149C113.476 132.314 113.334 132.427 113.165 132.441C108.78 132.83 104.352 131.703 100.079 130.611C98.6526 130.248 97.1643 129.869 95.7412 129.567C94.138 129.223 92.3142 129.038 90.384 128.831C86.6748 128.444 82.8314 128.041 79.9777 126.504C79.9071 126.472 79.8509 126.411 79.8149 126.348C79.7879 126.302 79.7686 126.25 79.765 126.19C79.7487 126.054 79.7973 125.922 79.9009 125.831L80.3907 125.381L80.8271 124.984C80.8994 124.911 81.0021 124.872 81.1071 124.874C96.9292 125.01 107.786 127.306 113.383 131.702ZM116.567 127.106C116.484 127.196 116.353 127.24 116.231 127.227C116.109 127.214 115.996 127.144 115.925 127.039C115.533 126.433 115.157 125.818 114.797 125.193C112.86 121.838 111.381 118.196 109.943 114.677C108.518 111.182 107.045 107.568 105.135 104.259C104.72 103.541 104.287 102.844 103.856 102.188C103.102 101.062 102.309 99.9593 101.531 98.8998C100.312 97.2208 99.0489 95.4838 97.9855 93.6421C97.3232 92.4949 96.7851 91.4008 96.3555 90.2962C95.9135 89.1882 95.5586 88.0508 95.2094 86.9414C94.5915 84.9881 94.0121 83.1375 93.0344 81.444C92.7641 80.9758 92.476 80.5489 92.1691 80.1435C92.405 82.9311 93.3388 89.8111 94.686 92.1445C94.8167 92.3708 95.1465 92.888 95.4232 92.7906C95.6129 92.7227 95.8156 92.8034 95.9147 92.9751C95.9192 92.9829 95.9238 92.9907 95.9328 93.0063C97.5427 96.3534 99.3336 99.6897 101.233 103.213C105.29 110.746 109.476 118.536 111.669 126.427C111.701 126.554 111.677 126.693 111.598 126.79C111.512 126.892 111.39 126.952 111.265 126.952C105.059 126.799 99.7087 122.688 94.9147 114.384C92.3645 109.967 90.3746 105.133 88.6209 100.87C87.8875 99.0767 87.1881 97.3787 86.5323 95.9364C85.3729 93.3696 84.237 90.7894 83.1089 88.2046C82.5567 86.9418 82.0045 85.679 81.4445 84.4207C81.2063 83.8819 80.8827 83.2675 80.54 82.6017C79.4916 80.6056 78.3057 78.3352 78.4417 76.4982C78.8934 70.504 87.3257 70.5469 91.3765 70.5703C96.6869 70.5947 114.635 71.7096 122.326 85.0311C123.069 86.3188 123.693 87.6864 124.174 89.1149C128.573 102.069 125.306 118.398 116.567 127.106Z" fill="#E1EDD4"/>
</svg>
