<svg width="24" height="24" viewBox="0 0 24 24" fill="none" xmlns="http://www.w3.org/2000/svg">
<path fill-rule="evenodd" clip-rule="evenodd" d="M13.4963 3.1217V7H14.9963L17.9987 7.00001C19.7899 7.00001 21.182 8.55946 20.9795 10.3392L20.4986 14.5653C20.2112 17.0917 18.0734 19 15.5307 19L8.49857 19L8.49813 19H6.99813H5.00006C3.89549 19 3.00006 18.1046 3.00006 17V9.00001C3.00006 7.89544 3.89549 7.00001 5.00006 7.00001H6.99813H7.32249L9.43677 2.25774C9.77783 1.49275 10.537 1 11.3746 1C12.5464 0.999998 13.4963 1.94992 13.4963 3.1217ZM15.5307 17.5L8.49856 17.5L8.49856 8.0458L10.8068 2.86854C10.9067 2.64438 11.1292 2.5 11.3746 2.5C11.7179 2.5 11.9963 2.77834 11.9963 3.1217V7C11.9963 7.82843 12.6679 8.5 13.4963 8.5L17.9987 8.50001C18.8943 8.50001 19.5904 9.27973 19.4891 10.1696L19.0082 14.3957C18.807 16.1642 17.3106 17.5 15.5307 17.5ZM5.00006 8.50001H6.99813V17.5H5.00006C4.72392 17.5 4.50006 17.2761 4.50006 17V9.00001C4.50006 8.72386 4.72392 8.50001 5.00006 8.50001Z" fill="#212D1E"/>
</svg>
