<svg width="104" height="104" viewBox="0 0 104 104" fill="none" xmlns="http://www.w3.org/2000/svg">
<g clip-path="url(#clip0_2108_887)">
<path fill-rule="evenodd" clip-rule="evenodd" d="M52 0C80.7168 0 104 23.2796 104 52C104 80.7204 80.7211 104 52 104C23.2789 104 0 80.7162 0 52C0 23.2796 23.2789 0 52 0Z" fill="#3F532B"/>
<path fill-rule="evenodd" clip-rule="evenodd" d="M52.1672 2.96814C79.271 2.96814 101.245 24.9024 101.245 51.9573C101.245 79.0122 79.271 100.946 52.1672 100.946C25.0591 100.946 3.08936 79.0122 3.08936 51.9573C3.08508 24.9024 25.0591 2.96814 52.1672 2.96814Z" fill="#3F532B"/>
<path fill-rule="evenodd" clip-rule="evenodd" d="M52.1668 3.39522C25.2949 3.39522 3.51258 25.1383 3.51682 51.9572V51.9573C3.51682 78.7763 25.295 100.519 52.1668 100.519C79.0343 100.519 100.817 78.7763 100.817 51.9573C100.817 25.1383 79.0343 3.39522 52.1668 3.39522ZM2.66113 51.9574C2.65682 24.6666 24.8224 2.54108 52.1668 2.54108C79.5069 2.54108 101.672 24.6666 101.672 51.9573C101.672 79.248 79.5069 101.374 52.1668 101.374C24.8224 101.374 2.66113 79.248 2.66113 51.9574Z" fill="white"/>
<path fill-rule="evenodd" clip-rule="evenodd" d="M52.1112 21.3322C69.088 21.3322 82.8474 35.0667 82.8474 52.0128C82.8474 68.959 69.088 82.6935 52.1112 82.6935C35.1344 82.6935 21.375 68.959 21.375 52.0128C21.3707 35.071 35.1344 21.3322 52.1112 21.3322Z" fill="white"/>
<path fill-rule="evenodd" clip-rule="evenodd" d="M33.0852 61.639C33.0852 61.639 26.1028 54.4258 30.0732 47.5756C34.0478 40.7254 40.1874 40.6058 40.1874 40.6058C40.1874 40.6058 40.427 29.3055 52.1071 29.6685C63.7872 30.0273 63.6674 40.7254 63.6674 40.7254C63.6674 40.7254 73.542 40.6058 74.9881 50.0995C76.4342 59.5933 71.2573 61.276 71.2573 61.276C71.2573 61.276 58.2509 55.2671 54.0366 58.3932C50.6652 58.5128 50.4256 58.5128 50.4256 58.5128C50.4256 58.5128 43.6828 53.3453 33.0852 61.639Z" fill="#3F532B" stroke="white"/>
<path fill-rule="evenodd" clip-rule="evenodd" d="M51.5982 76.8555C50.4559 69.8558 48.0814 64.7523 48.0557 64.7011C47.9059 64.3381 47.307 62.8177 47.3369 61.6134C46.9989 61.5365 46.6909 61.4981 46.3957 61.4981C45.6555 61.4981 44.9667 61.7372 44.0211 62.1515C43.9698 62.1728 38.9255 64.3594 34.446 64.3594C32.5293 64.3594 31.0147 63.9452 29.9408 63.1252L28.5161 62.0362L30.3088 61.9764C30.3473 61.9764 34.3177 61.75 38.9769 56.89C40.4871 55.3141 42.2713 54.5155 44.2821 54.5155C46.5197 54.5155 48.5391 55.5105 49.8013 56.3134C49.4847 54.0201 49.3007 49.822 51.564 47.0845L52.0945 46.4438L52.5823 47.1186C54.4049 49.6554 54.4648 54.0201 54.3407 56.3946C55.3975 55.613 57.0789 54.7162 59.2352 54.7162C61.1434 54.7162 63.0772 55.4251 64.9769 56.8174C71.2234 61.4041 74.0343 61.9294 74.06 61.9337L76.2206 62.3052L74.2054 63.1551C74.1199 63.1892 72.1133 64.022 68.7633 64.022C65.5074 64.022 62.1574 63.249 58.8159 61.7287C58.1228 61.3785 57.5795 61.2162 57.2072 61.1393C57.1687 62.1856 56.989 64.163 56.236 65.7645C55.1065 68.1646 52.9502 73.55 52.8689 76.7658L51.5982 76.8555Z" fill="#3F532B"/>
<path d="M52.0643 47.4944C54.4859 50.864 53.5703 57.9576 53.5703 57.9576C53.5703 57.9576 55.7395 55.3568 59.2392 55.3568C60.788 55.3568 62.6021 55.865 64.6001 57.3341C71.1204 62.1216 73.9613 62.5657 73.9613 62.5657C73.9613 62.5657 72.0274 63.3814 68.7716 63.3814C66.243 63.3814 62.923 62.8903 59.0895 61.1478C57.7888 60.4944 56.9374 60.4346 56.6722 60.4346C56.6123 60.4346 56.5823 60.4389 56.5823 60.4389C56.5823 60.4389 56.6679 63.3643 55.6625 65.4911C54.6613 67.618 52.321 73.2937 52.2354 76.753C51.0674 69.5697 48.6416 64.4277 48.6416 64.4277C48.6416 64.4277 47.7217 62.2112 48.0554 61.1478C47.4308 60.9471 46.9045 60.8574 46.3997 60.8574C45.5568 60.8574 44.791 61.118 43.7684 61.5621C42.6218 62.066 38.2065 63.7188 34.45 63.7188C32.8627 63.7188 31.391 63.4241 30.3385 62.617C30.3385 62.617 34.5185 62.476 39.4515 57.3341C41.0046 55.7113 42.7031 55.1561 44.2947 55.1561C47.7559 55.1561 50.7337 57.774 50.7337 57.774C50.7337 57.774 49.0566 51.1288 52.0643 47.4944ZM52.137 45.3975L51.076 46.6787C49.0395 49.1387 48.8512 52.662 49.0395 55.1432C47.7559 54.4813 46.0916 53.8791 44.2904 53.8791C42.0956 53.8791 40.1574 54.7461 38.5188 56.4501C34.0735 61.0881 30.3171 61.3358 30.2786 61.34L26.689 61.4596L29.5512 63.6377C30.7364 64.543 32.3836 65.0043 34.4458 65.0043C39.0622 65.0043 44.2305 62.7622 44.2819 62.7408C45.2916 62.3009 45.8435 62.1429 46.3997 62.1429C46.5024 62.1429 46.6093 62.1472 46.7206 62.16C46.8232 63.3088 47.2725 64.4875 47.4522 64.9231L47.465 64.953L47.4778 64.9787C47.4992 65.0299 49.8395 70.0608 50.9648 76.9622L53.5147 76.7871C53.5832 73.9001 55.5298 68.7796 56.8176 66.0421C57.4466 64.7053 57.699 63.1294 57.7974 61.9849C58.007 62.0618 58.2424 62.1643 58.5033 62.2967L58.5247 62.3095L58.5461 62.318C61.9731 63.8768 65.413 64.6669 68.763 64.6669C72.2371 64.6669 74.3635 63.7871 74.4533 63.7487L78.6077 61.9977L74.1538 61.3016C74.1453 61.3016 71.4114 60.7507 65.3574 56.3049C63.3465 54.8272 61.2843 54.0756 59.235 54.0756C57.5364 54.0756 56.1074 54.5923 55.0164 55.1988C55.0421 52.6534 54.7469 49.0276 53.104 46.7428L52.137 45.3975Z" fill="white"/>
<path d="M10.2508 43.228C10.4647 43.5654 10.7385 43.8558 11.068 44.1035C11.3974 44.3512 11.7654 44.5263 12.1675 44.6288C12.5526 44.727 12.9505 44.7569 13.3569 44.7099C13.7634 44.663 14.1442 44.5477 14.4993 44.364C14.8544 44.1804 15.1667 43.9284 15.432 43.6166C15.7015 43.3006 15.8898 42.9205 16.0053 42.4806C16.1165 42.0536 16.1336 41.6393 16.0609 41.2336C15.9882 40.8279 15.8427 40.4563 15.633 40.1232C15.4191 39.7901 15.1496 39.4997 14.8201 39.2563C14.4907 39.0128 14.127 38.842 13.7206 38.7352C13.3398 38.637 12.9462 38.6114 12.5397 38.6541C12.1333 38.7011 11.7525 38.8121 11.3974 38.9915C11.0423 39.1709 10.7257 39.4185 10.4519 39.7346C10.1781 40.0506 9.98552 40.4222 9.87001 40.862C9.75877 41.2891 9.74165 41.7034 9.81439 42.1091C9.8914 42.5148 10.0369 42.8906 10.2508 43.228ZM10.9182 41.1525C10.991 40.8791 11.1065 40.6485 11.2776 40.4606C11.4445 40.2727 11.6413 40.1275 11.868 40.025C12.0948 39.9225 12.3429 39.8627 12.6082 39.8456C12.8735 39.8285 13.1387 39.8499 13.3997 39.9182C13.6521 39.9823 13.8874 40.0848 14.1099 40.2257C14.3324 40.3666 14.5207 40.5332 14.6747 40.7339C14.8287 40.9346 14.9357 41.161 14.9956 41.4087C15.0555 41.6564 15.0469 41.9254 14.9742 42.2073C14.9014 42.4849 14.7816 42.7198 14.6105 42.9077C14.4394 43.0956 14.2426 43.2408 14.0158 43.3433C13.789 43.4458 13.5409 43.5056 13.2799 43.5184C13.0147 43.5355 12.7494 43.5099 12.4884 43.4415C12.2403 43.3775 12.0007 43.275 11.7825 43.1341C11.56 42.9931 11.3717 42.8266 11.222 42.6301C11.068 42.4337 10.9653 42.2073 10.9054 41.9553C10.8369 41.7034 10.8455 41.4343 10.9182 41.1525ZM17.6097 37.5394L15.6972 36.681L16.1892 35.5877L18.6279 35.2802L19.1884 34.0375L16.4588 34.3749C16.4673 33.999 16.3604 33.6488 16.1422 33.3285C15.924 33.0082 15.6288 32.7648 15.2565 32.5982C15.0255 32.4957 14.7774 32.436 14.5078 32.4274C14.2383 32.4189 13.9773 32.4488 13.7291 32.5299C13.4767 32.6111 13.2457 32.7349 13.036 32.91C12.8264 33.0808 12.6638 33.2986 12.544 33.5634L11.4102 36.0831L17.1177 38.6413L17.6097 37.5394ZM15.3464 34.8574L14.7217 36.2454L12.8735 35.4169L13.4767 34.0759C13.5195 33.9777 13.5837 33.8965 13.6735 33.8197C13.7634 33.7471 13.8618 33.6915 13.9773 33.6574C14.0928 33.6232 14.2169 33.6104 14.3495 33.6147C14.4822 33.6232 14.6148 33.6574 14.7474 33.7172C14.8758 33.7727 14.987 33.8496 15.0854 33.935C15.1795 34.0247 15.2565 34.1186 15.3122 34.2211C15.3678 34.3236 15.3977 34.4304 15.4063 34.5371C15.4106 34.6482 15.3935 34.7549 15.3464 34.8574ZM15.8684 31.0437C16.0994 31.3811 16.3946 31.6672 16.7497 31.9064C17.1262 32.1541 17.5198 32.3206 17.9348 32.4061C18.3456 32.4915 18.7477 32.5 19.1328 32.436C19.5221 32.3719 19.8815 32.2352 20.2195 32.026C20.5575 31.8167 20.8356 31.5391 21.0624 31.1975C21.426 30.6423 21.5416 30.023 21.4004 29.3312L21.9908 29.7198L22.5427 28.8827L19.8601 27.1147L18.6108 28.998L19.3553 29.4892L20.0484 28.4386L20.4163 28.682C20.6217 29.4038 20.5618 30.0145 20.2281 30.5184C20.0826 30.7405 19.9029 30.9113 19.6847 31.0437C19.4708 31.1718 19.2398 31.253 18.9916 31.2871C18.7435 31.3213 18.4868 31.3085 18.2215 31.2444C17.9562 31.1804 17.6995 31.0693 17.4557 30.907C17.2203 30.7533 17.0193 30.5697 16.8567 30.3604C16.6941 30.1511 16.5743 29.9291 16.4973 29.6899C16.4203 29.455 16.3989 29.2116 16.4246 28.9682C16.4545 28.7247 16.5401 28.4898 16.6855 28.272C16.8695 27.9944 17.1091 27.7809 17.4043 27.6314C17.6995 27.4862 18.0204 27.4307 18.367 27.4691L18.3071 26.3459C17.8407 26.2947 17.3915 26.3716 16.9551 26.5894C16.5187 26.8029 16.1379 27.1574 15.8127 27.6442C15.5731 28.0072 15.4191 28.3873 15.3549 28.7888C15.2908 29.1902 15.3036 29.5831 15.3892 29.9675C15.479 30.3433 15.6373 30.7063 15.8684 31.0437ZM23.6594 27.6101L22.9064 26.1324L24.3867 24.5309L25.9269 25.163L26.7783 24.2448L20.5704 21.7421L19.8387 22.5279L22.8037 28.524L23.6594 27.6101ZM21.2207 23.0789L23.6123 24.1166L22.4144 25.4064L21.2207 23.0789ZM28.2715 23.0532L25.8371 19.8716L30.83 21.1015L31.613 20.5036L27.818 15.5496L26.8511 16.2885L29.3411 19.5385L24.2541 18.2615L23.5054 18.8338L27.3046 23.7963L28.2715 23.0532ZM33.8206 19.2779L30.6674 13.8798L29.6149 14.4905L32.7681 19.8844L33.8206 19.2779ZM33.3201 15.8443C33.4826 16.2116 33.7051 16.5362 33.9961 16.8308C34.287 17.1212 34.6164 17.3519 34.9844 17.5227C35.3523 17.6935 35.7417 17.7875 36.1567 17.8131C36.5717 17.8387 36.9824 17.7576 37.3931 17.5782C37.6242 17.4757 37.8466 17.3433 38.0648 17.181C38.283 17.0145 38.4713 16.8308 38.6339 16.6258C38.7965 16.4208 38.9291 16.1988 39.0232 15.9596C39.1216 15.7205 39.1687 15.477 39.1644 15.2208L38.0221 15.0969C38.0263 15.2806 37.9964 15.4514 37.9408 15.6094C37.8809 15.7674 37.8039 15.9084 37.7097 16.0322C37.6156 16.1561 37.5044 16.2671 37.376 16.3611C37.2519 16.455 37.1236 16.5276 36.9952 16.5874C36.7471 16.6942 36.4989 16.7411 36.2422 16.7241C35.9898 16.707 35.7459 16.6429 35.5235 16.5319C35.2967 16.4208 35.0913 16.2628 34.9116 16.0664C34.7277 15.8699 34.5822 15.6436 34.471 15.3916C34.3726 15.1653 34.3084 14.9218 34.2784 14.6656C34.2485 14.4051 34.2613 14.1574 34.3212 13.9182C34.3811 13.6791 34.4881 13.457 34.6464 13.252C34.8047 13.047 35.0229 12.8847 35.301 12.7609C35.4293 12.7053 35.5662 12.6626 35.716 12.6327C35.8615 12.6028 36.0112 12.5943 36.1652 12.6028C36.315 12.6114 36.469 12.6498 36.6273 12.7139C36.7813 12.7779 36.9353 12.8719 37.0808 13L37.6798 12.0391C37.329 11.753 36.9097 11.5736 36.4219 11.5138C35.9342 11.4498 35.4293 11.5352 34.9031 11.7658C34.4581 11.9622 34.0945 12.2185 33.8164 12.5388C33.5383 12.8591 33.3415 13.205 33.2131 13.5808C33.089 13.9567 33.0377 14.341 33.0634 14.7382C33.0805 15.1226 33.166 15.4941 33.3201 15.8443ZM45.167 15.2122C45.4152 15.1653 45.6633 15.0798 45.9115 14.9688C46.1596 14.8535 46.3821 14.7168 46.5875 14.5503C46.7928 14.3837 46.9682 14.1958 47.1137 13.9865C47.2592 13.7773 47.3619 13.5467 47.4132 13.2947L46.3265 12.9274C46.2923 13.1068 46.2281 13.2691 46.134 13.41C46.0398 13.5509 45.9371 13.6705 45.8131 13.773C45.6933 13.8755 45.5606 13.9567 45.4195 14.0207C45.2783 14.0848 45.1371 14.1318 44.9959 14.1574C44.7306 14.2086 44.4739 14.2001 44.2301 14.1275C43.9862 14.0549 43.7637 13.9396 43.5669 13.7816C43.3701 13.6235 43.2032 13.4271 43.0706 13.1922C42.9337 12.9573 42.8396 12.7053 42.7882 12.4363C42.7412 12.1929 42.7283 11.9452 42.7583 11.6846C42.7839 11.4241 42.8524 11.185 42.9636 10.9629C43.0706 10.7408 43.2246 10.5486 43.4257 10.3821C43.6225 10.2198 43.8707 10.1045 44.1744 10.049C44.3113 10.0233 44.4568 10.0105 44.6066 10.0148C44.7563 10.0191 44.906 10.0404 45.0515 10.0831C45.197 10.1258 45.3382 10.1942 45.4794 10.2924C45.6163 10.3864 45.7446 10.5145 45.8601 10.6725L46.6516 9.86105C46.3693 9.50232 46.0013 9.2418 45.5393 9.07525C45.0772 8.90869 44.5638 8.87879 43.999 8.9941C43.5198 9.08806 43.1091 9.26316 42.7711 9.51513C42.4331 9.7671 42.1593 10.0618 41.9582 10.4034C41.7571 10.7408 41.6245 11.1081 41.5603 11.501C41.4961 11.8939 41.5004 12.274 41.5774 12.6498C41.6544 13.0427 41.8042 13.41 42.0267 13.7602C42.2491 14.1104 42.5187 14.4051 42.8396 14.6485C43.1604 14.8919 43.5198 15.0713 43.9177 15.1866C44.3113 15.2848 44.7306 15.2977 45.167 15.2122ZM48.8935 13.6449C49.1674 13.9353 49.4925 14.1616 49.8733 14.3325C50.2498 14.5033 50.6691 14.5802 51.1269 14.5674C51.5676 14.5546 51.974 14.4606 52.3462 14.277C52.7184 14.0933 53.0351 13.8542 53.296 13.5595C53.557 13.2605 53.7624 12.9231 53.9036 12.5388C54.0448 12.1587 54.1132 11.7572 54.1004 11.343C54.0918 10.9501 54.0063 10.5657 53.8522 10.1899C53.6939 9.81408 53.48 9.47669 53.2105 9.18628C52.9367 8.89588 52.6115 8.66099 52.235 8.48589C51.8585 8.31079 51.4435 8.22965 50.99 8.24246C50.5493 8.25527 50.1428 8.34923 49.7706 8.53287C49.3984 8.71651 49.0818 8.95567 48.8165 9.25889C48.5513 9.55784 48.3459 9.89949 48.2004 10.2881C48.055 10.6725 47.9865 11.0739 47.9993 11.4882C48.0079 11.8854 48.0935 12.274 48.2475 12.6541C48.4015 13.0214 48.6197 13.3545 48.8935 13.6449ZM49.3299 10.6853C49.4027 10.4333 49.5139 10.207 49.6594 10.0063C49.8091 9.80554 49.9931 9.64325 50.2198 9.51513C50.4466 9.39128 50.7076 9.32295 50.9985 9.31441C51.2809 9.30586 51.5376 9.35711 51.7644 9.46815C51.9954 9.57492 52.1879 9.72439 52.3505 9.91657C52.5131 10.1045 52.6372 10.3266 52.727 10.5743C52.8169 10.8262 52.8682 11.0825 52.8768 11.3558C52.881 11.612 52.8511 11.8683 52.7784 12.1203C52.7056 12.3722 52.5944 12.5986 52.4446 12.8036C52.2949 13.0086 52.1066 13.1708 51.8842 13.299C51.6617 13.4228 51.405 13.4911 51.1098 13.4997C50.8231 13.5082 50.5621 13.457 50.3354 13.3417C50.1043 13.2306 49.9118 13.0812 49.7492 12.889C49.5866 12.7011 49.4626 12.479 49.377 12.2313C49.2872 11.9793 49.2401 11.7231 49.2358 11.4498C49.223 11.1892 49.2572 10.9373 49.3299 10.6853ZM57.4846 14.9047L58.1606 9.7671L60.1458 10.0276L60.2827 8.96848L55.1186 8.29371L54.9817 9.34857L56.9669 9.60908L56.2909 14.7467L57.4846 14.9047ZM66.4479 10.6383L61.4379 9.21191L61.1427 10.2369L63.068 10.7835L61.6432 15.7674L62.8027 16.0963L64.2274 11.1124L66.1527 11.659L66.4479 10.6383ZM65.8703 14.9731C65.8447 15.3788 65.8874 15.776 66.0072 16.1561C66.1228 16.5362 66.3153 16.8864 66.5763 17.2067C66.8373 17.527 67.1795 17.7832 67.5945 17.9754C67.9924 18.159 68.4032 18.253 68.8139 18.253C69.2289 18.253 69.6182 18.1804 69.9862 18.0309C70.3541 17.8814 70.6878 17.6679 70.9831 17.386C71.2825 17.1084 71.5179 16.7796 71.6933 16.3995C71.8601 16.045 71.9543 15.6607 71.9842 15.2549C72.0099 14.8492 71.9671 14.4521 71.8559 14.072C71.7403 13.6876 71.5564 13.3374 71.2954 13.0128C71.0344 12.6883 70.7007 12.432 70.2899 12.2398C69.8921 12.0562 69.4813 11.9622 69.0706 11.9622C68.6556 11.9622 68.262 12.0348 67.894 12.1886C67.5218 12.3381 67.1838 12.5559 66.8843 12.8377C66.5806 13.1196 66.3452 13.4484 66.1698 13.8243C65.9987 14.1787 65.9003 14.5631 65.8703 14.9731ZM67.0683 15.0969C67.0982 14.8321 67.171 14.5802 67.2865 14.3367C67.3935 14.1019 67.5389 13.8883 67.7143 13.6961C67.8898 13.504 68.0908 13.3502 68.3133 13.2349C68.5358 13.1196 68.7754 13.0555 69.0321 13.0427C69.2888 13.0299 69.5541 13.0854 69.8193 13.2093C70.076 13.3289 70.2814 13.4869 70.4397 13.6833C70.598 13.8841 70.705 14.1019 70.7649 14.341C70.8248 14.5802 70.8419 14.8364 70.8119 15.0969C70.782 15.3617 70.7135 15.618 70.598 15.8614C70.491 16.0963 70.3456 16.3098 70.1702 16.502C69.9947 16.6942 69.7937 16.8479 69.5669 16.9632C69.3401 17.0785 69.1005 17.1426 68.8438 17.1597C68.5871 17.1725 68.3262 17.117 68.0609 16.9974C67.7999 16.8778 67.5903 16.7155 67.4362 16.5148C67.2822 16.3141 67.171 16.092 67.1154 15.8528C67.0469 15.6137 67.0341 15.3617 67.0683 15.0969ZM72.1939 20.4139L74.4999 17.1383L74.8294 22.2589L75.638 22.8269L79.2276 17.7234L78.2307 17.0273L75.8776 20.3755L75.5695 15.1482L74.7994 14.6058L71.2055 19.7178L72.1939 20.4139ZM79.0137 26.0086L82.154 23.3137L80.8662 26.5424L81.2983 27.0421L84.6911 26.2563L81.5508 28.9511L82.3423 29.8735L87.0913 25.8036L86.2485 24.8213L82.3294 25.7224L83.8269 22.0069L82.9755 21.0204L78.2264 25.0904L79.0137 26.0086ZM83.3605 31.5477L84.9992 31.2572L86.0987 33.1406L85.042 34.4261L85.6709 35.5066L89.8809 30.3092L89.3418 29.3824L82.7316 30.4672L83.3605 31.5477ZM88.4134 30.5398L86.7234 32.5214L85.8335 31.001L88.4134 30.5398ZM86.3726 37.2917L88.3278 36.5316L88.7599 37.6462L87.2667 39.5936L87.763 40.8663L89.4402 38.6883C89.7012 38.9573 90.0263 39.1281 90.4071 39.1965C90.7879 39.2648 91.1687 39.2264 91.5495 39.0812C91.7848 38.9915 91.9987 38.8505 92.1955 38.6712C92.3923 38.4875 92.5506 38.2783 92.6704 38.0434C92.7902 37.8085 92.8629 37.5565 92.8843 37.2832C92.91 37.0141 92.8672 36.7451 92.7645 36.476L91.7634 33.9008L85.9319 36.1643L86.3726 37.2917ZM91.2115 35.4126L91.7463 36.7835C91.7848 36.8818 91.7976 36.9885 91.789 37.1038C91.7805 37.2191 91.7463 37.3259 91.6906 37.4327C91.635 37.5394 91.558 37.6377 91.4596 37.7274C91.3612 37.817 91.2457 37.8854 91.1088 37.9409C90.9761 37.9921 90.8478 38.022 90.7152 38.0263C90.5868 38.0306 90.467 38.0178 90.3558 37.9879C90.2445 37.9537 90.1461 37.9025 90.0648 37.8341C89.9793 37.7615 89.9194 37.6761 89.8766 37.5693L89.3247 36.1515L91.2115 35.4126ZM93.3122 41.8486L88.2508 42.9974L88.516 44.1718L93.5774 43.023L94.0224 44.9705L95.062 44.7356L93.9069 39.6662L92.8672 39.9011L93.3122 41.8486Z" fill="white"/>
</g>
<defs>
<clipPath id="clip0_2108_887">
<rect width="104" height="104" fill="white"/>
</clipPath>
</defs>
</svg>
