<svg width="20" height="16" viewBox="0 0 20 16" fill="none" xmlns="http://www.w3.org/2000/svg">
<path d="M19.4376 2.2392C18.7359 2.54322 17.9958 2.7531 17.2372 2.86321C18.0432 2.37969 18.6445 1.62646 18.9306 0.742006C18.1723 1.18425 17.3416 1.49375 16.4756 1.65672C15.731 0.875052 14.6863 0.437195 13.597 0.450234C12.5781 0.455893 11.6034 0.860153 10.8885 1.57366C10.1568 2.28963 9.74549 3.26258 9.74546 4.27734C9.74407 4.57293 9.78678 4.86712 9.87222 5.15053C8.30178 5.0567 6.76788 4.64562 5.36633 3.94298C4.0167 3.2651 2.82705 2.31603 1.87451 1.1573C1.53773 1.73274 1.36239 2.38572 1.36639 3.04956C1.35787 3.69584 1.51828 4.33345 1.83225 4.90135C2.12488 5.43678 2.54628 5.89375 3.05975 6.23243C2.45339 6.21555 1.85958 6.0587 1.3263 5.77454V5.81607C1.30629 6.70347 1.61422 7.56793 2.19303 8.24927C2.76022 8.92199 3.54419 9.38409 4.4151 9.55905C4.08385 9.64476 3.74246 9.68666 3.39994 9.68364C3.15759 9.68502 2.91599 9.65713 2.68056 9.60058C2.91903 10.3553 3.39276 11.0172 4.03482 11.4928C4.6802 11.9771 5.4657 12.2467 6.27747 12.2627C5.62355 12.7927 4.8773 13.2019 4.07491 13.4703C3.24401 13.7498 2.37135 13.8905 1.49315 13.8866C1.18257 13.8866 0.872354 13.8728 0.5625 13.8451C1.42643 14.3795 2.35872 14.7988 3.33494 15.0921C4.35633 15.4001 5.41927 15.5545 6.48765 15.55C10.0708 15.408 12.8007 14.2295 14.6771 12.0146C16.4754 9.99664 17.4877 7.41744 17.5341 4.73523L17.4918 4.23581C18.2509 3.68353 18.9089 3.00836 19.4376 2.2392Z" fill="#5F962E"/>
</svg>
