<svg width="32" height="32" viewBox="0 0 32 32" fill="none" xmlns="http://www.w3.org/2000/svg">
<path d="M2.05013 16.4383C2.30792 14.2087 3.31565 13.3458 4.83561 12.4704C4.87244 12.4498 4.90592 12.425 4.94274 12.4002C3.21552 11.1946 2.46789 7.92271 3 8C3.46202 8 4.95279 7.97407 5.38467 7.77175C5.39806 9.00216 5.63912 10.0757 5.91365 11.1946C6.33214 10.3688 6.63011 9.38615 7.25952 8.68011C8.29403 7.51989 9.71691 6.90468 11.113 7.01204C13.4633 7.18958 15.6126 7.41254 17.9562 10.3028C20.2997 13.193 20.3031 15.9222 22.1411 17.7348C23.9791 19.5473 26.0314 20.8562 28 19.2666C23.9356 23.1766 18.8534 25.3113 13.721 25.8769C11.046 26.1701 8.23712 26.0256 5.86008 24.4855C3.48304 22.9454 1.67181 19.7166 2.05013 16.4383Z" fill="#B1CAB6"/>
</svg>
