<svg width="18" height="18" viewBox="0 0 18 18" fill="none" xmlns="http://www.w3.org/2000/svg">
<path fill-rule="evenodd" clip-rule="evenodd" d="M0.787599 0.00092608C0.775144 0.000311113 0.762608 0 0.75 0C0.335786 0 0 0.335786 0 0.75V2.51761C0 11.0672 6.93324 17.9977 15.4825 17.9977H17.2504C17.6646 17.9977 18.0004 17.6619 18.0004 17.2477C18.0004 17.2347 18.0001 17.2219 17.9994 17.2091V13.6397C17.9994 13.3297 17.8087 13.0516 17.5194 12.94L13.27 11.3003C13.0181 11.2031 12.7334 11.2488 12.5246 11.42L8.56215 14.6678C6.38457 13.4252 4.5732 11.6142 3.33028 9.43696L6.57985 5.47568C6.75123 5.26675 6.79698 4.98179 6.6996 4.72973L5.05808 0.480651C4.9464 0.191553 4.6684 0.000926034 4.35848 0.000926037L0.787599 0.00092608ZM2.60014 7.96195L5.14281 4.86239L3.8442 1.50093L1.5 1.50093V2.51761C1.5 4.44887 1.89176 6.28868 2.60014 7.96195ZM15.4825 16.4977C13.5512 16.4977 11.7112 16.1061 10.0376 15.3979L13.1376 12.857L16.4994 14.1542V16.4977H15.4825Z" fill="#3E532B"/>
</svg>
