<svg width="20" height="25" viewBox="0 0 17 20" fill="none" xmlns="http://www.w3.org/2000/svg">
<path d="M14.2491 2.04951C12.8724 0.727896 10.9672 0 8.88448 0C5.70305 0 3.74631 1.30411 2.66505 2.39806C1.33247 3.74624 0.568359 5.53637 0.568359 7.30951C0.568359 9.53581 1.49958 11.2446 3.059 11.8803C3.16369 11.9232 3.26904 11.9448 3.37233 11.9448C3.70131 11.9448 3.96198 11.7295 4.05229 11.3842C4.10495 11.1861 4.2269 10.6974 4.27995 10.4853C4.39347 10.0663 4.30175 9.8648 4.05417 9.57304C3.60315 9.03936 3.39311 8.40831 3.39311 7.58701C3.39311 5.1475 5.20961 2.55482 8.57631 2.55482C11.2477 2.55482 12.907 4.07312 12.907 6.51712C12.907 8.0594 12.5749 9.48769 11.9715 10.5391C11.5522 11.2696 10.8148 12.1404 9.68296 12.1404C9.1935 12.1404 8.75381 11.9394 8.47639 11.5888C8.21431 11.2575 8.12791 10.8294 8.23334 10.3833C8.3524 9.87921 8.51479 9.35343 8.67194 8.84514C8.95854 7.91678 9.22948 7.03994 9.22948 6.34036C9.22948 5.14379 8.49385 4.33976 7.39911 4.33976C6.00785 4.33976 4.91788 5.75282 4.91788 7.55674C4.91788 8.44143 5.153 9.10315 5.25945 9.35722C5.08417 10.0998 4.04253 14.5147 3.84495 15.3472C3.73069 15.8332 3.04248 19.6716 4.18159 19.9777C5.46144 20.3216 6.60547 16.5832 6.72192 16.1607C6.8163 15.8172 7.14649 14.5181 7.34884 13.7195C7.9667 14.3146 8.96151 14.717 9.92948 14.717C11.7543 14.717 13.3954 13.8958 14.5505 12.4049C15.6708 10.9588 16.2878 8.94323 16.2878 6.72978C16.2877 4.99937 15.5446 3.29342 14.2491 2.04951Z" fill="#5C7644"/>
</svg>
