<svg width="24" height="24" viewBox="0 0 24 24" fill="none" xmlns="http://www.w3.org/2000/svg">
<path fill-rule="evenodd" clip-rule="evenodd" d="M19.0532 5.4333C19.1972 4.88346 19.694 4.5 20.2624 4.5H22V3H20.2624C19.012 3 17.9189 3.84362 17.6021 5.05326L17.0923 7H3.75001C3.51668 7 3.29665 7.10859 3.15472 7.29379C3.01279 7.47898 2.96514 7.71968 3.02579 7.94498L4.17808 12.2249C4.61889 13.8622 6.10354 15 7.79914 15H14.4251C15.6756 15 16.7686 14.1564 17.0854 12.9467L19.0532 5.4333ZM4.72864 8.5H16.6994L15.6343 12.5667C15.4903 13.1165 14.9935 13.5 14.4251 13.5H7.79914C6.78178 13.5 5.89099 12.8173 5.62651 11.8349L4.72864 8.5ZM6.5 19.5C7.05228 19.5 7.5 19.0523 7.5 18.5C7.5 17.9477 7.05228 17.5 6.5 17.5C5.94771 17.5 5.5 17.9477 5.5 18.5C5.5 19.0523 5.94771 19.5 6.5 19.5ZM6.5 21C7.88071 21 9 19.8807 9 18.5C9 17.1193 7.88071 16 6.5 16C5.11929 16 4 17.1193 4 18.5C4 19.8807 5.11929 21 6.5 21ZM15.5 19.5C16.0523 19.5 16.5 19.0523 16.5 18.5C16.5 17.9477 16.0523 17.5 15.5 17.5C14.9477 17.5 14.5 17.9477 14.5 18.5C14.5 19.0523 14.9477 19.5 15.5 19.5ZM15.5 21C16.8807 21 18 19.8807 18 18.5C18 17.1193 16.8807 16 15.5 16C14.1193 16 13 17.1193 13 18.5C13 19.8807 14.1193 21 15.5 21Z" fill="#212D1E"/>
</svg>
