<svg width="22" height="21" viewBox="0 0 22 21" fill="none" xmlns="http://www.w3.org/2000/svg">
<path d="M10.5223 1.23943C10.6675 0.769594 11.3325 0.769594 11.4777 1.23943L13.1373 6.61005C13.3315 7.23856 13.9126 7.66718 14.5705 7.66718H20.0437C20.522 7.66718 20.7273 8.27417 20.3472 8.56451L15.8344 12.012C15.3348 12.3937 15.1262 13.0463 15.3118 13.6469L15.7895 13.4993L15.3118 13.6469L17.015 19.1584C17.1587 19.6236 16.6206 19.9989 16.2337 19.7034L11.9106 16.4008C11.373 15.9901 10.627 15.9901 10.0894 16.4008L5.76625 19.7034C5.37941 19.9989 4.84128 19.6236 4.98501 19.1584L6.68818 13.6469C6.87377 13.0463 6.66518 12.3937 6.16563 12.012L1.65276 8.56451C1.27271 8.27417 1.47803 7.66718 1.9563 7.66718H7.42954C8.08738 7.66718 8.66846 7.23856 8.86268 6.61005L10.5223 1.23943Z" fill="white" stroke="#5C7644"/>
</svg>
