<svg width="22" height="21" viewBox="0 0 22 21" fill="none" xmlns="http://www.w3.org/2000/svg">
<path d="M10.0446 1.09181C10.335 0.152134 11.665 0.152134 11.9554 1.09181L13.615 6.46243C13.7445 6.88144 14.1319 7.16718 14.5705 7.16718H20.0437C21.0002 7.16718 21.4109 8.38116 20.6508 8.96184L16.1379 12.4094C15.8049 12.6638 15.6658 13.0989 15.7895 13.4993L17.4927 19.0108C17.7802 19.941 16.7039 20.6918 15.9302 20.1007L11.6071 16.7981C11.2487 16.5243 10.7513 16.5243 10.3929 16.7981L6.06978 20.1007C5.29609 20.6918 4.21985 19.941 4.5073 19.0108L6.21046 13.4993C6.3342 13.0989 6.19513 12.6638 5.8621 12.4094L1.34923 8.96184C0.589118 8.38116 0.999762 7.16718 1.9563 7.16718H7.42954C7.8681 7.16718 8.25549 6.88143 8.38497 6.46243L10.0446 1.09181Z" fill="#5C7644"/>
</svg>
