<svg width="14" height="14" viewBox="0 0 14 14" fill="none" xmlns="http://www.w3.org/2000/svg">
<path fill-rule="evenodd" clip-rule="evenodd" d="M12.5 7C12.5 10.0376 10.0376 12.5 7 12.5C3.96243 12.5 1.5 10.0376 1.5 7C1.5 3.96243 3.96243 1.5 7 1.5C10.0376 1.5 12.5 3.96243 12.5 7ZM14 7C14 10.866 10.866 14 7 14C3.13401 14 0 10.866 0 7C0 3.13401 3.13401 0 7 0C10.866 0 14 3.13401 14 7ZM6.25 2.99999V6.87867C6.25 7.4754 6.48705 8.0477 6.90901 8.46966L8.46967 10.0303L9.53033 8.96966L7.96967 7.409C7.82902 7.26834 7.75 7.07758 7.75 6.87867V2.99999H6.25Z" fill="#212D1E" fill-opacity="0.5"/>
</svg>
