<svg width="28" height="23" viewBox="0 0 28 23" fill="none" xmlns="http://www.w3.org/2000/svg">
<path fill-rule="evenodd" clip-rule="evenodd" d="M3.83042 1.04301C2.13866 1.26311 0.796445 2.58474 0.540592 4.28238C-0.180197 9.065 -0.180197 13.9297 0.540592 18.7123C0.796445 20.4099 2.13865 21.7316 3.83041 21.9517C10.5613 22.8274 17.2165 22.8274 23.9474 21.9517C25.6391 21.7316 26.9813 20.41 27.2372 18.7123C27.958 13.9297 27.958 9.065 27.2372 4.28238C26.9813 2.58474 25.6391 1.26311 23.9474 1.04301C17.2165 0.167304 10.5613 0.167305 3.83042 1.04301ZM11.1113 8.02363V14.9709C11.1113 15.5171 11.7243 15.848 12.1923 15.5544L17.7306 12.0807C18.1642 11.8088 18.1642 11.1858 17.7306 10.9138L12.1923 7.44018C11.7243 7.14662 11.1113 7.47745 11.1113 8.02363Z" fill="white"/>
</svg>
